<svg xmlns="http://www.w3.org/2000/svg" width="776" height="540" viewBox="0 0 776 540">
    <defs>
        <linearGradient id="a" x1=".003%" x2="99.95%" y1="50.001%" y2="50.001%">
            <stop offset="0%" stop-color="#43C0DD"/>
            <stop offset="100%" stop-color="#3492A8"/>
        </linearGradient>
        <radialGradient id="b" cx="4.735%" cy="-1395.214%" r="1812.163%" fx="4.735%" fy="-1395.214%" gradientTransform="matrix(.06818 0 0 1 .044 0)">
            <stop offset="0%" stop-color="#CDF7F1"/>
            <stop offset="100%" stop-color="#5DCFCA"/>
        </radialGradient>
    </defs>
    <g fill="none" fill-rule="evenodd">
        <path stroke="#0B0F41" d="M775 182H186v357h589z"/>
        <path fill="#0B0F41" d="M655 22H0v397c0 55.228 44.772 100 100 100h655V122c0-55.228-44.772-100-100-100z"/>
        <path fill="#E4EFFF" fill-rule="nonzero" d="M338.177 336.223c40.086-.153 263.522 9.526 297.383 40.414 14.568 13.294-6.176 31.514-141.934 48.19-478.25 58.768-426.702 1.133-405.264-39.692 16.773-31.983 109.685-48.367 249.815-48.912z"/>
        <g fill-rule="nonzero" transform="translate(445.341 34.14)">
            <rect width="183.709" height="62.168" fill="#E4EFFF" rx="31.084"/>
            <rect width="183.709" height="62.168" y="65.707" fill="#E4EFFF" rx="31.084"/>
            <rect width="183.709" height="62.168" y="131.447" fill="#E4EFFF" rx="31.084"/>
            <path fill="#A6DAE9" d="M58.127 31.495c0 15.055-12.21 27.258-27.27 27.258-15.06 0-27.269-12.203-27.269-27.258 0-15.054 12.209-27.258 27.27-27.258a27.275 27.275 0 0 1 19.282 7.984 27.253 27.253 0 0 1 7.987 19.274z"/>
            <path fill="#98C168" d="M58.127 96.786c0 15.054-12.21 27.258-27.27 27.258-15.06 0-27.269-12.204-27.269-27.258 0-15.054 12.209-27.258 27.27-27.258A27.275 27.275 0 0 1 50.14 77.51a27.253 27.253 0 0 1 7.987 19.275z"/>
            <path fill="#2C5871" d="M58.127 162.526c0 15.054-12.21 27.258-27.27 27.258-15.06 0-27.269-12.204-27.269-27.258 0-15.054 12.209-27.258 27.27-27.258a27.275 27.275 0 0 1 19.282 7.984 27.253 27.253 0 0 1 7.987 19.274z"/>
            <path fill="#D1DBEA" d="M68.058 31.467h29.953v3.654H68.058zM102.288 31.467H131.6v3.654h-29.312zM68.058 39.4h56.213v3.654H68.058z"/>
            <path fill="#BFCBDC" d="M68.058 17.641h48.434v5.48H68.058z"/>
            <path fill="#D1DBEA" d="M68.058 95.547h29.953v3.654H68.058zM102.288 95.547H131.6v3.654h-29.312zM68.058 103.481h56.213v3.654H68.058z"/>
            <path fill="#BFCBDC" d="M68.058 81.722h48.434v5.48H68.058z"/>
            <path fill="#D1DBEA" d="M68.058 163.932h26.269v3.654H68.058zM98.078 163.932h25.705v3.654H98.078zM68.058 171.866h49.295v3.654H68.058zM127.864 163.932h25.705v3.654h-25.705zM120.922 171.866h29.264v3.654h-29.264z"/>
            <path fill="#BFCBDC" d="M68.058 150.107h42.478v5.48H68.058zM114.076 150.107h30.656v5.48h-30.656z"/>
            <path fill="#D1DBEA" d="M68.058 163.932h26.269v3.654H68.058zM98.078 163.932h25.705v3.654H98.078zM68.058 171.866h49.295v3.654H68.058zM127.864 163.932h25.705v3.654h-25.705zM120.922 171.866h29.264v3.654h-29.264z"/>
            <path fill="#BFCBDC" d="M68.058 150.107h42.478v5.48H68.058zM114.076 150.107h30.656v5.48h-30.656z"/>
        </g>
        <path fill="#D1DBEA" fill-rule="nonzero" d="M493.086 65.606h-29.312v3.654h29.312zM501.003 73.54h-33.364v3.654h33.364z"/>
        <path fill="#BFCBDC" fill-rule="nonzero" d="M508.811 51.781h-34.952v5.48h34.952z"/>
        <path fill="#D1DBEA" fill-rule="nonzero" d="M493.086 129.687h-29.312v3.654h29.312zM501.003 137.621h-33.364v3.654h33.364z"/>
        <path fill="#BFCBDC" fill-rule="nonzero" d="M508.811 115.862h-34.952v5.48h34.952z"/>
        <path fill="#ACF4D1" fill-rule="nonzero" d="M227.057 262.855s-4.248-15.168-10.927-20.328c-6.678-5.16-11.534-12.434-20.332-15.782-8.798-3.347-10.932-9.406-7.592-11.53 3.339-2.123 14.266-8.191 27.623 5.763 13.357 13.955 16.692 24.867 16.39 37.927-.301 13.06-4.554 11.535-5.162 3.95z"/>
        <path fill="#86D8A9" fill-rule="nonzero" d="M229.583 255.816l1.627-.081c-.641-13.075-12.558-26.087-18.232-30.343-6.12-4.586-19.137-8.46-19.682-8.608l-.478 1.554c.134.044 13.285 3.96 19.17 8.37 5.487 4.088 16.988 16.608 17.595 29.108z"/>
        <path fill="url(#a)" fill-rule="nonzero" d="M409.297 267.71s-6.88-19.416-9.711-25.485c-2.833-6.068-2.426-20.635 2.023-26.302 4.45-5.666 11.74-14.155 8.52-26.693-3.219-12.54-1.621-20.224 4.45-15.37 6.07 4.854 16.744 15.556 16.998 32.767.2 13.146-3.674 20.84-10.927 30.338-5.89 7.685-11.755 21.845-11.353 30.744z" transform="matrix(-1 0 0 1 640 0)"/>
        <path fill="#43C0DD" fill-rule="nonzero" d="M233.621 263.21c.153-.804 3.65-19.77-.057-27.8-.847-1.826-1.976-4.045-3.167-6.393-3.914-7.651-9.267-18.172-9.813-25.484-.88-11.712 6.473-23.05 6.545-23.16l-1.354-.894c-.32.478-7.731 11.903-6.812 24.173.574 7.618 5.793 17.867 9.984 26.106 1.186 2.33 2.31 4.534 3.138 6.332 3.497 7.565 0 26.627-.057 26.818l1.593.301z"/>
        <path fill="#194866" fill-rule="nonzero" d="M257.714 238.887c7.893-1.52 8.5-10.62 2.43-12.433-6.071-1.813-16.089-1.516-20.945 4.854-5.63 7.383-7.893 20.63-6.07 30.036 1.822 9.407 0-3.644 3.946-10.014 3.947-6.37 14.132-11.195 20.639-12.443z"/>
        <path stroke="#161711" stroke-width="2.54" d="M261.36 231.504s-10.933-2.124-18.52 5.16c-6.569 6.303-9.406 14.155-10.62 22.246"/>
        <path fill="#98C168" fill-rule="nonzero" d="M217.647 286.116h21.854l3.64-35.197h-29.135z"/>
        <path fill="#43C0DD" fill-rule="nonzero" d="M518.795 0H277.18v144.913h241.615z"/>
        <path fill="#367082" fill-rule="nonzero" d="M288.337 310.577c-2.917.04-5.75-.98-7.97-2.87-4.005-3.481-5.742-9.67-5.153-18.397.392-5.887 2.712-11.845 5.162-18.172 4.138-10.621 8.817-22.658 6.367-38.577l4.555-.699c2.631 17.14-2.502 30.338-6.626 40.945-2.426 6.217-4.521 11.616-4.865 16.8-.479 7.073.75 12.118 3.54 14.58a7.623 7.623 0 0 0 6.085 1.708l.923 4.51c-.666.119-1.342.176-2.018.172z"/>
        <path fill="#88BDDA" fill-rule="nonzero" d="M323.638 347.083l4.483 6.83-37.65 12.06s-2.517-2.391 6.726-7.235c10.74-5.63 26.441-11.655 26.441-11.655z"/>
        <path fill="#88BDDA" fill-rule="nonzero" d="M330.312 347.083l-4.483 6.83 37.651 12.06s2.512-2.391-6.726-7.235c-10.755-5.63-26.442-11.655-26.442-11.655z"/>
        <path fill="#88BDDA" fill-rule="nonzero" d="M330.901 326.755h-7.87v27.999h7.87z"/>
        <path fill="#ACD5F4" fill-rule="nonzero" d="M323.122 348.523l3.827 6.518-32.23 11.506s-2.153-2.296 5.74-6.906c9.234-5.365 22.663-11.118 22.663-11.118zM330.814 348.523l-3.827 6.518 32.23 11.506s2.153-2.296-5.74-6.906c-9.234-5.365-22.663-11.118-22.663-11.118z"/>
        <path fill="#001F46" fill-rule="nonzero" d="M298.378 369.139a2.736 2.736 0 1 1-5.472-.011 2.736 2.736 0 0 1 5.472.01zM360.825 369.139a2.736 2.736 0 1 1-5.472-.011 2.736 2.736 0 0 1 5.472.01z"/>
        <path fill="#367082" fill-rule="nonzero" d="M291.757 369.139a2.736 2.736 0 1 1-5.472-.011 2.736 2.736 0 0 1 5.472.01zM367.446 369.139a2.736 2.736 0 1 1-5.472-.011 2.736 2.736 0 0 1 5.472.01zM329.743 316.492h-5.755v10.066h5.755z"/>
        <path fill="#367082" fill-rule="nonzero" d="M334.063 311.174a5.608 5.608 0 0 1-5.64 5.605h-3.163a5.61 5.61 0 0 1-5.612-5.605 5.604 5.604 0 0 1 5.636-5.595h3.138a5.613 5.613 0 0 1 5.617 5.61l.024-.015z"/>
        <path fill="#3DC7C9" fill-rule="nonzero" d="M369.642 306.057c.134-.66.21-4.782.21-5.513 0-4.53-2.923-8.197-6.54-8.197h-72.894c-3.612 0-6.54 3.668-6.54 8.197 0 .712.076 4.853.215 5.513h85.549z"/>
        <path fill="#367082" fill-rule="nonzero" d="M283.203 308.262c0 1.387.809 2.515 1.813 2.515h83.722c1.004 0 1.813-1.128 1.813-2.515 0-1.382-.809-2.51-1.813-2.51h-83.722c-1.004 0-1.813 1.128-1.813 2.51z"/>
        <path fill="#3DC7C9" fill-rule="nonzero" d="M287.28 263.974c1.798.134 13.222.335 15.193.36 12.506.152 23.285-2.196 23.883-5.261a106.633 106.633 0 0 0 .32-38.736c-.53-3.075-11.482-5.423-24.236-5.26-2.01 0-13.673.225-15.505.359a104.688 104.688 0 0 1 .344 48.538z"/>
        <path fill="#367082" fill-rule="nonzero" d="M285.567 215.426c-1.402 0-2.392.68-2.182 1.483a104.606 104.606 0 0 1 .392 45.583c-.177.808.79 1.468 2.163 1.487 1.368 0 2.636-.621 2.808-1.434a104.755 104.755 0 0 0-.297-45.699c-.191-.803-1.478-1.434-2.87-1.434l-.014.014z"/>
        <path fill="#33A8B5" fill-rule="nonzero" d="M285.012 263.946c1.087.13 2.181.203 3.277.22 2.727.033 5.53-2.391 6.075-5.4a105.003 105.003 0 0 0-.177-38.132c-.564-3.027-3.444-5.428-6.219-5.395-1.12.014-2.237.088-3.349.22a104.688 104.688 0 0 1 .393 48.487z"/>
        <path fill="#E2C59C" fill-rule="nonzero" d="M360.858 227.487s.087 3.18 15.544 3.194c15.457.015 38.134-3.782 38.134-3.782l-35.642-3.348s-13.687-.66-18.036 3.936z"/>
        <path fill="#E2C59C" fill-rule="nonzero" d="M402.375 228.022c7.343.23 10.386 4.008 13.261 5.26a51.034 51.034 0 0 1 5.741 3.042c-1.536-3.194-3.904-3.347-5.062-4.409-1.157-1.062-.865-.54 1.756-.65 1.488-.063 4.024 2.64 5.86 4.15 1.594 1.306 2.608 1.435 2.608 1.435a32.422 32.422 0 0 0-4.186-4.916c-2.87-2.664-6.401-4.935-7.243-5.303-1.55-.66-6.459-.985-9.975-.636-3.961.392-8.047 1.855-2.76 2.027z"/>
        <path fill="#E2C59C" fill-rule="nonzero" d="M414.708 226.75s5.583 1.607 6.545 2.391c.674.536 3.444 3.64 3.444 3.64s-2.09-.402-3.267-1.583c-1.177-1.182-6.722-4.448-6.722-4.448z"/>
        <path fill="#E7B9FD" fill-rule="nonzero" d="M364.834 222.078s-11.228-.66-10.525 7.8c.383 4.81 2.239 6.585 7.88 6.384 8.008-.282 17.088-1.22 17.088-1.22l4.368-11.615-18.811-1.349z"/>
        <path fill="#E7B9FD" fill-rule="nonzero" d="M364.834 222.078l-12.439-43.862s-1.827-6.422-5.262-5.346c-4.942 1.55-2.698 6.834-2.392 9.932.655 6.313 0 9.029 3.961 24.337 2.45 9.435 4.473 20.286 6.698 26.512 1.521 4.304 4.569-1.674 8.922-3.223 8.143-2.884.512-8.35.512-8.35z"/>
        <path fill="#001F46" fill-rule="nonzero" d="M357.38 154.248c-1.636 7.331-14.768 13.84-16.533 28.45 0 0-13.578-34.117-11.932-41.453l1.115-4.954a13.605 13.605 0 0 1 5.997-8.52 13.615 13.615 0 0 1 10.269-1.78l3.315.736a13.606 13.606 0 0 1 8.522 5.995 13.596 13.596 0 0 1 1.778 10.264l-2.53 11.262z"/>
        <path fill="#E9D6B8" fill-rule="nonzero" d="M356.457 133.537c-.292 1.214-2.028 3.103-3.186 3.749-4.157 2.32-7.865 13.457-13.707 12.988a41.41 41.41 0 0 1-4.19 9.861c-1.809 3.123-6.545 5.791-6.545 5.791-2.296 5.739 20.686 24.963 21.667 24.46 2.09-1.066-1.65-14.872-5.406-19.128-1.77-2.003-3.564-4.366-3.602-5.738-.13-4.74 1.373-5.739 3.655-7.915a11.131 11.131 0 0 1 8.582-1.937c.427.097.875.01 1.235-.239a9.6 9.6 0 0 0 1.038-2.682l2.454-10.947c.68-3.032-1.717-5.509-1.995-8.263z"/>
        <path fill="#3F9ED8" fill-rule="nonzero" d="M332.623 255.649s5.884 5.327 7.544 5.805c2.215.632 8.42-2.051 8.42-2.051s-1.717-27.636-1.076-38.587c.64-10.951 3.21-14.122 2.918-17.498-.478-5.409 3.909-8.173 2.617-12.295-1.292-4.122-4.554-18.937-4.784-16.881-1.914 17.517-8.611 4.007-9.975 1.913-.732-1.181-5.664 79.594-5.664 79.594z"/>
        <path fill="#F1D4FF" fill-rule="nonzero" d="M344.923 169.446s7.788 5.71 7.683 8.345c-.105 2.635 4.042 10.434 2.354 22.15-1.914 13.39-2.627 22.362-2.235 30.893.393 8.532 4.33 15.925 4.464 26.445.105 8.23-1.78 8.962-1.78 8.962a6.834 6.834 0 0 1-6.697-1.468c-3.062-2.812-2.517-30.983-2.053-38.07.464-7.088 2.675-23.792 3.186-28.67.397-4.571.181-9.176-.64-13.69a57.583 57.583 0 0 0-3.268-11.88c-.153-.377-2.177-1.999-2.306-2.295-.54-1.286.65-1.44 1.292-.722z"/>
        <path fill="#E7B9FD" fill-rule="nonzero" d="M342.851 166.581s-1.622-.34-.24 1.507c.434.554.708 1.215.795 1.913 0 0 .699-.732 1.751.32.957.956 2.473 2.147 2.473 2.147s-.956-2.75-1.196-2.946c-.789-.712-3.583-2.94-3.583-2.94z"/>
        <path fill="#001F46" fill-rule="nonzero" d="M326.987 172.11c-5.884 8.354-3.736 32.212-13.926 29.926-10.19-2.286-13.783-12.008-10.525-17.302 3.951-6.417 25.484-34.622 27.704-46.434 2.555-13.558 16.821-4.716 13.448.406-10.18 15.485 6.53.411-16.7 33.403z"/>
        <path fill="#E9D6B8" fill-rule="nonzero" d="M374.46 350.197l-3.536 27.095 15.28 7.006 8.483 1.793-15.056-11.238 4.923-24.446z"/>
        <path fill="#163F59" fill-rule="nonzero" d="M369.924 381.376l3.31.866 2.23-2 12.21 5.921 10.826 2.477a1.998 1.998 0 0 0-.23-1.286c-1.359-1.712-8.942-5.538-8.942-5.538s-.12 2.51-1.196 2.583c-1.076.071-10.434-4.697-12.6-6.012-3.728-2.276-4.421-3.687-4.704-3.515-.75.47-.904 6.504-.904 6.504z"/>
        <path fill="#E9D6B8" fill-rule="nonzero" d="M411.34 312.504l12.137 23.097 16.788-.827 8.353-2.32-18.539-3.026-10.123-19.736z"/>
        <path fill="#163F59" fill-rule="nonzero" d="M424.472 339.685l3.35-.76 1.047-2.802 15.06-.215 8.99-2.038s-1.086-1.176-1.756-1.434c-2.005-.804-9.09-1.22-9.09-1.22s.751 1.966-.177 2.53c-.928.564-11.267.894-13.802.717-4.349-.306-5.621-1.233-5.794-.956-.478.765 2.172 6.178 2.172 6.178z"/>
        <path fill="#194866" fill-rule="nonzero" d="M322.643 243.445l9.061 3.935 3.938 11.812 58.26-9.564s5.937-1.827 9.717 7.546c5.377 13.304 19.05 54.77 19.05 54.77l-8.664 9.053-27.169-46.865s-55.687 26.106-74.048 20.472c-7.042-2.166-12.439-14.605-11.42-27.167a161.81 161.81 0 0 1 2.756-18.894l18.52-5.098z"/>
        <path fill="#163F59" fill-rule="nonzero" d="M330.527 294.317l44.554-3.204-3.827 68.73 13.142.415 9.697-80.502s-2.616-11.956-11.123-10.177c-8.506 1.78-29.106 17.594-52.443 24.738z"/>
        <path fill="#F1D4FF" fill-rule="nonzero" d="M336.149 260.895s1.071-27.966 1.913-41.232c.842-13.266.641-38.855.818-42.04.177-3.185-.698-7.69-.698-7.69s-4.033-6.871-8.525-6.274c-3.952.526-10.281 5.696-13.874 8.575-6.698 5.37-3.316 49.256-3.502 51.594-.675 8.493-5.741 16.881-9.568 25.04-2.45 5.231-3.01 13.49-3.01 13.49s4.98 7.609 36.446-1.463z"/>
        <path fill="#E7B9FD" fill-rule="nonzero" d="M331.034 161.479l3.196 3.156 4.502 4.825-2.277 5.414-7.947-11.133z"/>
        <path fill="#E9D6B8" fill-rule="nonzero" d="M324.94 234.545s.478 3.415 18.791 1.401c18.314-2.013 44.77-9.11 44.77-9.11l-42.66 1.067s-16.3 1.119-20.901 6.642z"/>
        <path fill="#E9D6B8" fill-rule="nonzero" d="M374.22 229.658c8.74-.722 12.788 2.95 16.343 3.897a63.593 63.593 0 0 1 7.147 2.52c-2.196-3.237-5.028-3.103-6.525-4.088-1.498-.985-1.086-.478 2.009-.928 1.756-.268 5.08 2.315 7.44 3.701 2.042 1.2 3.262 1.21 3.262 1.21a36.125 36.125 0 0 0-5.535-4.748c-3.693-2.497-8.167-4.481-9.214-4.759-1.914-.511-7.774-.215-11.894.632-4.654.956-9.328 3.08-3.033 2.563z"/>
        <path fill="#E9D6B8" fill-rule="nonzero" d="M388.702 226.674s6.803.994 8.037 1.702c.861.478 4.521 3.472 4.521 3.472s-2.526-.167-4.066-1.282c-1.541-1.114-8.492-3.892-8.492-3.892z"/>
        <path fill="#E7B9FD" fill-rule="nonzero" d="M332.455 226.674l-2.033-43.27s-2.34-9.085-5.74-11.146c-4.034-2.473-9.569 2.104-9.569 2.104s-2.842 6.757-.957 38.664c1.278 21.337 3.512 30.318 13.635 28.755 9.448-1.435 21.189-3.463 21.189-3.463l2.038-11.2-18.563-.444z"/>
        <path fill="#D0DEE6" fill-rule="nonzero" d="M368.867 237.4l-.034-.072.034-2.142h88.898v2.214l-.22.397c-1.144 1.86-3.196 2.195-5.54 2.195h-77.368c-2.345 0-4.397-.335-5.54-2.195l-.23-.397z"/>
        <path fill="#B6C2C9" fill-rule="nonzero" d="M390.29 237.764c.01.017.01.04 0 .057l-.215.32a3.64 3.64 0 0 1-1.297 1.095h-13.524c-2.258 0-4.225-.272-5.325-1.774l-.215-.325-.039-.053v-1.061h20.615v1.74zM446.714 235.679h-44.42v1.516h44.42z"/>
        <path fill="#D7DFE2" fill-rule="nonzero" d="M390.788 235.11l11.524-43.671a2.899 2.899 0 0 1 2.656-2.066h62.355a1.56 1.56 0 0 1 1.536 2.09l-11.53 43.67-66.541-.024z"/>
        <path fill="#B6C2C9" fill-rule="nonzero" d="M426.06 212.232c-.588 2.223.742 4.036 2.972 4.036 2.229 0 4.516-1.813 5.104-4.036.589-2.224-.737-4.046-2.97-4.046-2.235 0-4.517 1.812-5.105 4.046z"/>
        <path fill="#ACD5F4" fill-rule="nonzero" d="M519.833 389.998h9.1L513.92 244.655h-13.194z"/>
        <path fill="#86BBD8" fill-rule="nonzero" d="M501.61 251.354l5.785 44.015 6.865-47.434-.34-3.28h-11.534z"/>
        <path fill="#ACD5F4" fill-rule="nonzero" d="M397.925 389.998h9.1l-15.013-145.343h-13.194z"/>
        <path fill="#86BBD8" fill-rule="nonzero" d="M379.698 251.354l5.789 44.015 6.865-47.434-.34-3.28h-11.534z"/>
        <path fill="#ACD5F4" fill-rule="nonzero" d="M302.392 389.998h-9.104l15.013-145.343h13.194z"/>
        <path fill="#86BBD8" fill-rule="nonzero" d="M320.615 251.354l-17.658 44.852 5.009-48.27.335-3.281h11.534z"/>
        <path fill="#367082" fill-rule="nonzero" d="M405.274 239.935H295.57v8.493h109.704z"/>
        <path fill="url(#b)" fill-rule="nonzero" d="M115.229 239.935h124.573v8.493H115.229z" transform="matrix(-1 0 0 1 640 0)"/>
        <path fill="#B0BFDE" fill-rule="nonzero" d="M255.494 363.988h-61.973v8.264h61.973z"/>
        <path fill="#B0BFDE" fill-rule="nonzero" d="M263.053 294.265h-77.095v71.56h77.095z"/>
        <path fill="#CFD9E8" fill-rule="nonzero" d="M263.053 300.687h-77.095v63.301h77.095z"/>
        <path fill="#E4EFFF" fill-rule="nonzero" d="M250.662 302.523h-52.314v22.017h52.314z"/>
        <path fill="#FFF" fill-rule="nonzero" d="M232.435 306.163h-15.859v3.725h15.859z"/>
        <path fill="#E4EFFF" fill-rule="nonzero" d="M250.662 330.963h-52.314v22.017h52.314z"/>
        <path fill="#FFF" fill-rule="nonzero" d="M232.435 334.607h-15.859v3.725h15.859z"/>
        <path fill="#CFD9E8" fill-rule="nonzero" d="M267.186 286.006h-85.353v8.259h85.353z"/>
        <g fill-rule="nonzero">
            <path fill="#6EE3AE" d="M457.072 109.195c-3.857 10.45-9.691 19.537-17.342 27.005-8.708 8.5-20.112 15.255-33.893 20.073-.452.158-.924.287-1.398.382-.627.124-1.264.19-1.896.2h-.124c-.673 0-1.35-.068-2.021-.2-.474-.095-.94-.224-1.39-.379-13.797-4.81-25.215-11.561-33.932-20.061-7.654-7.469-13.487-16.55-17.34-27-7.004-19.002-6.605-39.934-6.285-56.755l.006-.258c.065-1.39.106-2.848.13-4.46.116-7.91 6.408-14.454 14.323-14.895 16.501-.92 29.267-6.3 40.174-16.927l.095-.088a9.196 9.196 0 0 1 6.364-2.442c2.19.03 4.371.843 6.118 2.442l.093.088c10.91 10.626 23.675 16.006 40.176 16.927 7.915.44 14.207 6.985 14.324 14.895.023 1.622.064 3.08.129 4.46l.003.109c.32 16.853.716 37.826-6.314 56.884z"/>
            <path fill="#FFF" d="M438.186 85.122c0 19.672-15.98 35.686-35.643 35.756h-.126c-19.722 0-35.77-16.04-35.77-35.756 0-19.714 16.048-35.754 35.77-35.754h.126c19.664.07 35.643 16.083 35.643 35.754z"/>
            <path fill="#B4D2D7" d="M418.653 79.973l-16.11 16.106-3.48 3.48a4.2 4.2 0 0 1-2.98 1.232 4.203 4.203 0 0 1-2.979-1.233l-7.484-7.484a4.207 4.207 0 0 1 0-5.952 4.211 4.211 0 0 1 5.955 0l4.509 4.507 16.614-16.608a4.21 4.21 0 0 1 5.955 0 4.207 4.207 0 0 1 0 5.952z"/>
        </g>
        <g fill="#3F4CEC" transform="matrix(-1 0 0 1 71 13)">
            <circle cx="2.5" cy="2.5" r="2.5"/>
            <circle cx="32.5" cy="2.5" r="2.5"/>
            <circle cx="62.5" cy="2.5" r="2.5"/>
            <circle cx="17.5" cy="2.5" r="2.5"/>
            <circle cx="47.5" cy="2.5" r="2.5"/>
            <circle cx="2.5" cy="17.5" r="2.5"/>
            <circle cx="32.5" cy="17.5" r="2.5"/>
            <circle cx="62.5" cy="17.5" r="2.5"/>
            <circle cx="17.5" cy="17.5" r="2.5"/>
            <circle cx="47.5" cy="17.5" r="2.5"/>
            <circle cx="2.5" cy="32.5" r="2.5"/>
            <circle cx="32.5" cy="32.5" r="2.5"/>
            <circle cx="62.5" cy="32.5" r="2.5"/>
            <circle cx="17.5" cy="32.5" r="2.5"/>
            <circle cx="47.5" cy="32.5" r="2.5"/>
            <circle cx="2.5" cy="47.5" r="2.5"/>
            <circle cx="32.5" cy="47.5" r="2.5"/>
            <circle cx="62.5" cy="47.5" r="2.5"/>
            <circle cx="17.5" cy="47.5" r="2.5"/>
            <circle cx="47.5" cy="47.5" r="2.5"/>
            <circle cx="2.5" cy="62.5" r="2.5"/>
            <circle cx="32.5" cy="62.5" r="2.5"/>
            <circle cx="62.5" cy="62.5" r="2.5"/>
            <circle cx="17.5" cy="62.5" r="2.5"/>
            <circle cx="47.5" cy="62.5" r="2.5"/>
        </g>
    </g>
</svg>
