<svg xmlns="http://www.w3.org/2000/svg" viewBox="0 0 419.71 1298.89"><defs><style>.cls-1{fill:#6b4000;}.cls-2{fill:#f2a383;}.cls-3{fill:#43266e;}.cls-4{fill:#484f6b;}.cls-5{fill:#323857;}.cls-6{fill:#52575e;}.cls-7{fill:#ffa580;}.cls-8{fill:#e89674;}.cls-9{fill:#a36951;}.cls-10{fill:#232324;}.cls-11{fill:#f09b78;}.cls-12{fill:#6532ad;}</style></defs><title>member</title><g id="Layer_2" data-name="Layer 2"><g id="Layer_1-2" data-name="Layer 1"><path class="cls-1" d="M116.4,31.77S87.92,57.54,76.51,151.22C66.71,231.8,35.38,245,19.56,283.48-4.37,341.6,7.6,395.66,49.27,420.76c48.43,29.18,221.83,9.93,237.24-48.69,15.33-58.33-11.83-89.52-13.36-114.63-3.94-64.65,22.33-121.66,22.33-121.66Z"/><path class="cls-2" d="M369.47,591.5c6.25,9,21.31,16.19,31.41,20.68,5.61,2.4,11.38,4,16.5,7.21,1.61,1,3.21,3.36,1.77,4.48a2.89,2.89,0,0,1-2.57.17,107.61,107.61,0,0,1-30.45-11.38,105.61,105.61,0,0,1,23.24,43.11c-2.72.48-5-1.93-6.73-4-7.05-9-13.62-18.27-19.87-27.89,5.13,12,10.42,24.36,10.09,37.34,0,1.13-.32,2.57-1.44,2.89s-2.24-.64-2.88-1.6a67.27,67.27,0,0,1-6.89-14.11c-2.73-7.21-5.45-14.26-8.18-21.47,4.17,11.86,8.34,24.68,5,36.86-.64,2.4-2.72,5.13-4.81,4a4.77,4.77,0,0,1-1.92-2.72,108.62,108.62,0,0,1-6.09-33.49,197.68,197.68,0,0,1-6.89,28.84,9.88,9.88,0,0,1-2.24,4.49,3.88,3.88,0,0,1-4.65.8c-2.08-1.6.16-12.82.48-15.06.8-5.29,2.24-10.9,1.76-16.35-.48-6.25-5.12-12-8.17-17.31-3.85-6.41-5-14.74-7.53-21.79"/><path class="cls-3" d="M307,430.88c-17.73-57.53-43.59-126-47.11-133.39-5.45-14.43-19.07-22.12-31.73-26.28L220,309s-12.5,13.14-17.47,21.15c.65,4.17,1.29,8.81,1.93,13.62,1.76,4,3.69,9.14,5.93,14.9,13.94-5.76,29.81,1.61,43,42.47.75,2.26-2,17-3.5,27.41l-8.23,1.91,97.07,178.65,34.5-16.73Z"/><polyline class="cls-4" points="94.06 1258.79 167.94 1298.89 52.87 1288.05 50.71 1260.05"/><polyline class="cls-4" points="270.99 1256.18 347.04 1294.48 226.91 1287.98 229.98 1256.18"/><path class="cls-5" d="M267.59,581.63c24.57,33.76,24.55,346.53,13,675.72L227.48,1259s-41.74-539.37-52-581.49c-8.22,64.58-72.28,585.63-72.28,585.63H46.47S39.06,638.24,73.85,579.58C122.69,534.87,234.14,540.72,267.59,581.63Z"/><path class="cls-6" d="M242.4,1253.92l1.21-.18-.49-6.23-1.21.18Zm-.77-12.45,1.21-.18-.49-6.23-1.2.18Zm-1-12.46,1.21-.17-.49-6.23-1.2.18Zm-.77-12.25,1.2-.17-.48-6.23-1.21.18Zm-.77-12.45,1.2-.18-.48-6.22-1.21.18Zm-.77-12.45,1.2-.18-.48-6.22-1.21.17Zm-1-12.45,1.2-.18-.48-6.23-1.21.18Zm-.78-12.25,1.21-.18-.48-6.23-1.21.18Zm-.77-12.46,1.21-.17-.48-6.23-1.21.18Zm-1-12.45,1.21-.18-.48-6.23-1.21.18Zm-.76-12.45,1.2-.18-.48-6.23-1.21.18Zm-.78-12.25,1.21-.18-.49-6.23-1.2.18Zm-.77-12.45,1.21-.18-.49-6.23-1.2.18Zm-1-12.46,1.21-.18-.49-6.22-1.2.18Zm-.77-12.25,1.21-.18-.49-6.22-1.21.17Zm-.77-12.45,1.21-.18-.49-6.22-1.21.17Zm-.77-12.45,1.21-.18-.49-6.23-1.21.18Zm-1-12.46,1.21-.17-.49-6.23-1.21.18Zm-.77-12.25,1.2-.17-.48-6.23-1.21.18Zm-.77-12.45,1.2-.17-.48-6.23-1.21.18Zm-1-12.45,1.2-.18-.48-6.23-1.21.18ZM225,993.43l1.2-.18-.48-6.23-1.21.18Zm-.78-12.25,1.21-.18-.48-6.23-1.21.18Zm-.77-12.45,1.21-.18-.48-6.23-1.21.18Zm-1-12.46,1.21-.18-.48-6.22L222,950ZM221.73,944l1.21-.18-.49-6.22-1.2.17ZM221,931.57l1.21-.18-.49-6.23-1.2.18Zm-.77-12.45,1.21-.18-.49-6.23-1.2.18Zm-1-12.46,1.21-.17-.49-6.23-1.2.18Zm-.77-12.25,1.21-.17-.49-6.23-1.21.18ZM217.68,882l1.21-.18-.49-6.22-1.21.17Zm-1-12.45,1.21-.18-.49-6.23-1.21.18Zm-.77-12.45,1.21-.18-.49-6.23-1.21.18Zm-.77-12.25,1.2-.18-.48-6.23-1.21.18Zm-.77-12.46,1.2-.17-.48-6.23-1.21.18Zm-1-12.45,1.2-.18-.48-6.23-1.21.18Zm-.78-12.25,1.21-.18-.49-6.23-1.2.18Zm-.77-12.45,1.21-.18-.49-6.23-1.2.18Zm-.77-12.45,1.21-.18-.48-6.23-1.21.18Zm-1-12.46,1.21-.18-.48-6.22-1.21.17ZM209.37,758l1.21-.18-.49-6.22-1.2.17Zm-.77-12.45,1.21-.18-.49-6.22-1.2.17Zm-1-12.45,1.21-.18-.49-6.23-1.2.18Zm-.77-12.46,1.21-.17-.49-6.23-1.2.18Zm-.77-12.25,1.2-.17-.48-6.23-1.21.18ZM205.32,696l1.2-.18-.48-6.22-1.21.18Zm-1-12.45,1.2-.18-.48-6.23-1.21.18Z"/><path class="cls-6" d="M83.79,1258l.67-5.93-1.18-.1-.67,5.93Zm1.52-12.08L86,1240l-1.19-.09-.66,5.93Zm1.34-11.86.66-5.93-1.18-.09-.67,5.93ZM88,1222l.67-5.93-1.19-.09-.67,5.93Zm1.32-12L90,1204l-1.19-.1-.66,5.93Zm1.32-12.06.67-5.93-1.18-.1-.67,5.94ZM92,1186.05l.67-5.93-1.19-.1-.67,5.93ZM93.46,1174l.67-5.94L93,1168l-.67,5.93Zm1.32-12.06.67-5.93-1.18-.1-.67,5.93Zm1.32-12.06.67-5.93-1.18-.09-.67,5.93ZM97.44,1138l.67-5.93-1.18-.1-.67,5.93Zm1.32-12.06.67-5.93-1.18-.09-.67,5.93Zm1.32-12,.67-5.94-1.18-.09-.67,5.93Zm1.33-12.06.66-5.93-1.18-.1-.67,5.93Zm1.53-11.88.67-5.93-1.19-.1-.66,5.94Zm1.32-12.06.67-5.93-1.19-.09-.66,5.93Zm1.32-12.05.67-5.93-1.18-.1-.67,5.93Zm1.32-12.06.67-5.93-1.18-.1-.67,5.93Zm1.34-11.86.67-5.93-1.18-.1-.67,5.93Zm1.32-12.06.67-5.93-1.18-.1-.67,5.94Zm1.32-12.06.67-5.93-1.18-.09-.67,5.93Zm1.52-12.07.67-5.93-1.19-.1-.67,5.94Zm1.33-11.86.67-5.93-1.18-.1-.67,5.93Zm1.33-12.06.66-5.93-1.18-.09-.67,5.93Zm1.32-12.06.67-5.93-1.19-.09-.67,5.93Zm1.32-12,.67-5.93-1.19-.1-.66,5.93ZM119,945.84l.66-5.94-1.18-.09-.67,5.93Zm1.51-12.08.67-5.93-1.18-.09-.67,5.93Zm1.32-12,.67-5.94-1.18-.09-.67,5.93Zm1.32-12.06.67-5.93-1.18-.1-.67,5.93Zm1.34-11.86.67-5.94-1.18-.09-.67,5.93Zm1.32-12.06.67-5.93-1.18-.1-.67,5.93Zm1.32-12.06.67-5.93-1.18-.09-.67,5.93Zm1.32-12,.67-5.94-1.18-.09-.67,5.93ZM130,849.74l.67-5.93-1.19-.1-.67,5.93Zm1.32-12.06.67-5.93-1.19-.1-.66,5.94Zm1.32-12.06.67-5.93-1.18-.09-.67,5.93Zm1.32-12,.67-5.93-1.18-.1-.67,5.93Zm1.34-11.87.67-5.93-1.19-.09-.66,5.93Zm1.32-12.05.67-5.93-1.18-.1-.67,5.93ZM138,777.59l.67-5.93-1.18-.1-.67,5.94Zm1.52-12.07.66-5.93-1.18-.1-.67,5.93Zm1.33-11.87.67-5.93-1.18-.09-.67,5.93Zm1.32-12,.67-5.93-1.18-.1L141,741.5Zm1.33-12.06.66-5.93-1.18-.09-.67,5.93Zm1.32-12.06.67-5.93-1.19-.09-.67,5.93Zm1.33-11.86.67-5.93-1.18-.09-.67,5.93Zm1.33-12,.66-5.94-1.18-.09-.67,5.93ZM149,681.49l.67-5.93-1.18-.09-.67,5.93Z"/><path class="cls-6" d="M234.49,675.14a502.46,502.46,0,0,1-117.72-3.21c-2.41-.4-1.41-4,1-3.61a504.87,504.87,0,0,0,116.72,3.21c2.41-.4,2.41,3.41,0,3.61Z"/><path class="cls-6" d="M61.23,683.52l1.06-5.32c27.41-20.89,36.86-55.09,36.78-89.05l.05-.39,3.58.43c0,.2.18.23.15.43C102.84,626,92.11,662.45,61.23,683.52Z"/><path class="cls-6" d="M254.13,592.14A146.37,146.37,0,0,0,283,680.82c.15,2.2.52,4.59.67,6.79a146.93,146.93,0,0,1-33.3-95.21,1.2,1.2,0,0,1,.15-.81l3.4-.24A1.46,1.46,0,0,1,254.13,592.14Z"/><path class="cls-1" d="M265.73,23.5s67.15,39.35,28.37,127.72-67.24-48.6-67.24-48.6Z"/><path class="cls-1" d="M265.73,23.5s-11.6,82.14-111,78.91c-8.78,20.83,12,90.47-26.35,85.85C67,157.88,82.87,62.19,120.31,28,141.87,8.39,203-21.42,265.73,23.5Z"/><path class="cls-7" d="M155.26,259.22c1.12-17.35,1.18-56.37,1.18-56.37l42,17.11,1.32,38.82a70.21,70.21,0,0,0,16.05,7.91c7.84,14.83-40.89,152.54-40.89,152.54L98.71,348.86,96,290.31C114,277.79,132,268.93,155.26,259.22Z"/><path class="cls-8" d="M156.11,237.44c.08-17.29.32-34.76.32-34.76l42,17.1,1.2,30a154,154,0,0,1-25.23-5.65A100.63,100.63,0,0,1,156.11,237.44Z"/><path class="cls-7" d="M120.74,147.58l3-53.31A73.28,73.28,0,0,1,201,25.11l21.16,1.16a73.27,73.27,0,0,1,69.15,77.33h0l-3.86,69.06c-1.82,31.82-39.54,56.8-71.21,55l-20.77-1.45C147.64,221,118.5,188.1,120.74,147.58Z"/><path class="cls-1" d="M250.89,30s-20.28,77.58-138.53,99.2C110.9,93.71,105.61-5.44,250.89,30Z"/><path class="cls-9" d="M236.92,162.21h.33l5.49-1.56a10.34,10.34,0,0,0,7.54-10.49l-2.12-46a1.8,1.8,0,1,0-3.6-.17v.33l2.11,46a6.7,6.7,0,0,1-4.91,6.94l-5.5,1.56a1.54,1.54,0,0,0-1.21,2A1.74,1.74,0,0,0,236.92,162.21Z"/><ellipse class="cls-10" cx="268.49" cy="141.27" rx="10.3" ry="5.88" transform="translate(109.45 399.63) rotate(-86.14)"/><ellipse class="cls-10" cx="212.56" cy="140.52" rx="5.88" ry="10.3" transform="translate(-5.83 9.24) rotate(-2.46)"/><path class="cls-1" d="M282,111.22a20.26,20.26,0,0,0-14.71-10.28c-4.45-.78-3-7.56,1.49-6.78a26.35,26.35,0,0,1,18.93,13.2C290.05,111.35,284.17,115.05,282,111.22Z"/><path class="cls-1" d="M217.18,99.31a23.19,23.19,0,0,0-17.5,7.18c-3.12,3.26-8.25-1.42-5.12-4.67A30.21,30.21,0,0,1,217,92.44c4.43.13,4.75,7.15.15,6.87Z"/><path class="cls-9" d="M247,179.42a20.28,20.28,0,0,1-27.54-8.23,20.8,20.8,0,0,1-1.28-2.88c-.92-2.25,2.81-3.08,3.56-.82a16.61,16.61,0,0,0,21.39,9.65,7.89,7.89,0,0,0,2.08-.91c2.07-1.24,3.86,2,1.79,3.19Z"/><ellipse class="cls-11" cx="116.28" cy="142.4" rx="19.94" ry="25.83" transform="translate(-64.99 111.77) rotate(-41.18)"/><path class="cls-1" d="M245.05,34.14s16.18,43.62,45.81,64.59c10.29.73.62-32.62-10.07-48.43S250.89,30,250.89,30Z"/><path class="cls-12" d="M71.59,585.73C78.15,538.46,93.43,508,90.72,460.28c-.52-11.32-4.86-26-3.1-37,1.21-7.91-1.6-28.49,3.71-34.49,11.12-12.56,19-19.1,21.49-36.16s7.85-24.55,3.07-41.27c-.83-2.75-7.06-37.94-10.73-34.1,2.83-3.1,24-7.83,30-9.38,4.4,5.24,33.89,33.67,49.26,40.65,23,9.77,30.42-28,32-41.71,3.7.7,20.56,6.13,22.93,8.29.35,7.67,6.7,49.23,13.3,59.93,8.29,13.07,15,22.18,21.65,36.15,8.64,18.08,8.52,49.57-16.86,72.35-6.82,8.48-4,28.53-2.45,40.95,4.86,32.45,16.85,87.26,16.07,101.71C213,616.12,79,599.49,71.59,585.73Z"/><path class="cls-2" d="M126.8,577.3c18.91,10.09,49,5.49,69.33,12.06,2.08.64,4.65,2.56,3.53,4.48a3.63,3.63,0,0,1-2.09,1.29,53.83,53.83,0,0,1-28,1.6,137.07,137.07,0,0,1,28,24.68c1.28,1.44,2.41,3.36,1.44,5s-3.52,1.13-5.44.33a79.43,79.43,0,0,1-26.13-18,118.86,118.86,0,0,1,20.68,33.65c1,2.24,1.28,5.45-.8,6.41-1.77.8-3.53-.8-4.81-2.24a129.44,129.44,0,0,1-19.87-29.33l8,25.32a54.89,54.89,0,0,1,2.72,14.26c0,1.13-.16,2.57-1.28,3s-2.56-.48-3.36-1.44c-7.86-8.5-10.42-19.23-13.31-30.13.49,10.57-.16,22.27-5.76,31.41a1.44,1.44,0,0,1-1,1,1.7,1.7,0,0,1-1.92-.32,5.53,5.53,0,0,1-1.12-1.92c-2.08-5.29-1.76-10.42-1.28-15.87.48-4.65,1.6-9.61-.64-13.62a16.79,16.79,0,0,0-4.65-4.81c-8-6.41-18-14.42-26.6-19.87"/><path class="cls-3" d="M68.87,488.55a17.33,17.33,0,0,1-2.09-18.82c3-5.52,52.4-100.19,58.88-122.72a79.84,79.84,0,0,0,2.62-29.51c-4.14-44.05-14.09-43.14-14.09-43.14-20.35-.49-64.3,32.06-88.66,114.43,0,0-13.41,34.33-18.92,59.55S1.09,477.5.3,482.63s-.79,21.67,9.85,36.65,51.4,60.59,107.59,93c10.44-25.22,18.52-32.71,18.52-32.71Z"/></g></g></svg>