<svg xmlns="http://www.w3.org/2000/svg" width="154" height="406" viewBox="0 0 154 406"><g><g><g><path fill="#ffb08f" d="M87.593 276.894s14.048 76.146 17.993 113.17c-3.52 3.52-21.056 14.537-21.056 14.537l32.757-7.652L113 273.53"/></g><g><path fill="#ffb08f" d="M54.647 282.797s5.119 71.64 6.749 105.83L38.45 401.784l33.67-5.192s3.573-86.238 9.19-119.691"/></g><g><path fill="#e39d80" d="M113.763 296.49l-22.593 3.167a144.195 144.195 0 0 1 3.489 16.861c6.63-.137 13.242-.768 19.779-1.89z"/></g><g><path fill="#e39d80" d="M56.928 315.423c8.441.914 11.504 1.09 19.997 1.391.675-7.371.986-13.134 1.807-17.754l-22.562 6.053s.29 3.966.758 10.31z"/></g><g><path fill="#43266e" d="M62.659 394.205c.353-.322-5.929-2.814-6.375-2.928a4.008 4.008 0 0 0-1.433-.187c-1.88.208-4.257 2.347-5.939 3.24a282.474 282.474 0 0 0-7.984 4.37c-1.039.572-5.493 2.794-4.008 3.365 3.54 1.339 36.433-4.86 35.581-3.977-.114.125.364-.073.468-.197a.82.82 0 0 0 .135-.499l.155-7.392a15.906 15.906 0 0 0-10.6 4.205z"/></g><g><path fill="#43266e" d="M86.478 405.37c2.076-.27 4.35-.934 6.23-1.246a213.3 213.3 0 0 0 9.842-1.869c5.005-1.038 10.383-1.952 15.045-3.976.276-.082.515-.258.675-.499.082-.214.104-.448.062-.674-.125-1.215-.177-5.95-1.578-6.23-.696-.125-2.617 1.713-3.281 2.077-.478.238-4.88 2.782-4.984 2.72a21.43 21.43 0 0 0-7.372-2.69 4.226 4.226 0 0 0-1.837-.062 4.59 4.59 0 0 0-1.37.686 69.978 69.978 0 0 0-7.02 5.066c-2.19 1.828-4.734 3.115-6.862 5.192a1.298 1.298 0 0 0-.478.758c0 .467.446.84.914.872.673.017 1.347-.025 2.014-.125z"/></g><g><path fill="#43266e" d="M45.12 267.993l.779 39.371s22.322 3.873 38.135 3.572c15.2-.301 40.015-4.652 40.015-4.652l-.935-45.434z"/></g><g><path fill="#6e2800" d="M99.798 61.86c-.145 3.738 2.824 6.988 6.23 8.545 3.405 1.557 7.268 1.848 10.902 2.513a53.076 53.076 0 0 1 14.764 4.994 25.666 25.666 0 0 1 8.638 6.572 12.73 12.73 0 0 1 2.803 10.216c-.84 4.029-4.153 7.268-4.526 11.421-.52 5.109 3.457 9.417 6.738 13.363 4.6 5.554 8.462 12.293 8.233 19.498a9.52 9.52 0 0 1-1.297 4.89 10.29 10.29 0 0 1-4.288 3.354 28.916 28.916 0 0 1-19.603 2.014c-4.548-1.152-9.22-3.955-10.383-8.513a7.05 7.05 0 0 0-.674-2.17c-.665-1.039-1.994-1.454-3.178-1.89a19.135 19.135 0 0 1-12.023-12.812c-1.339-5.13-.052-10.01.426-15.117.312-3.427-.478-5.379-3.478-7.04-2.835-1.568-5.586-2.47-7.59-5.191-3.447-4.724-.882-9.033.696-13.882a20.391 20.391 0 0 0-1.257-15.49"/></g><g><path fill="#f6a821" d="M87.64 69.527a7.58 7.58 0 0 0 7.268 2.512 11.358 11.358 0 0 0 2.845-1.121 12.885 12.885 0 0 0 4.039-3.053 6.873 6.873 0 0 0 1.713-4.62 2.45 2.45 0 0 0-1.039-2.076c-.872-.499-1.962 0-2.855.415-4.008 2.076-8.14 4.215-11.026 7.673"/></g><g><path fill="#6e2800" d="M83.828 70.52c6.302-.54 9.23-3.115 13.04-5.42 10.113-6.022 11.795-26.642 8.14-40.357-2.678-10.071-5.928-17.91-18.252-21.98C79.986.53 71.514-.726 64.309.55c-8.473 1.506-17.246 4.932-21.877 13.103a21.949 21.949 0 0 0-2.242 6.302 66.355 66.355 0 0 0-.924 15.387c.134 3.982.48 7.954 1.038 11.899a45.943 45.943 0 0 0 1.858 9.656A20.277 20.277 0 0 0 60.52 70.426"/></g><g><path fill="#ffb08f" d="M69.436 71.275L69.27 89.85l2.544 24.264L85.03 88.147 81.719 67.07"/></g><g><path fill="#e39d80" d="M81.798 67.74c-1.36.26-2.669.467-4.029.685l-8.306 2.845-.083 8.93c4.758-.169 9.5-.654 14.193-1.454z"/></g><g><path fill="#ffb08f" d="M100.927 31.968A29.809 29.809 0 0 0 69.945 3.374c-16.423.675-29.208 14.504-28.594 30.93l.675 17.422c.523 12.677 11.201 22.543 23.88 22.063l6.811-.218c16.439-.669 29.232-14.521 28.594-30.96z"/></g><g><path fill="#a36951" d="M66.126 53.472l-1.713.125a3.842 3.842 0 0 1-4.153-3.603v-.301l.083-18.69a.623.623 0 0 1 .685-.55.581.581 0 0 1 .55.55l-.082 18.742a2.668 2.668 0 0 0 2.678 2.678h.208l1.744-.135a.613.613 0 0 1 .675.561.716.716 0 0 1-.633.675z"/></g><g transform="rotate(-4.3 52.5 42)"><path fill="#302f30" d="M52.392 45.736c1.22 0 2.211-1.617 2.211-3.613 0-1.995-.99-3.613-2.212-3.613-1.22 0-2.211 1.618-2.211 3.613 0 1.996.99 3.613 2.212 3.613z"/></g><g transform="rotate(-4.3 72 40)"><path fill="#302f30" d="M72.072 43.816c1.22 0 2.211-1.617 2.211-3.613 0-1.995-.99-3.613-2.211-3.613-1.222 0-2.212 1.618-2.212 3.613 0 1.996.99 3.613 2.212 3.613z"/></g><g><path fill="#a36951" d="M62.39 57.044a6.728 6.728 0 0 0 8.97-3.188c.125-.301.25-.633.374-.976.26-.768-.976-.976-1.184-.26a5.503 5.503 0 0 1-6.883 3.572 3.24 3.24 0 0 1-.727-.3c-.717-.25-1.277.85-.55 1.152z"/></g><g><path fill="#6e2800" d="M68.937 30.239a9.23 9.23 0 0 1 6.614 1.12c1.1.645 2.076-1.152.893-1.795a10.891 10.891 0 0 0-7.621-1.34c-1.246.26-1.142 2.274.114 2.015z"/></g><g><path fill="#6e2800" d="M48.63 33.732a7.04 7.04 0 0 1 5.753-2.077 1.038 1.038 0 0 0 .145-2.014 9.23 9.23 0 0 0-7.195 2.585c-.934.924.363 2.43 1.298 1.516z"/></g><g><path fill="#bdbfe2" d="M35.34 181.621c4.88-22.561 2.793-65.12 15.574-84.546 2.679-2.44 7.102-6.614 11.577-7.735l1.92 30.722s-14.39 33.12-15.574 67.373c-4.33-.207-9.157-5.513-13.497-5.814z"/></g><g><path fill="#6d314a" d="M65.998 220.901a82.366 82.366 0 0 0 23.153 0c.686-.083.385-1.1-.249-1.038a80.87 80.87 0 0 1-22.613 0c-.675-.062-.976.914-.29 1.038z"/></g><g><path fill="#6d314a" d="M116.74 220.903c-6.417-6.666-10.497-15.21-8.846-24.773h-1.039c-1.702 10.29 2.887 19.509 10.072 26.517-.063-.633-.104-1.183-.187-1.744z"/></g><g><path fill="#6d314a" d="M54.18 195.702a64.373 64.373 0 0 1-2.472 16.321 66.75 66.75 0 0 1-4.672 10.923c0 .934-.083 1.827-.166 2.803 1.993-4.465 4.33-8.67 5.825-13.425a59.513 59.513 0 0 0 2.502-16.612.488.488 0 0 0-.509-.509.457.457 0 0 0-.509.499z"/></g><g><path fill="#bdbfe2" d="M113.548 93.206c-3.831-4.33-11.888-6.23-18.772-7.527-2.513-.467-7.735-1.1-10.237-1.329l1.39 10.985-10.922 10.819-8.025-10.124 1.796-10.85a75.473 75.473 0 0 0-9.345 4.652c-2.626 1.578-6.987 5.036-8.524 7.247L38.45 291.972l94.897-1.36-17.422-128.184s6.417-63.573-2.377-69.222z"/></g><g><path fill="#a8abcc" d="M46.41 192.558c-.426-8.576 6.291-72.066 6.8-80.61 0-.728 1.142-.593 1.1.082-.508 8.462-7.267 71.859-6.842 80.32 0 .717-1.038.935-1.038.208z"/></g><g><path fill="#a8abcc" d="M105.13 89.885c-12.75 23.372 4.631 47.76 9.688 70.665a.55.55 0 0 0 1.038-.291c-4.973-22.479-22.312-46.836-9.78-69.824.3-.633-.634-1.194-.976-.55z"/></g><g><path fill="#a8abcc" d="M71.546 284.31c-.55-8.586-2.076-113.98-1.682-122.514a.56.56 0 0 1 1.111.083c-.332 8.43 1.122 113.762 1.672 122.224 0 .717-1.142.125-1.184-.602z"/></g><g><path fill="#6e2800" d="M93.884 11.994a34.003 34.003 0 0 0-14.1-8.441c-1.298-.395-17.059-.83-16.893.945a25.178 25.178 0 0 0 5.067 13.04 20.06 20.06 0 0 0 14.1 7.414c1.505 4.36 3.114 8.825 5.876 12.459 2.762 3.634 7.164 6.479 11.785 6.292.604.04 1.2-.158 1.66-.55.252-.302.43-.657.52-1.039 3.084-10.455-.332-22.354-8.015-30.12z"/></g><g><path fill="#6e2800" d="M41.873 26.497c5.243-.727 9.915-3.582 14.38-6.417 6.665-4.236 13.674-9.095 16.29-16.54-1.744-1.463-4.257-1.557-6.52-1.297A31.356 31.356 0 0 0 46.15 13.238c-3.229 3.78-5.72 8.763-4.578 13.591"/></g><g transform="rotate(-33.38 104 49)"><path fill="#f2a788" d="M103.559 56.985c5.677 0 10.279-3.616 10.279-8.077s-4.602-8.078-10.28-8.078c-5.676 0-10.278 3.617-10.278 8.078 0 4.46 4.602 8.077 10.279 8.077z"/></g><g><path fill="#bdbfe2" d="M38.45 291.971s36.765 8.628 94.897-1.36c-20.827-8.12-34.21-5.482-34.21-5.482H60.42z"/></g><g><path fill="#a8abcc" d="M41.743 288.593l-1.443-.166v-.467s.509 0 1.402.166zm2.845.302l-1.402-.125.052-.467 1.402.124zm2.855.207l-1.401-.124v-.468l1.401.125zm2.814.26l-1.422-.156v-.467l1.411.124zm2.834.2l-1.401-.082v-.463l1.401.082zm77.87-4.146l-.124-.467 1.102-.249.123.467zm-75.035 4.299l-1.412-.083v-.467c.47 0 .941.083 1.412.083zm72.222-3.655l-.083-.467 1.41-.301.084.467zm-69.44 3.813l-1.401-.082v-.463l1.412.083zm2.856.133l-1.444-.084v-.467l1.402.083zm63.822-3.396l-.083-.467c.475-.075.946-.176 1.41-.3l.085.466zm-60.977 3.53h-1.444v-.467l1.444.042zm58.142-2.98l-.083-.467 1.402-.249.083.467zm-55.287 3.067H65.82v-.515h1.401zm2.845.09h-1.444v-.467h1.402zm49.64-2.679l-.084-.467 1.402-.208.083.468zm-46.816 2.703h-1.454v-.463h1.402zm43.981-2.337l-.083-.463 1.41-.205.084.462c-.439.124-.91.165-1.38.247zm-41.168 2.386h-1.422v-.468h1.412zm38.323-1.994v-.467l1.402-.218.083.467zM78.58 290.39h-1.37v-.468h1.443zm32.633-1.651v-.467c.47 0 .94-.094 1.411-.177v.467zm-29.778 1.65h-1.453v-.467h1.41zm26.985-1.326v-.462l1.443-.124v.463zm-24.14 1.278h-1.423v-.463h1.402zm2.865 0h-1.411v-.463h1.411zm18.43-.969v-.467l1.401-.125v.468zm-15.574.893h-1.443v-.467h1.443zm12.75-.685v-.467l1.401-.125v.467zm-9.895.602h-1.412v-.467h1.412zm7.091-.384v-.467l1.412-.083v.467zm-4.257.25l-1.401.093v-.426l1.401-.094zm1.402-.084v-.467l1.402-.083v.467z"/></g><g><path fill="#6532ad" d="M69.358 84.978s-1.214 12.792 5.296 13.695c6.51.903 9.822-14.193 9.822-14.193l4.018 2.357-15.782 62.337-9.282-59.253z"/></g><g><path fill="#a8abcc" d="M70.519 159.577a.592.592 0 0 1-.26 0 .644.644 0 0 1-.374-.84c.374-1.236 9.47-39.102 14.256-59.026a.654.654 0 0 1 .332-.426.55.55 0 0 1 .52 0l12.739 4.288c.197.05.356.194.425.384.135.384.26.634-14.618 27.701a.664.664 0 1 1-1.184-.592c5.191-9.437 12.791-23.454 14.276-26.475l-11.452-3.842c-2.679 11.172-13.85 57.748-14.151 58.434a.509.509 0 0 1-.51.394z"/></g><g><path fill="#a8abcc" d="M72.72 149.848a.633.633 0 0 1-.695-.571L64.56 101.34l-7.268 6.718 3.8 12.936a.647.647 0 0 1-1.235.385l-3.925-13.311a.613.613 0 0 1 .187-.664l8.42-7.86a.623.623 0 0 1 .903 0 .53.53 0 0 1 .167.374l7.63 49.151a.768.768 0 0 1-.612.748z"/></g><g><path fill="#707070" d="M60.6 101.04c.488-8.794 4.776-17.141 8.555-19.28v2.18c-3.114 3.115-6.157 10.528-6.489 17.194a.955.955 0 0 1-.57.83 1.35 1.35 0 0 1-.478.094 1.038 1.038 0 0 1-1.018-1.017z"/></g><g><path fill="#707070" d="M52.136 138.03c.11.011.222.011.332 0 .538-.11.897-.619.82-1.162a.914.914 0 0 0-1.1-.737 1.319 1.319 0 0 1-.955-.229 3 3 0 0 1-.727-2.367c0-9.905 1.1-22.915 6.323-28.47a7.548 7.548 0 0 1 5.108-2.553c4.548.238 4.153 10.382 3.738 21.16-.104 2.969-.239 6.021-.239 9.074a2.315 2.315 0 0 1-1.817 2.367c-.55.09-.93.6-.862 1.153a.841.841 0 0 0 1.039.747 4.381 4.381 0 0 0 3.54-4.402c0-3.011.145-6.064.239-9.033.477-12.22.862-22.78-5.503-23.008h-.093a9.947 9.947 0 0 0-6.604 3.198c-5.69 6.063-6.883 19.582-6.883 29.86a4.506 4.506 0 0 0 1.38 3.707 3.177 3.177 0 0 0 2.264.696z"/></g><g><path fill="#949494" d="M53.715 137.09c0 .924-.53 1.713-1.143 1.755-.612.041-1.152-.644-1.152-1.578 0-.935.53-1.714 1.152-1.755.623-.042 1.143.623 1.143 1.578z"/></g><g><path fill="#949494" d="M64.815 135.81c0 .924-.53 1.713-1.153 1.765-.623.052-1.142-.654-1.142-1.579 0-.924.52-1.713 1.142-1.754.623-.042 1.194.644 1.153 1.568z"/></g><g><path fill="#707070" d="M90.049 85.63c-.146-.135-2.077-1.526-2.253-1.62-.257-.44-.49-.894-.696-1.36 1.56.097 3.058.65 4.309 1.589 2.076 2.076 2.824 5.014 2.845 10.164.135 7.102-.156 20.63-.78 32.249 0 .508-.186.976-.664 1.11h-.093c-.53.094-1.194-.176-1.194-.737.426-11.576 1.038-26.548.945-33.525-.301-5.4-1.06-6.572-2.42-7.87z"/></g><g transform="rotate(-86.38 92.5 131)"><path fill="#707070" d="M92.26 136.787c3.148 0 5.7-2.227 5.7-4.974 0-2.746-2.552-4.973-5.7-4.973s-5.7 2.227-5.7 4.973c0 2.747 2.552 4.974 5.7 4.974z"/></g><g><path fill="#e6e6e6" d="M89.576 131.566a2.751 2.751 0 0 0 2.44 3.114 2.834 2.834 0 0 0 2.772-2.865 2.772 2.772 0 0 0-2.44-3.115 2.866 2.866 0 0 0-2.772 2.866z"/></g><g><path fill="#bdbfe2" d="M64.95 100.156s-.362-8.825 3.687-14.992V81.53L55.7 96.668z"/><path fill="none" stroke="#a8abcc" stroke-linecap="round" stroke-linejoin="round" stroke-miterlimit="50" stroke-width="1.36" d="M64.95 100.156v0s-.362-8.825 3.687-14.992V81.53v0L55.7 96.668v0z"/></g><g><path fill="#bdbfe2" d="M84.97 99.637s2.076-10.902.135-15.47c-.197-1.61-.675-4.247-.675-4.247L96.1 95.95z"/><path fill="none" stroke="#a8abcc" stroke-linecap="round" stroke-linejoin="round" stroke-miterlimit="50" stroke-width="1.36" d="M84.97 99.637v0s2.076-10.902.135-15.47c-.197-1.61-.675-4.247-.675-4.247v0L96.1 95.95v0z"/></g><g><path fill="#30210f" d="M34.943 131.787l-18.346 2.076a4.433 4.433 0 0 1-4.911-3.914l-.353-4.402c-.063-2.077.934-3.021 3.914-3.177l18.066-2.077c3.893-.633 4.88.24 5.191 2.253l.353 4.403a4.444 4.444 0 0 1-3.914 4.838z"/></g><g><path fill="#663905" d="M55.069 195.344l-41.074 3.872a4.444 4.444 0 0 1-4.942-3.883l-9.012-64.03a4.683 4.683 0 0 1 4.153-5.274l42.642-4.88a4.226 4.226 0 0 1 5.108 3.645l7.839 65.514c.363 2.43-1.246 4.651-4.714 5.036z"/></g><g><path fill="#664620" d="M54.434 195.378l-41.624 5.046a4.444 4.444 0 0 1-4.942-3.883L.09 132.418a4.454 4.454 0 0 1 3.883-4.943l41.635-5.004a4.454 4.454 0 0 1 4.942 3.883l7.766 64.082a4.444 4.444 0 0 1-3.883 4.942z"/></g><g><path fill="#ffb08f" d="M14.109 183.232a34.097 34.097 0 0 1-8.503 2.222c-2.658.322-3.717-.737-4.154-3.312a20.028 20.028 0 0 1 1.194-8.711 15.574 15.574 0 0 1 7.652-9.251c.572.8.135 1.869-.311 2.73l-3.052 5.94a15.086 15.086 0 0 1 6.945-4.725c.893-.29 2.17-.342 2.472.499.09.508-.06 1.029-.405 1.412a26.995 26.995 0 0 1-6.75 6.915 24.42 24.42 0 0 1 5.826-2.71 3.52 3.52 0 0 1 1.63-.229c.54.074.964.499 1.038 1.039-.03.312-.153.609-.353.851a11.805 11.805 0 0 1-6.084 4.402c.91-.139 1.83-.212 2.751-.218.914.104 1.869.79 1.755 1.651-.114.862-.904 1.194-1.651 1.495z"/></g><g><path fill="#ffb08f" d="M71.311 150.445c-5.035-1.121-8.98-6.479-13.134-9.49-.488-.353-2.284-1.505-2.886-.924-.363.343 0 1.33.187 1.692.396.824.899 1.592 1.495 2.285a18.388 18.388 0 0 0 4.153 3.769 33.577 33.577 0 0 0-4.651-2.523c-1.09-.457-3.562-1.547-4.693-.914a.727.727 0 0 0-.395.54c0 .55 1.121 1.391 1.495 1.703a14.89 14.89 0 0 0 1.994 1.432 38.417 38.417 0 0 0 4.34 2.202c-2.077-.945-6.573-.177-8.67.55-.706.239-1.505.872-1.215 1.547 3.042 1.412 6.074.83 9.345 1.038-1.952.654-3.582 2.471-5.192 3.717-.334.22-.62.507-.84.841-.22.342-.22.78 0 1.121 2.761.218 5.762-1.453 7.797-3.208a26.745 26.745 0 0 0-1.516 6.79 2.575 2.575 0 0 0 0 .976.83.83 0 0 0 .675.634c.425 0 .747-.364.986-.717l2.7-4.07a.955.955 0 0 1 .332-.342.882.882 0 0 1 .519 0 24.13 24.13 0 0 1 5.825 1.308c1.848.768 4.153.83 6.053 1.402"/></g><g><path fill="#bdbfe2" d="M66.96 159.93c11.597 4.08 49.006 11.42 59.638-1.828 12.241-15.262 2.596-72.678-20.1-66.802l-2.077 2.69 5.585 21.502s3.022 18.689.852 28.926c-15.377 5.98-28.625 5.316-41.417 4.973-.197 3.447-1.671 7.32-2.481 10.539z"/></g></g></g></svg>