<svg xmlns="http://www.w3.org/2000/svg" width="371" height="399" viewBox="0 0 371 399"><defs><linearGradient id="3ti6a" x1="196.2" x2="226.49" y1="196.64" y2="166.35" gradientUnits="userSpaceOnUse"><stop offset="0" stop-color="#fcdfde"/><stop offset=".25" stop-color="#efcecb"/><stop offset=".75" stop-color="#cfa19b"/><stop offset="1" stop-color="#bd8980"/></linearGradient><linearGradient id="3ti6b" x1="187.55" x2="225.92" y1="164.63" y2="164.63" gradientUnits="userSpaceOnUse"><stop offset="0" stop-color="#5f3a16"/><stop offset="1" stop-color="#301b0f"/></linearGradient><linearGradient id="3ti6c" x1="185.21" x2="185.21" y1="-.98" y2="234.52" gradientUnits="userSpaceOnUse"><stop offset="0" stop-color="#be94fa" stop-opacity="0"/><stop offset="1" stop-color="#be94fa" stop-opacity=".29"/></linearGradient><linearGradient id="3ti6d" x1="189.94" x2="189.94" y1="239.59" y2="232.04" gradientUnits="userSpaceOnUse"><stop offset="0" stop-color="#fcdfde"/><stop offset=".25" stop-color="#efcecb"/><stop offset=".75" stop-color="#cfa19b"/><stop offset="1" stop-color="#bd8980"/></linearGradient><linearGradient id="3ti6e" x1="189.24" x2="196.24" y1="239.55" y2="232.55" gradientUnits="userSpaceOnUse"><stop offset="0" stop-color="#fcdfde"/><stop offset=".25" stop-color="#efcecb"/><stop offset=".75" stop-color="#cfa19b"/><stop offset="1" stop-color="#bd8980"/></linearGradient><radialGradient id="3ti6f" cx="190.8" cy="84.07" r="61.15" gradientUnits="userSpaceOnUse"><stop offset="0" stop-color="#945ce6"/><stop offset=".18" stop-color="#8951da"/><stop offset=".35" stop-color="#854dd6"/><stop offset=".5" stop-color="#7f48ce"/><stop offset=".74" stop-color="#6e3ab9"/><stop offset=".84" stop-color="#6532ad"/></radialGradient><clipPath id="3ti6g"><path d="M184.093 138.487c29.273 0 53.004-23.73 53.004-53.004 0-29.273-23.73-53.003-53.004-53.003-29.273 0-53.003 23.73-53.003 53.003s23.73 53.004 53.003 53.004z"/></clipPath></defs><g><g><g><path fill="url(#3ti6a)" d="M208.004 208.44c.185-.564.74-11.376.74-11.376l1.83 1.547s2.461-9.85 2.919-13.625c-4.74 3.435-8.934-.136-12.331-6.19-6.385-11.338-2.628-15.397-1.324-19.582a6.044 6.044 0 0 1 .905-1.615s15.845-9.304 21.908 7.64a30.52 30.52 0 0 1 1.294 11.338s-1.362 7.192 3.027 11.309c6.316 5.917-10.452 22.793-10.452 22.793z"/></g><g><path fill="#231f20" d="M215.357 375.307s-2.51-2.2-7.97.107c-5.46 2.306-8.604 3.211-10.336 6.676-2.356 6.083 3.893 4.166 6.5 3.737 2.61-.428 11.485-4.35 12.546-5.177 1.489-1.256 1.606-4.477-.74-5.343z"/></g><g><path fill="#231f20" d="M235.59 387.547s-2.51-2.2-7.97.107c-5.46 2.306-9.577 3.62-11.31 7.075-2.355 6.083 4.575 4 7.203 3.582 2.627-.419 11.873-4.477 12.817-5.421.944-.944 1.606-4.477-.74-5.343z"/></g><g><path fill="#111112" d="M203.8 268.32l4.808 106.628a4.467 4.467 0 0 1 2.55.214c2.452 1.041 4.983 3.163 6.228 3.221 2.249-16.039 5.957-109.975 5.957-109.975z"/></g><g><path fill="#19191a" d="M220.15 277.45l8.876 109.558a3.767 3.767 0 0 1 2.083 0c3.036.71 6.637 5.041 6.666 3.465 1.587-26.9 3.825-116.633 3.825-116.633z"/></g><g><path fill="#ecf6fa" d="M207.412 199.738c-4.535 7.922-4.448 29.148-6.813 30.92-1.158.866-8.671 2.18-11.825 2.053-2.569-.107-4.194 4.253-1.674 6.404 2.618 1.84 20.156 3.124 20.36 2.52.205-.603 9.08-16.798 9.08-16.798s-2.676-25.888-9.128-25.1z"/></g><g><path fill="#fff" d="M227.007 187.91s-11.68 8.76-13.197 7.65c-2.356-1.713-.896-7.115-.896-7.115s-7.786 5.694-9.177 33.227c-1.947 40.467-1.227 54.637-1.227 54.637s3.202-.555 13.12 2.842a38.462 38.462 0 0 0 15.756 1.79c10.287-.379 12.03-3.338 12.03-3.338s-1.373-56.292-2.92-69.158c-1.733-13.83-8.448-17.917-13.49-20.535z"/></g><g><path fill="url(#3ti6b)" d="M210.46 169.212c-14.326 5.021-18.822.272-22.91-4.137 10.034-2.277 7.367-7.406 14.404-11.484 7.036-4.078 19.513-2.647 23.056 8.088 1.615 6.812.973 10.316-1.168 16.097-1.742 0-5.294-10.94-13.382-8.564z"/></g><g><path fill="url(#3ti6c)" d="M-1.8-.98l191.744 235.495L372.218-.98z"/></g><g><path fill="url(#3ti6d)" d="M190.194 233.553s-1.742-1.752-3.046-1.421c-1.305.33-1.402 1.47-1.314 3.202.078 1.391 1.479 4.311 3.63 4.311 1.58-.07 3.139-.399 4.613-.973l-.71-2.823a12.652 12.652 0 0 0-3.173-2.296z"/></g><g><g><path fill="#2d1c4a" d="M182.6 227.13l1.158-1.06-1.158 1.06"/></g><g><path fill="#2d1c4a" d="M182.62 227.118l1.158-1.061 1.43-.847-1.157 1.06-1.431.848"/></g><g><g><path fill="#2d1c4a" d="M184.049 226.27l1.158-1.06-1.149 1.06H184"/></g><g><path fill="#2e1c4b" d="M184.11 226.25l1.148-1.06-1.148 1.06"/></g><g><path fill="#2e1c4c" d="M184.14 226.25l1.148-1.06-1.158 1.06"/></g><g><path fill="#2f1c4c" d="M184.16 226.26l1.158-1.06-1.158 1.06"/></g><g><path fill="#2f1d4d" d="M184.18 226.26l1.158-1.06-1.158 1.06"/></g><g><path fill="#2f1d4e" d="M184.2 226.27l1.158-1.06-1.158 1.06"/></g><g><path fill="#301d4e" d="M184.22 226.27l1.158-1.06-1.158 1.06"/></g><g><path fill="#301d4f" d="M184.24 226.28l1.158-1.06-1.158 1.06"/></g><g><path fill="#311e50" d="M184.26 226.29l1.148-1.06h.01l-1.158 1.06"/></g></g><g><g><path fill="#6f5b90" d="M195.17 238.13l1.148-1.06.01.01-1.158 1.06v-.01"/></g><g><path fill="#6e5a8f" d="M195.17 238.14l1.158-1.06.01.01-1.158 1.06-.01-.01"/></g><g><path fill="#6d598f" d="M195.18 238.15l1.158-1.06.01.01-1.158 1.06-.01-.01"/></g><g><path fill="#6d588e" d="M195.19 238.16l1.158-1.06.01.01-1.158 1.06-.01-.01"/></g><g><path fill="#6c588e" d="M195.2 238.17l1.158-1.06.01.01-1.158 1.06-.01-.01"/></g><g><path fill="#6b578d" d="M195.21 238.18l1.158-1.06v.01l-1.148 1.06-.01-.01"/></g><g><path fill="#6a568c" d="M195.22 238.19l1.148-1.06.01.01-1.148 1.06-.01-.01"/></g><g><path fill="#69558c" d="M195.23 238.2l1.148-1.06.01.01-1.148 1.06-.01-.01"/></g><g><path fill="#68548b" d="M195.24 238.21l1.148-1.06.01.01-1.158 1.06v-.01"/></g><g><path fill="#68538a" d="M195.24 238.22l1.158-1.06.01.01-1.158 1.06-.01-.01"/></g><g><path fill="#675289" d="M195.25 238.23l1.158-1.06.01.01-1.158 1.06-.01-.01"/></g><g><path fill="#665089" d="M195.26 238.24l1.158-1.06v.01l-1.148 1.05h-.01"/></g><g><path fill="#654f88" d="M195.27 238.241l1.148-1.051h.01l-1.158 1.06v-.009"/></g><g><path fill="#644e87" d="M195.27 238.25l1.158-1.06.01.01-1.158 1.06-.01-.01"/></g><g><path fill="#634d86" d="M195.27 238.26l1.158-1.06v.01l-1.148 1.06-.01-.01"/></g><g><path fill="#624c86" d="M195.28 238.27l1.148-1.06h.01l-1.158 1.06"/></g><g><path fill="#604b85" d="M195.28 238.27l1.158-1.06.01.01-1.158 1.06-.01-.01"/></g><g><path fill="#5f4984" d="M195.29 238.28l1.158-1.06v.01l-1.158 1.06v-.01"/></g><g><path fill="#5e4883" d="M195.29 238.29l1.158-1.06.01.01-1.158 1.06-.01-.01"/></g><g><path fill="#5d4682" d="M195.3 238.3l1.158-1.06.01.01-1.158 1.05h-.01"/></g><g><path fill="#5b4581" d="M195.31 238.301l1.158-1.051-1.158 1.06v-.009"/></g><g><path fill="#5a4380" d="M195.31 238.31l1.158-1.06.01.01-1.158 1.06-.01-.01"/></g><g><path fill="#59427f" d="M195.32 238.32l1.158-1.06.01.01-1.158 1.06-.01-.01"/></g><g><path fill="#57407d" d="M195.33 238.33l1.158-1.06.01.01-1.158 1.06-.01-.01"/></g><g><path fill="#553e7c" d="M195.34 238.34l1.158-1.06v.01l-1.148 1.06-.01-.01"/></g><g><path fill="#533c7b" d="M195.35 238.35l1.148-1.06.01.01-1.158 1.06v-.01"/></g><g><path fill="#513979" d="M195.35 238.36l1.158-1.06.01.01-1.158 1.05h-.01"/></g><g><path fill="#4e3677" d="M195.36 238.361l1.158-1.051h.01l-1.158 1.06-.01-.009"/></g><g><path fill="#4b3274" d="M195.37 238.37l1.158-1.06v.01l-1.148 1.06-.01-.01"/></g><g><path fill="#43296e" d="M195.38 238.38l1.148-1.06.01.01-1.158 1.06v-.01"/></g><g><path fill="#43296d" d="M195.38 238.39l1.158-1.06.01.01-1.158 1.06-.01-.01"/></g><g><path fill="#42286d" d="M195.39 238.42l1.158-1.06-1.139 1.06"/></g><g><path fill="#42286c" d="M195.41 238.42l1.148-1.06-1.138 1.06"/></g><g><path fill="#41286b" d="M195.42 238.411l1.158-1.051-1.139 1.051"/></g><g><path fill="#41286b" d="M195.44 238.42l1.148-1.06-1.158 1.06"/></g><g><path fill="#41276a" d="M195.45 238.46l1.158-1.06-1.148 1.06"/></g><g><path fill="#402769" d="M195.47 238.48l1.148-1.06-1.158 1.06"/></g><g><path fill="#402769" d="M195.5 238.52l1.158-1.06-1.09 1.1"/></g><g><path fill="#3f2768" d="M195.57 238.56l1.158-1.06v.049l-1.158 1.05"/></g><g><path fill="#3f2667" d="M195.57 238.601l1.158-1.051-1.158 1.09"/></g><g><path fill="#3e2667" d="M195.57 238.641l1.158-1.051-1.158 1.06"/></g><g><path fill="#3e2666" d="M195.62 238.68l1.158-1.06-1.148 1.06"/></g><g><path fill="#3e2665" d="M195.64 238.71l1.148-1.06-1.148 1.06"/></g><g><path fill="#3d2565" d="M195.66 238.73l1.148-1.06-1.158 1.051"/></g><g><path fill="#3d2564" d="M195.67 238.751l1.158-1.051-1.158 1.06"/></g><g><path fill="#3c2563" d="M195.69 238.78l1.158-1.06-1.158 1.06"/></g><g><path fill="#3c2563" d="M195.7 238.79l1.158-1.06-1.158 1.06"/></g><g><path fill="#3c2462" d="M195.72 238.81l1.158-1.06-1.158 1.051"/></g><g><path fill="#3b2461" d="M195.73 238.821l1.158-1.051-1.158 1.06"/></g><g><path fill="#3b2461" d="M195.74 238.84l1.158-1.06-1.158 1.06"/></g><g><path fill="#3a2460" d="M195.75 238.86l1.158-1.06-1.158 1.051"/></g><g><path fill="#3a235f" d="M195.76 238.871l1.158-1.051-1.158 1.06"/></g><g><path fill="#3a235f" d="M195.77 238.89l1.158-1.06-1.158 1.051"/></g><g><path fill="#39235e" d="M195.78 238.901l1.158-1.051-1.158 1.06"/></g><g><path fill="#39235d" d="M195.79 238.92l1.158-1.06-1.158 1.06"/></g><g><path fill="#38225d" d="M195.8 238.93l1.158-1.06-1.158 1.051"/></g><g><path fill="#38225c" d="M195.81 238.941l1.158-1.051-1.148 1.06"/></g><g><path fill="#38225b" d="M195.82 238.96l1.148-1.06-1.158 1.06"/></g><g><path fill="#37225a" d="M195.82 238.97l1.158-1.06-1.158 1.06"/></g><g><path fill="#37215a" d="M195.83 238.98l1.158-1.06-1.148 1.051"/></g><g><path fill="#362159" d="M195.84 238.991l1.148-1.051-1.158 1.051"/></g><g><path fill="#362158" d="M195.84 239.01l1.158-1.06.01.01-1.158 1.06-.01-.01"/></g><g><path fill="#352158" d="M195.85 239.02l1.158-1.06v.01l-1.148 1.06-.01-.01"/></g><g><path fill="#352057" d="M195.86 239.03l1.148-1.06.01.01-1.158 1.06v-.01"/></g><g><path fill="#352056" d="M195.86 239.04l1.158-1.06.01.01-1.158 1.06-.01-.01"/></g><g><path fill="#342056" d="M195.87 239.05l1.158-1.06v.01l-1.158 1.06v-.01"/></g><g><path fill="#342055" d="M195.87 239.06l1.158-1.06.01.01-1.158 1.06-.01-.01"/></g><g><path fill="#331f54" d="M195.88 239.07l1.158-1.06v.02l-1.158 1.06v-.02"/></g><g><path fill="#331f54" d="M195.88 239.09l1.158-1.06.01.01-1.158 1.06-.01-.01"/></g><g><path fill="#331f53" d="M195.89 239.1l1.158-1.06-1.158 1.06"/></g><g><path fill="#321f52" d="M195.89 239.11l1.158-1.06-1.158 1.06"/></g><g><path fill="#321e52" d="M195.9 239.12l1.158-1.06v.01l-1.158 1.06v-.01"/></g><g><path fill="#311e51" d="M195.9 239.13l1.158-1.06v.01l-1.148 1.06-.01-.01"/></g><g><path fill="#311e50" d="M195.91 239.14l1.148-1.06-1.158 1.051"/></g><g><path fill="#311e50" d="M195.91 239.141l1.158-1.051-1.148 1.06"/></g><g><path fill="#301d4f" d="M195.92 239.16l1.148-1.06-1.158 1.06"/></g><g><path fill="#301d4e" d="M195.92 239.17l1.158-1.06-1.158 1.051"/></g><g><path fill="#2f1d4e" d="M195.92 239.181l1.158-1.051-1.158 1.06"/></g><g><path fill="#2f1d4d" d="M195.92 239.2l1.158-1.06-1.148 1.051"/></g><g><path fill="#2f1c4c" d="M195.93 239.211l1.148-1.051-1.148 1.06"/></g><g><path fill="#2e1c4c" d="M195.93 239.23l1.148-1.06-1.148 1.06"/></g><g><path fill="#2e1c4b" d="M195.93 239.25l1.148-1.06-1.158 1.051"/></g><g><path fill="#2d1c4a" d="M195.92 239.271l1.158-1.051-1.158 1.06a.126.126 0 0 0 0-.048"/></g></g><g><path fill="#402769" d="M185.86 227.8l1.158-1.06 9.295 10.336-1.149 1.06-9.304-10.335z"/></g><g><path fill="#2d1b4a" d="M184.262 226.292a7.97 7.97 0 0 1 1.606 1.509l9.304 10.336c.535.593.905 1.1.7 1.197-.204.097-1.158.69-1.527.905h-.107a6.034 6.034 0 0 1-1.12-1.032l-9.528-10.589c-1.255-1.401-.973-1.489-.973-1.489l1.43-.846a.224.224 0 0 1 .215.01z"/></g><g><g><path fill="#311e50" d="M184.26 226.29l1.158-1.06.01.01-1.158 1.05h-.01"/></g><g><path fill="#311e50" d="M184.27 226.291l1.158-1.051-1.148 1.06"/></g><g><path fill="#311e51" d="M184.29 226.3l1.148-1.06-1.158 1.06"/></g><g><path fill="#321e52" d="M184.3 226.31l1.158-1.06-1.158 1.06"/></g><g><path fill="#321f52" d="M184.32 226.32l1.158-1.06-1.148 1.06"/></g><g><path fill="#331f53" d="M184.34 226.33l1.148-1.06-1.158 1.06"/></g><g><path fill="#331f54" d="M184.35 226.34l1.158-1.06-1.148 1.051"/></g><g><path fill="#331f54" d="M184.37 226.341l1.148-1.051-1.158 1.051"/></g><g><path fill="#342055" d="M184.37 226.351l1.158-1.051-1.148 1.051"/></g><g><path fill="#342056" d="M184.39 226.361l1.148-1.051-1.158 1.051"/></g><g><path fill="#352056" d="M184.4 226.371l1.158-1.051-1.158 1.051"/></g><g><path fill="#352057" d="M184.42 226.381l1.158-1.051-1.158 1.051"/></g><g><path fill="#352158" d="M184.43 226.391l1.158-1.051-1.158 1.051"/></g><g><path fill="#362158" d="M184.45 226.401l1.158-1.051-1.148 1.06"/></g><g><path fill="#362159" d="M184.47 226.42l1.148-1.06-1.158 1.06"/></g><g><path fill="#37215a" d="M184.48 226.42l1.158-1.06-1.148 1.06"/></g><g><path fill="#37225a" d="M184.5 226.43l1.148-1.06-1.158 1.06"/></g><g><path fill="#38225b" d="M184.51 226.44l1.158-1.06-1.158 1.06"/></g><g><path fill="#38225c" d="M184.53 226.45l1.158-1.06-1.158 1.06"/></g><g><path fill="#38225d" d="M184.55 226.47l1.158-1.06-1.148 1.06"/></g><g><path fill="#39235d" d="M184.57 226.48l1.148-1.06-1.158 1.051"/></g><g><path fill="#39235e" d="M184.58 226.491l1.158-1.051-1.158 1.06"/></g><g><path fill="#3a235f" d="M184.6 226.51l1.158-1.06-1.158 1.051"/></g><g><path fill="#3a235f" d="M184.62 226.521l1.158-1.051-1.158 1.06"/></g><g><path fill="#3a2460" d="M184.64 226.54l1.158-1.06-1.158 1.06"/></g><g><path fill="#3b2461" d="M184.66 226.56l1.158-1.06-1.148 1.06"/></g><g><path fill="#3b2461" d="M184.69 226.58l1.148-1.06-1.148 1.06"/></g><g><path fill="#3c2462" d="M184.71 226.6l1.148-1.06-1.158 1.051"/></g><g><path fill="#3c2563" d="M184.73 226.611l1.158-1.051-1.148 1.06"/></g><g><path fill="#3c2563" d="M184.75 226.64l1.148-1.06-1.148 1.06"/></g><g><path fill="#3d2564" d="M184.78 226.66l1.148-1.06-1.129 1.139"/></g><g><path fill="#3d2565" d="M184.8 226.74l1.158-1.06-1.1 1.06"/></g><g><path fill="#3e2665" d="M184.86 226.741l1.158-1.051-1.158 1.051"/></g><g><path fill="#3e2666" d="M184.86 226.74l1.158-1.06-1.11 1.06"/></g><g><path fill="#3e2667" d="M184.91 226.74l1.148-1.06-1.148 1.06"/></g><g><path fill="#3f2667" d="M184.95 226.81l1.148-1.06v.049l-1.148 1.06v-.048"/></g><g><path fill="#3f2768" d="M185 226.86l1.148-1.06h.049l-1.158 1.051"/></g><g><path fill="#402769" d="M185.04 226.901l1.158-1.051-1.158 1.06"/></g><g><path fill="#402769" d="M185.08 226.94l1.158-1.06-1.158 1.06"/></g><g><path fill="#41276a" d="M185.11 226.98l1.158-1.06-1.158 1.06"/></g><g><path fill="#41286b" d="M185.14 227.01l1.158-1.06-1.158 1.051"/></g><g><path fill="#41286b" d="M185.15 227.021l1.158-1.051-1.148 1.06"/></g><g><path fill="#42286c" d="M185.17 227.04l1.148-1.06-1.158 1.06"/></g><g><path fill="#42286d" d="M185.18 227.05l1.158-1.06-1.158 1.06"/></g><g><path fill="#43296d" d="M185.19 227.07l1.158-1.06-1.158 1.06"/></g><g><path fill="#43296e" d="M185.21 227.08l1.158-1.06-1.158 1.051"/></g><g><path fill="#4b3274" d="M185.22 227.091l1.158-1.051-1.148 1.06"/></g><g><path fill="#4e3677" d="M185.24 227.11l1.148-1.06.01.01-1.148 1.06-.01-.01"/></g><g><path fill="#513979" d="M185.25 227.12l1.148-1.06.01.01-1.158 1.05"/></g><g><path fill="#533c7b" d="M185.25 227.121l1.158-1.051h.01l-1.158 1.06-.01-.009"/></g><g><path fill="#553e7c" d="M185.26 227.13l1.158-1.06.01.01-1.158 1.06-.01-.01"/></g><g><path fill="#57407d" d="M185.27 227.14l1.158-1.06v.01l-1.148 1.06-.01-.01"/></g><g><path fill="#59427f" d="M185.28 227.15l1.148-1.06.01.01-1.158 1.06v-.01"/></g><g><path fill="#5a4380" d="M185.28 227.15l1.158-1.06.01.01-1.158 1.06-.01-.01"/></g><g><path fill="#5b4581" d="M185.29 227.16l1.158-1.06.01.01-1.158 1.05h-.01"/></g><g><path fill="#5d4682" d="M185.3 227.161l1.158-1.051h.01l-1.158 1.06-.01-.009"/></g><g><path fill="#5e4883" d="M185.31 227.17l1.158-1.06v.01l-1.148 1.06-.01-.01"/></g><g><path fill="#5f4984" d="M185.32 227.18l1.148-1.06.01.01-1.158 1.06v-.01"/></g><g><path fill="#604b85" d="M185.32 227.19l1.158-1.06.01.01-1.158 1.06-.01-.01"/></g><g><path fill="#624c86" d="M185.33 227.2l1.158-1.06.01.01-1.158 1.05h-.01"/></g><g><path fill="#634d86" d="M185.34 227.201l1.158-1.051-1.148 1.06-.01-.009"/></g><g><path fill="#644e87" d="M185.35 227.21l1.148-1.06.01.01-1.158 1.06v-.01"/></g><g><path fill="#654f88" d="M185.35 227.22l1.158-1.06.01.01-1.158 1.06-.01-.01"/></g><g><path fill="#665089" d="M185.36 227.23l1.158-1.06.01.01-1.158 1.06-.01-.01"/></g><g><path fill="#675289" d="M185.37 227.24l1.158-1.06.01.01-1.158 1.06-.01-.01"/></g><g><path fill="#68538a" d="M185.38 227.25l1.158-1.06v.01l-1.158 1.05"/></g><g><path fill="#68548b" d="M185.38 227.251l1.158-1.051h.01l-1.158 1.06-.01-.009"/></g><g><path fill="#69558c" d="M185.39 227.26l1.158-1.06.01.01-1.158 1.06-.01-.01"/></g><g><path fill="#6a568c" d="M185.4 227.27l1.158-1.06.01.01-1.158 1.06-.01-.01"/></g><g><path fill="#6b578d" d="M185.41 227.28l1.158-1.06v.01l-1.148 1.06-.01-.01"/></g><g><path fill="#6c588e" d="M185.42 227.29l1.148-1.06.01.01-1.158 1.06v-.01"/></g><g><path fill="#6d588e" d="M185.42 227.3l1.158-1.06.01.01-1.158 1.05h-.01"/></g><g><path fill="#6d598f" d="M185.43 227.301l1.158-1.051-1.148 1.06"/></g><g><path fill="#6e5a8f" d="M185.45 227.32l1.148-1.06-1.158 1.06"/></g><g><path fill="#6f5b90" d="M185.45 227.34l1.158-1.06-1.158 1.06"/></g><g><path fill="#705c91" d="M185.47 227.36l1.158-1.06-1.148 1.051"/></g><g><path fill="#715d91" d="M185.49 227.371l1.148-1.051-1.158 1.06"/></g><g><path fill="#715e92" d="M185.5 227.39l1.158-1.06-1.158 1.06"/></g><g><path fill="#715d91" d="M185.53 227.43l1.158-1.06-1.158 1.06"/></g><g><path fill="#705c91" d="M185.57 227.47l1.158-1.06-1.148 1.06"/></g><g><path fill="#6f5b90" d="M185.6 227.5l1.148-1.06-1.158 1.06"/></g><g><path fill="#6e5a8f" d="M185.61 227.51l1.197-1.06-1.158 1.06"/></g><g><path fill="#6d598f" d="M185.62 227.51l1.158-1.06-1.158 1.051"/></g><g><path fill="#6d588e" d="M185.63 227.521l1.158-1.051-1.158 1.06"/></g><g><path fill="#6c588e" d="M185.64 227.54l1.158-1.06-1.158 1.06"/></g><g><path fill="#6b578d" d="M185.65 227.55l1.158-1.06-1.158 1.06"/></g><g><path fill="#6a568c" d="M185.66 227.56l1.158-1.06.01.01-1.158 1.06-.01-.01"/></g><g><path fill="#69558c" d="M185.67 227.57l1.158-1.06.01.01-1.158 1.06-.01-.01"/></g><g><path fill="#68548b" d="M185.68 227.58l1.158-1.06.01.01-1.158 1.06-.01-.01"/></g><g><path fill="#68538a" d="M185.69 227.59l1.158-1.06v.01l-1.148 1.06-.01-.01"/></g><g><path fill="#675289" d="M185.7 227.6l1.148-1.06.01.01-1.148 1.06-.01-.01"/></g><g><path fill="#665089" d="M185.71 227.61l1.148-1.06.01.01-1.158 1.06v-.01"/></g><g><path fill="#654f88" d="M185.71 227.62l1.158-1.06.01.01-1.158 1.06-.01-.01"/></g><g><path fill="#644e87" d="M185.72 227.63l1.158-1.06.01.01-1.158 1.05h-.01"/></g><g><path fill="#634d86" d="M185.73 227.631l1.158-1.051.01.01-1.158 1.05-.01-.009"/></g><g><path fill="#624c86" d="M185.74 227.641l1.158-1.051v.01l-1.148 1.05-.01-.009"/></g><g><path fill="#604b85" d="M185.75 227.651l1.148-1.051h.01l-1.158 1.06v-.009"/></g><g><path fill="#5f4984" d="M185.75 227.66l1.158-1.06.01.01-1.158 1.06-.01-.01"/></g><g><path fill="#5e4883" d="M185.76 227.67l1.158-1.06.01.01-1.158 1.06-.01-.01"/></g><g><path fill="#5d4682" d="M185.77 227.68l1.158-1.06v.01l-1.148 1.06-.01-.01"/></g><g><path fill="#5b4581" d="M185.78 227.69l1.148-1.06.01.01-1.158 1.06v-.01"/></g><g><path fill="#5a4380" d="M185.78 227.7l1.158-1.06.01.01-1.158 1.06-.01-.01"/></g><g><path fill="#59427f" d="M185.79 227.71l1.158-1.06.01.01-1.158 1.06-.01-.01"/></g><g><path fill="#57407d" d="M185.8 227.72l1.158-1.06.01.01-1.158 1.06-.01-.01"/></g><g><path fill="#553e7c" d="M185.81 227.73l1.158-1.06v.01l-1.148 1.05h-.01"/></g><g><path fill="#533c7b" d="M185.82 227.731l1.148-1.051h.01l-1.158 1.06v-.009"/></g><g><path fill="#513979" d="M185.82 227.74l1.158-1.06.01.01-1.158 1.06-.01-.01"/></g><g><path fill="#4e3677" d="M185.82 227.75l1.158-1.06.01.02-1.158 1.05-.01-.01"/></g><g><path fill="#4b3274" d="M185.83 227.761l1.158-1.051.01.01-1.158 1.05-.01-.009"/></g><g><path fill="#43296e" d="M185.84 227.771l1.158-1.051-1.148 1.06-.01-.009"/></g><g><path fill="#43296d" d="M185.83 227.781l1.168-1.041-1.168 1.051"/></g><g><path fill="#42286d" d="M185.86 227.791l1.148-1.051h.01l-1.158 1.06v-.009"/></g></g></g><g><path fill="url(#3ti6e)" d="M198.269 235.732s-2.92-2.716-5.616-2.57c.117.526.974 1.577-.807 1.188a9.82 9.82 0 0 1-3.98-1.85c-.478-.33-1.198.974-.458 3.757.74 2.784 1.946 3.552 3.26 3.98 2.054.701 6.647 0 6.647 0l2.92-3.659z"/></g><g><path fill="#ecf6fa" d="M229.697 191.1s9.168 1.946 9.236 13.411c.078 12.652-.457 20.098-2.336 27.25-.428 1.626-1.197 8.916-10.842 9.88-12.516 1.255-29.625-.604-29.625-.604s3.085-3.601 1.946-5.752c.789.078 20.438-2.268 20.438-2.268 5.149-1.284 4.555-3.669 4.4-6.88-.283-5.597-1.061-14.054-1.519-19.407-.525-6.005.321-15.63 8.302-15.63z"/></g><g opacity=".53"><g opacity=".53" transform="rotate(-88.854 184.5 85.5)"><path fill="url(#3ti6f)" d="M184.093 138.487c29.273 0 53.004-23.73 53.004-53.004 0-29.273-23.73-53.003-53.004-53.003-29.273 0-53.003 23.73-53.003 53.003s23.73 53.004 53.003 53.004z"/></g><g clip-path="url(#3ti6g)" opacity=".53"><g opacity=".53"><path fill="#a97fe3" d="M185.831 92.336c-1.247-1.157-.96-4.012 0-5.44.96-1.427 2.285-2.622 2.88-4.233.662-1.996-.74-3.713.96-4.918.413-.28 1.92-.598 2.38-.83.692-.347 1.277-.877 1.92-1.282a6.616 6.616 0 0 1 5.078-.791c0 .964.624 2.392 1.469 1.929.23-.135.393-.396.652-.444.26-.048.634.318.845.627a2.368 2.368 0 0 0 2.16 1.138c.854-.145 1.468-1.264.96-1.929a40.2 40.2 0 0 0 6.633-.598c.575-.096 1.257-.299 1.43-.858.336-1.013-1.19-1.524-2.246-1.476a4.048 4.048 0 0 1 .336-1.996 1.694 1.694 0 0 1-2.15.405 5.061 5.061 0 0 1-1.661-1.688c-.509.965-.816 2.537.22 2.894.461.173 1.018 0 1.44.25.586.367.356 1.418-.297 1.678s-1.248-.28-1.862-.607a6.577 6.577 0 0 1-2.198-2.025c-1.095-2.17-1.92-3.665-4.243-4.408-.394 1.36 1.776 1.929 2.563 3.067.787 1.138.297 4.08-2.275 2.893a.318.318 0 0 1-.096-.472c1.085-1.447-.509-2.45-1.843-3.81-.298.888.269 1.34.163 2.276-.106.936-1.325 1.804-1.92 1.061-.595-.742.298-2.122-.499-2.556a1.147 1.147 0 0 0-1.056.164 6.243 6.243 0 0 0-3.129 5.121c.02.279-.05.557-.202.791-.528.598-1.468-.386-2.236-.193-.768.193-.864 1.196-1.536 1.418-.854.29-1.44-.858-1.622-1.746l-.816-4.147a6.526 6.526 0 0 0 2.832 0 2.235 2.235 0 0 0 1.68-2.054c0-.964-1.306-1.707-2.036-1.1a1.257 1.257 0 0 1 .5-1.677c-.96.058-2.88.357-2.794-.56 1.306-.55 2.237-1.34 2.035-2.613a6.204 6.204 0 0 0-2.035-3.182c1.143-.743 1.44-1.93 2.026-1.707.585.221.441 1.851.787 2.372.72 1.109 2.985 1.591.806 3.665a3.245 3.245 0 0 0 2.775-.947 3.279 3.279 0 0 0 .892-2.805 2.964 2.964 0 0 1-.182-1.147c.057-.386.489-.753.825-.56.103.075.194.166.269.27 1.488 1.833 4.991 1.07 5.606-1.215.143-.511.182-1.119.585-1.456a2.267 2.267 0 0 1 1.315-.328 5.443 5.443 0 0 0 4.8-4.427c-1.104.135-1.757 1.254-2.621 1.93-.864.674-2.63.549-2.563-.56 0-.376.279-.714.298-1.09 0-.675-.73-1.157-1.402-1.09a3.537 3.537 0 0 0-1.747.965 9.255 9.255 0 0 0 1.997 3.22 2.695 2.695 0 0 0-1.853 1.93 2.66 2.66 0 0 1-.355 1.07c-.48.569-1.43.28-1.92-.241-.49-.52-.902-1.225-1.574-1.543a8.901 8.901 0 0 1-2.716 1.37l-1.46-2.894a9.112 9.112 0 0 0 3.447-7.638 6.057 6.057 0 0 0 4.799-2.459c.605-.839 1.42-1.987 2.352-1.553.93.434.883 1.93 1.833 2.16.566.116 1.066-.366 1.517-.732.45-.367 1.21-.589 1.545-.116.336.472-.259 1.244-.23 1.929.057 1.022 1.737 1.138 2.323.289.46-.933.515-2.014.153-2.99l2.102-.337c-.681-.241-.45-1.389.212-1.669a2.744 2.744 0 0 1 2.073.309l3.84 1.668a13.943 13.943 0 0 1 7.842 6.53c4.914 7.261 9.925 14.716 12.2 23.203a2.44 2.44 0 0 1-.115 2.121c-.643.82-1.92.521-2.88.29a10.627 10.627 0 0 0-5.884.366c.96.675 2.745 1.61 2.313 2.749-.432 1.138-1.967 1.06-2.812 1.803.47.656.105 1.562-.269 2.276a6.547 6.547 0 0 1-1.65 2.276 2.161 2.161 0 0 1-2.621.116c-.893-.753-.864-2.392-1.92-2.826-.682-.28-1.67 0-2.054-.617a2.305 2.305 0 0 1-.135-1.148c-.086-2.189-3.263-2.69-4.444-4.542-.96 2.893 2.707 2.893 2.822 4.639.058.82-.96 1.851-.288 2.324.26.143.543.24.835.29 2.323.597 2.736 3.095 4.8 4.32.864.501 1.727 1.388 2.649.964a2.143 2.143 0 0 0 1.296-2.42c1.372 1.05 1.43 3.182.72 4.754a21.855 21.855 0 0 1-3.082 4.156c-1.075 1.35-1.92 3.048-1.65 4.745.268 1.697 1.92 3.125 2.12 4.89a6.516 6.516 0 0 1-.661 3.298 55.16 55.16 0 0 1-7.68 13.357c-.537.684-1.526 1.398-2.16.81-.786-.743.404-2.267-.278-3.115a2.635 2.635 0 0 0-1.21-.588c-1.573-.618-2.082-2.556-2.543-4.196-.46-1.64-2.198-2.112-3.148-3.52-.576-.868.787-1.928 1.17-2.893a4.22 4.22 0 0 0 .366-1.215c.278-2.69-3.926-3.925-4.166-6.606 0-.579.096-1.167 0-1.736s-.528-1.176-1.095-1.109c-.336 0-.624.29-.96.328-.614.077-1.075-.588-1.67-.762-1.497-.453-2.14 1.996-3.542 2.671-.96.473-2.16 0-3.139-.55l-3.906-2.034a10.323 10.323 0 0 1-2.592-1.678 5.384 5.384 0 0 1-1.593-3.723"/></g><g opacity=".53"><path fill="#a97fe3" d="M184.266 63.913c-.784 0-.623-1.114-.737-1.672-.057-.317-.368-.336-.529-.7.17-.5 1.115-.29 1.89-1.356a.443.443 0 0 1 .623-.096c.775.625.407 2.047.35 2.883a.438.438 0 0 1-.066.269.471.471 0 0 1-.236.144c-.539.182-.51.692-1.22.605"/></g><g opacity=".53"><path fill="#a97fe3" d="M154.68 106.49c.27 1.721 1.606 3.066 3.304 3.324.745.097 1.499 0 2.234.126.735.126 1.49.697 1.49 1.463-.082.489-.243.96-.478 1.395-.468 1.376 1.079 1.453 2.138 3.023.335.494-.954.145-.954 1.26 0 .61.553 1.075.954 1.5 1.642 1.658 3.485 3.411 5.795 3.557 1.25.087 2.721-.252 3.58.658.29.356.504.768.63 1.211l3.141 8.526c.487 1.356 1.06 2.82 2.282 3.565.783.465 1.757.591 2.396 1.24.773.795 1.108 2.335 2.205 2.277.726-1.666 4.583 2.984 4.497-1.996-1.575-2.19-.172-5.202.076-7.896.105-1.094.048-2.325.783-3.129.468-.504 1.194-.756 1.537-1.347 1.06-1.82-3.923-5.938-1.852-5.706 1.604.184 2.062-.736 2.55-1.802a8.332 8.332 0 0 0 1.011-4.108c-.105-1.424-1.298-2.267-2.425-3.12-1.126-.852-1.308-3.352.506-1.85.955.814.697-3.875-.324-4.534a3.678 3.678 0 0 0-2.76-.494l-6.443 1.22a2.937 2.937 0 0 1-1.585 0c1.079-1.724-.86 0-2.244-2.276-2.358-1.783-3.217 2.19-4.926 1.453-1.184-.504 1.375-2.15-2.807-2.064a12.038 12.038 0 0 0-3.656 1.211c-1.193.465-2.53-.503-3.714 0-.954.436-.362 2.132-.544 3.198-.114.687-.439 1.56-1.126 1.53a1.264 1.264 0 0 1-.783-.407 5.946 5.946 0 0 1-1.824-4.64c-.563-.533-1.03.804-1.718 1.172-.687.368-1.413-.378-1.737-1.085-.325-.707-.697-1.57-1.461-1.657a4.663 4.663 0 0 0-1.986 4.001 2.46 2.46 0 0 1-2.807-1.724 6.012 6.012 0 0 1 .191-3.614c.108-.59.454-1.106.955-1.424.62-.3 1.442 0 2.014-.358.573-.359.573-1.58 1.232-2.045.659-.465 2.501-.184 2.358-1.153-.591-2.013.444-4.15 2.377-4.902.49-.092.948-.305 1.337-.62.716-.785 0-1.986-.43-2.907a7.179 7.179 0 0 1-.764-3.42 3.458 3.458 0 0 1 .955-2.538c.697-.61 1.174.969 2.1.969 1.337-.058-.047-1.502 3.294-3.41 1.184-.679-2.664 0-4 .174a4.111 4.111 0 0 1-2.645-.523.77.77 0 0 1 .2-1.337c2.33-.882 4.774-2.48 4.984-4.844.143-2.006-4.2-1.744-3.943-4.224.09-.935-.493-1.8-1.384-2.054-2.024-.562-1.68 2.984-3.341 3.536a3.865 3.865 0 0 0-3.58-2.035 2.72 2.72 0 0 0-1.838 1.01 2.8 2.8 0 0 0-.597 2.033c.277 1.472 1.91 2.984.955 4.146-.21.262-.525.446-.668.746-.392.882.907 1.512 1.852 1.599-.2.688-1.174.843-1.805.494a6.3 6.3 0 0 1-1.48-1.492 5.836 5.836 0 0 0-4.83-1.938.698.698 0 0 1-.783-.562c-.286-3.023 6.893-7.75 5.06-9.494a4.031 4.031 0 0 0-2.664-.262 1.795 1.795 0 0 0-1.24 2.141 3.772 3.772 0 0 0-4.153-.242c-1.767 1.075-2.664 3.614-4.707 3.875-.465 0-.93.048-1.384.146a2.65 2.65 0 0 0-1.26 1.191 20.634 20.634 0 0 0-2.712 5.968c-3.408 13.002.525 18.902 4.898 24.221 1.04 0 1.66 1.163 1.91 2.18.247 1.017.438 2.209 1.326 2.752.42.251.955.32 1.337.59.888.572 1.126 1.938 2.138 2.287a1.31 1.31 0 0 0 1.288-.577c.284-.429.3-.985.04-1.428a18.103 18.103 0 0 0 7.637 3.41c.299.086.618.07.906-.049.583-.31.487-1.162.755-1.773.324-.775 1.336-.329 2.09-.678.755-.349-.276-1.937.42-2.209.697-.271 1.26 1.289 1.652 2.093"/></g><g opacity=".53"><path fill="#a97fe3" d="M158.24 101.215c-1.171 0-2.014.725-3.05.66a.213.213 0 0 1-.17-.116.198.198 0 0 1 .015-.2c.271-.4.407-1.236.64-1.562.118-.235.264-.456.435-.66.197-.16.428-.278.678-.344.561-.186 1.307-.316 1.617.168a.695.695 0 0 0 .203.306.55.55 0 0 0 .3.066 5.4 5.4 0 0 0 1.598-.103c.813-.214 1.462-.79 2.246-1.078a6.803 6.803 0 0 1 1.937-.307 5.594 5.594 0 0 1 2.478.242c.368.25.843.678.833 1.115 0 2.39-1.937 1.135-3.408 2.9-.117.14-.349.14-.543.15a2.666 2.666 0 0 1-.88-.186c-.853-.242-.156.204-.969.622a.576.576 0 0 1-.329.112c-.252 0-.29-.4-.184-.623.107-.223-.397-.883-1.404-1.041a1.641 1.641 0 0 1-1.326.517 1.62 1.62 0 0 1-1.23-.703"/></g><g opacity=".53"><path fill="#a97fe3" d="M163.906 77a3.863 3.863 0 0 0-2.575 0 2.126 2.126 0 0 1-1.331-.772 4.965 4.965 0 0 1 1.466-1.977c.849-.567 3.077-.093 3.386.618.173.422.24.638-.058.978-.3.34-.473 1.03-.888 1.153"/></g><g opacity=".53"><path fill="#a97fe3" d="M148.974 62.269c.539.605.177 1.521-.313 2.154a3.588 3.588 0 0 0-1.105 2.052 6.333 6.333 0 0 0 2.495-1.008c.831-.375 2.074-.348 2.387.459.078.22.068.467.156.687.088.22.303.44.548.376a.492.492 0 0 0 .264-.165 4.728 4.728 0 0 0 .695-1.577c.215-.531.792-1.063 1.37-.87l-.744-1.09c.342.015.675-.105.918-.332.242-.227.37-.54.353-.86a1.54 1.54 0 0 0-.528-.917c-1.643-1.53-4.539-.614-6.613-1.585-.538-.248-.978-.614-1.506-.917-2.104-1.127-4.735-.623-7.083-.082a1 1 0 0 0-.636.311c-.098.147-.098.34-.186.495-.088.156-.548.33-.822.504-.427.39-.649.937-.606 1.494-.044.285-.007.576.107.843.403.518 1.137.702 1.761.44a9.439 9.439 0 0 1 1.879-.586h1.085c.812 0 1.536-.495 2.339-.605.924-.114 1.844.234 2.426.916"/></g><g opacity=".53"><path fill="#a97fe3" d="M147.531 50.631a16.015 16.015 0 0 1 5.162-3.107c.272-.134.58-.175.878-.117.52.156.695.826.637 1.37a5.452 5.452 0 0 0-.135 1.621 1.471 1.471 0 1 0 2.547.456l.569 2.73a2.54 2.54 0 0 0 .762 1.592c.647.476 1.698.31 2.133.97.196.46.263.963.192 1.457a2.545 2.545 0 0 0 1.418 2.14 2.514 2.514 0 0 0 2.548-.197c1.245-.884 1.428-2.642 1.505-4.166l.126-2.632a2.07 2.07 0 0 1 .28-1.136c.204-.227.445-.417.713-.563a4.672 4.672 0 0 0 2.007-3.02c.03-.335.115-.664.251-.971a1.972 1.972 0 0 1 1.93-.758 5.666 5.666 0 0 0 2.142 0c.964-.33 1.553-1.408 2.421-2 1.583-1.068 3.715-.33 5.403.534.193.126.418.19.647.185.55-.059.704-.758.878-1.272a2.986 2.986 0 0 1 3.714-1.777c.637.233 1.226.699 1.93.64 1.129-.116 1.544-1.64 1.216-2.738a1.817 1.817 0 0 1-.145-1.097c.232-.641 1.12-.641 1.785-.525l3.213.573c.312.11.652.11.965 0 .183-.125.335-.29.444-.485a8.706 8.706 0 0 0 1.196-3.253c.338-1.865.077-2.612-1.071-3.205-.897-.466-3.502.32-4.41-.087a11.588 11.588 0 0 0-4.823-.777c-3.628.165-8.472-.107-12.051.505-4.81.94-9.558 2.17-14.222 3.68-4.91 1.418-10.613 5.458-13.112 9.924-1.061 1.884-1.62 4.244-.733 6.215"/></g><g opacity=".53"><path fill="#a97fe3" d="M186.796 54.05a6.136 6.136 0 0 1-2.551 2.326c-.14.07-.317.24-.214.37h.083a2.273 2.273 0 0 0 1.863.1c.436-.243.895-.438 1.368-.58a.88.88 0 0 0 .485-.13.625.625 0 0 0 .074-.763 2.937 2.937 0 0 0-.53-.621c-.202-.19-.317-.464-.317-.752"/></g><g opacity=".53"><path fill="#a97fe3" d="M191.48 50.03a2.56 2.56 0 0 0-.44.891c-.093.369-.02.799.175 1.025.2.131.428.018.556-.276.118-.294.19-.636.207-.991.03-.158.03-.327 0-.485a.28.28 0 0 0-.098-.172c-.046-.032-.097-.029-.141.007"/></g><g opacity=".53"><path fill="#a97fe3" d="M192.891 48.39a2.494 2.494 0 0 1-.273-.967.42.42 0 0 1 .08-.339.431.431 0 0 1 .406-.058c.409.11.737.402.881.784.02.066.02.137 0 .203a.284.284 0 0 1-.132.155c-.31.169-.656.265-1.012.28-.355.059-.75.223-.841.552"/></g><g opacity=".53"><path fill="#a97fe3" d="M195.39 45.664c-.253-.076-.4-.291-.35-.508.159-.086.34-.14.53-.155.196-.01.37.103.4.262a.384.384 0 0 1-.11.237c-.172.199-.39.369-.64.5"/></g><g opacity=".53"><path fill="#a97fe3" d="M197.25 43.4c-.117-.086-.203-.254-.236-.456a1.072 1.072 0 0 1 .067-.588c.173-.373.49-.467.732-.216.06.049.11.123.146.216.102.288 0 .636-.161.864-.16.228-.314.456-.336.78"/></g></g></g><g><path fill="#a97fe3" d="M230.932 23.394a904.99 904.99 0 0 0-2.18 13.002 7.854 7.854 0 0 0 6.686 9.042l10.813 1.518-16.224 16.837 28.73-14.988 8.914.973a7.786 7.786 0 0 0 8.565-6.287l2.238-11.679a7.786 7.786 0 0 0-6.316-9.158l-32.117-5.635a7.873 7.873 0 0 0-9.11 6.375z"/></g><g><path fill="#fff" d="M245.765 30.317l-.759 8.457a.973.973 0 0 0 .818 1.071l2.16.39a.973.973 0 0 0 1.158-.808l.195-1.052 1.333-.243 1.042 2.297a.973.973 0 0 0 .75.574l5.732.973c.41.068.825-.088 1.09-.408l.467-.565a1.158 1.158 0 0 0-.312-1.742.165.165 0 0 1 .088-.311h1.08a1.158 1.158 0 0 0 1.139-1.022l.136-.77a1.168 1.168 0 0 0-.866-1.332l-1.08-.263 2.063.146a1.168 1.168 0 0 0 1.236-.973l.224-1.285a1.158 1.158 0 0 0-.973-1.353l-5.84-.973s1.84-3.698 1.07-6.024a.973.973 0 0 0-.778-.662.973.973 0 0 0-1.158.856 5.966 5.966 0 0 1-.331 1.421 48.174 48.174 0 0 1-3.212 4.438l-2.365.185v-.662a.973.973 0 0 0-.846-.973l-2.132-.331a.973.973 0 0 0-1.129.944z"/></g><g><path fill="#a97fe3" d="M103.446 80.204c.116 2.277.301 5.05.457 7.348a4.38 4.38 0 0 0 4.779 4.058l10.15-.38 17.81 11.68-9.79-12.993h-.097a4.36 4.36 0 0 0 3.893-4.507l-.292-6.608a4.35 4.35 0 0 0-4.594-4.175l-18.17.973a4.39 4.39 0 0 0-4.146 4.604z"/></g><g><path fill="#fff" d="M112.386 82.096l.652 4.69c.044.285.296.49.584.477l1.226-.058a.555.555 0 0 0 .526-.584v-.594l.69-.301.857 1.11a.555.555 0 0 0 .487.223l3.23-.224a.633.633 0 0 0 .546-.36l.175-.36a.642.642 0 0 0-.39-.915.088.088 0 1 1 0-.175l.594-.127a.662.662 0 0 0 .507-.68v-.43a.652.652 0 0 0-.643-.612h-.613l1.139-.185a.642.642 0 0 0 .545-.672v-.73a.662.662 0 0 0-.7-.613l-3.31.224s.535-2.238-.175-3.406a.555.555 0 0 0-.506-.263.555.555 0 0 0-.526.613 3.28 3.28 0 0 1 0 .818 27.59 27.59 0 0 1-1.187 2.822l-1.256.39-.077-.351a.564.564 0 0 0-.594-.448l-1.197.098a.545.545 0 0 0-.584.623z"/></g><g><path fill="#a97fe3" d="M49.748 21.644l.088 17.032a11.62 11.62 0 0 0 11.6 10.618l52.507-.429 32.963 29.285-14.452-30.443c7.572-.477 12.564-4.866 12.321-14.19l-.049-12.74a12.652 12.652 0 0 0-12.233-10.403L61.544 9.02a11.679 11.679 0 0 0-11.796 12.623z"/></g><g><path fill="#a97fe3" d="M277.674 104.032l-.292-10.773a7.231 7.231 0 0 0-7.3-6.511l-20.953.38-26.579-8.468 15.075 9.333c-4.71.36-7.6 3.62-7.143 9.373l.34 7.542a7.893 7.893 0 0 0 7.69 6.375l32.69.496c4.282.03 6.9-3.474 6.472-7.747z"/></g><g><path fill="#fff" d="M238.393 105.28a.438.438 0 0 0 0 .866l32.895.136a.438.438 0 1 0 0-.866z"/></g><g><path fill="#fff" d="M237.413 92.72a.438.438 0 0 0 0 .866l32.885.136a.438.438 0 0 0 .438-.438.448.448 0 0 0-.428-.437z"/></g><g><path fill="#fff" d="M236.713 99.24a.438.438 0 0 0 0 .866l35.29.535a.438.438 0 0 0 .447-.428.428.428 0 0 0-.428-.438l-35.3-.535z"/></g><g><path fill="#a97fe3" d="M136.42 137.996l.078-6.958c0-3.844 3.543-6.57 7.29-6.511l20.963.38 20.73-17.947-9.226 18.813c4.71.36 7.231 3.202 7.144 9.372l-.108 4.7c.078 3.971-3.455 6.424-7.201 6.453l-32.711-.243c-4.263.03-6.998-3.319-6.959-8.059z"/></g><g><path fill="#fff" d="M175.774 138.567a.438.438 0 1 1 0 .876l-32.885-.467a.419.419 0 0 1-.429-.438.428.428 0 0 1 .438-.428l32.886.458z"/></g><g><path fill="#fff" d="M177.407 132.625a.438.438 0 1 1 0 .876l-35.309-.195a.448.448 0 0 1-.438-.438c0-.242.196-.438.438-.438l35.3.224z"/></g><g><path fill="#fff" d="M58.815 36.46c-.507 0-.925.263-.925.584 0 .321.418.594.973.594l71.105.185c.545 0 .973-.263.973-.584 0-.322-.418-.594-.973-.594l-71.105-.185z"/></g><g><path fill="#fff" d="M58.815 19.44c-.507 0-.925.263-.925.584 0 .321.418.594.973.594l71.105.185c.545 0 .973-.263.973-.584 0-.322-.418-.594-.973-.594l-71.134-.185z"/></g><g><path fill="#fff" d="M58.815 28.59c-.507 0-.925.263-.925.584 0 .321.418.594.973.594l76.302.136c.516 0 .973-.263.973-.594 0-.33-.418-.584-.973-.593l-76.302-.127z"/></g></g></g></svg>