<svg xmlns="http://www.w3.org/2000/svg" width="256" height="400" viewBox="0 0 256 400"><defs><linearGradient id="auaja" x1="73.51" x2="78.29" y1="15.92" y2="24.92" gradientUnits="userSpaceOnUse"><stop offset="0" stop-color="#e5cccc"/><stop offset=".34" stop-color="#e4caca"/><stop offset=".54" stop-color="#e1c3c1"/><stop offset=".69" stop-color="#dcb7b4"/><stop offset=".83" stop-color="#d4a5a0"/><stop offset=".95" stop-color="#ca8f86"/><stop offset="1" stop-color="#c6857b"/></linearGradient><linearGradient id="auajb" x1="73.68" x2="76.14" y1="15.8" y2="20.43" gradientUnits="userSpaceOnUse"><stop offset="0" stop-color="#e5cccc"/><stop offset=".2" stop-color="#e1c3c2"/><stop offset=".54" stop-color="#d7ada8"/><stop offset=".97" stop-color="#c7877e"/><stop offset="1" stop-color="#c6857b"/></linearGradient><linearGradient id="auajc" x1="101.23" x2="101.23" y1="197.1" y2="205.52" gradientUnits="userSpaceOnUse"><stop offset="0"/><stop offset=".26" stop-color="#050505"/><stop offset=".55" stop-color="#121212"/><stop offset=".85" stop-color="#282828"/><stop offset="1" stop-color="#363636"/></linearGradient><linearGradient id="auajd" x1="119.1" x2="119.1" y1="210.57" y2="219.08" gradientUnits="userSpaceOnUse"><stop offset="0"/><stop offset=".26" stop-color="#050505"/><stop offset=".55" stop-color="#121212"/><stop offset=".85" stop-color="#282828"/><stop offset="1" stop-color="#363636"/></linearGradient><linearGradient id="auaje" x1="99.01" x2="124.21" y1="59.16" y2="37.94" gradientUnits="userSpaceOnUse"><stop offset="0" stop-color="#fce2e1"/><stop offset=".4" stop-color="#e6bbb7"/><stop offset="1" stop-color="#c6857b"/></linearGradient><linearGradient id="auajf" x1="123.46" x2="101.72" y1="39.42" y2="39.53" gradientUnits="userSpaceOnUse"><stop offset="0" stop-color="#3c2417"/><stop offset=".27" stop-color="#472c1b"/><stop offset=".76" stop-color="#654124"/><stop offset="1" stop-color="#764d2a"/></linearGradient><linearGradient id="auajg" x1="152.01" x2="148.14" y1="22.16" y2="31.53" gradientUnits="userSpaceOnUse"><stop offset="0" stop-color="#e5cccc"/><stop offset=".34" stop-color="#e4caca"/><stop offset=".54" stop-color="#e1c3c1"/><stop offset=".69" stop-color="#dcb7b4"/><stop offset=".83" stop-color="#d4a5a0"/><stop offset=".95" stop-color="#ca8f86"/><stop offset="1" stop-color="#c6857b"/></linearGradient><linearGradient id="auajh" x1="151.82" x2="149.83" y1="22.07" y2="26.89" gradientUnits="userSpaceOnUse"><stop offset="0" stop-color="#e5cccc"/><stop offset=".2" stop-color="#e1c3c2"/><stop offset=".54" stop-color="#d7ada8"/><stop offset=".97" stop-color="#c7877e"/><stop offset="1" stop-color="#c6857b"/></linearGradient></defs><g><g><g><path fill="#a97fe3" d="M154.37 369.97v-14.63l50.704 29.286.01 14.573-50.714-29.23z"/></g><g><path fill="#9b66e3" d="M255.784 369.97v-14.63l-50.704 29.286V399.2l50.704-29.23z"/></g><g><path fill="#be94fa" d="M205.065 326.14l-50.695 29.202 50.714 29.286 50.704-29.286-50.723-29.202z"/></g><g><path fill="#a97fe3" d="M103.72 296.94v-14.62l50.704 29.286v14.573l-50.704-29.24z"/></g><g><path fill="#9b66e3" d="M205.144 296.94v-14.62l-50.705 29.286-.009 14.573 50.714-29.24z"/></g><g><path fill="#be94fa" d="M154.405 253.11l-50.685 29.211 50.714 29.287 50.704-29.287-50.733-29.211z"/></g><g><path fill="#a97fe3" d="M52.86 223.54v-14.62l50.704 29.286.01 14.573-50.714-29.24z"/></g><g><path fill="#9b66e3" d="M154.274 223.54v-14.62l-50.704 29.286v14.573l50.704-29.24z"/></g><g><path fill="#be94fa" d="M103.555 179.71L52.86 208.921l50.714 29.287 50.704-29.287-50.723-29.211z"/></g><g><path fill="url(#auaja)" d="M74.581 24.853c-.056-.216-2.131-1.878-2.413-4.479-.403-3.709-.187-4.394 3.296-5.023 1.07-.188 1.7 0 1.709 1.446 1.512-.742 1.146 3.248 1.042 4.225-.422 3.756-1.812 4.798-1.812 4.798z"/></g><g><path fill="url(#auajb)" d="M72.031 18.842c-.131-1.813-.169-2.949 3.465-3.512 1.08-.16 1.568 0 1.709 1.446.16 2.047.122 3.06-1.559 3.756-1.68.695-3.474.356-3.615-1.69z"/></g><g><path fill="#ecf6fa" d="M112.61 76.644c-.075 1.37-.413 0-1.784-.113-1.173-.075-3.051-1.098-5.634-2.432-10.122-5.267-15.023-9.962-19.718-15.37a52.404 52.404 0 0 1-6.958-11.7 74.122 74.122 0 0 1-5.286-23.08 7.727 7.727 0 0 0 2.817-.488 7.033 7.033 0 0 0 2.188-1.371s4.394 12.056 7.145 17.765c2.291 4.808 5.136 8.667 6.385 9.803 4.695 4.329 13.765 6.92 18.47 7.568 5.446.76 2.713 13.559 2.375 19.418z"/></g><g><path fill="url(#auajc)" d="M107.274 197.759s-1.765-1.531-5.568.075c-3.803 1.605-6.075 2.197-7.286 4.61-1.643 4.253 2.77 2.967 4.6 2.676 1.832-.291 8.104-2.958 8.761-3.624.658-.667 1.127-3.127-.507-3.737z"/></g><g><path fill="url(#auajd)" d="M125.187 211.265s-1.756-1.54-5.568.066c-3.813 1.606-6.15 2.103-7.362 4.517-1.643 4.253 2.657 3.22 4.488 2.93 1.831-.292 8.291-3.118 8.958-3.757.667-.638 1.127-3.183-.516-3.756z"/></g><g><path fill="#353536" d="M100.26 125.92l1.68 71.878a2.075 2.075 0 0 1 1.512-.244c1.315.254 3.756 2.892 4.92 2.16 1.569-11.202 8.348-73.944 8.348-73.944z"/></g><g><path fill="#3a3a3b" d="M114.13 130.66l5.634 80.704a3.099 3.099 0 0 1 1.83-.188c2.123.489 4.874 3.193 4.893 2.094 1.83-17.84 4.066-82.037 4.066-82.037z"/></g><g><path fill="url(#auaje)" d="M118.19 49.61c.253-5.248.056-17.765.056-17.765s-13.868-7.164-15.559 12.207c-.75 8.638 2.949 11.53 7.38 9.774.667 3.878-4.027 14.564-4.027 14.564l7.37-1.625 7.334-10.244a22.094 22.094 0 0 1-2.554-6.91z"/></g><g><path fill="url(#auajf)" d="M102.404 28.424s2.986 1.145 8.235 0c5.248-1.146 12.31 1.784 12.75 7.934a20.094 20.094 0 0 1-4.948 14.348s-1.23.44-1.361-3.756c-.131-4.197-.432-9.493-9.718-10.066-5.54-.394-6.667-4.338-4.958-8.46z"/></g><g><path fill="#fff" d="M132.827 74.69c-1.747-17.709-13.014-20.178-13.014-20.178s-.188-.216-.16.479c-.16 4.957-8.516 10.432-11.268 12.394-.234.178-.554.404-.535.113a46.44 46.44 0 0 1 2.038-10.329s-2.554 1.155-4.892 6.995C103.24 68.568 102 77.31 101.24 85.845c-1.296 14.967-2.31 47.578-2.31 47.578s5.634 2.572 9.765 4.46a25.596 25.596 0 0 0 4.385 1.577c12.667 2.732 19.578-1.878 22.535-5.174-1.727-26.46-1.032-41.887-2.788-59.596z"/></g><g><path fill="url(#auajg)" d="M158.713 22.726c0-.225 1.943-2.094 1.98-4.695.048-3.756-.224-4.385-3.755-4.695-1.09-.094-1.7.188-1.577 1.597-1.568-.601-.836 3.342-.63 4.31.77 3.661 2.254 4.6 2.254 4.6z"/></g><g><path fill="url(#auajh)" d="M160.683 16.494c0-1.812-.112-2.949-3.756-3.165-1.098-.065-1.568.188-1.577 1.597 0 2.056.169 3.06 1.878 3.633 1.709.573 3.502-.009 3.455-2.065z"/></g><g><path fill="#ecf6fa" d="M123.951 73.164c.827 1.878 3.118 4.038 4.47 3.822 1.164-.178 1.972-.78 4.394-2.347 9.587-6.198 14.085-11.334 18.226-17.165a52.17 52.17 0 0 0 5.821-12.3A74.178 74.178 0 0 0 159.97 21.7a7.953 7.953 0 0 1-2.817-.226 6.958 6.958 0 0 1-2.31-1.164s-3.248 12.413-5.418 18.357a38.432 38.432 0 0 1-5.427 10.328c-4.31 4.752-13.098 8.02-17.68 9.268-4.31 1.211-4.78 9.409-2.367 14.901z"/></g><g><path fill="#353536" d="M79.677 210.942a2.197 2.197 0 0 1-2.197-2.207V14.087a2.197 2.197 0 1 1 4.394 0v194.648a2.207 2.207 0 0 1-2.197 2.207z"/></g><g><path fill="#bc8dfc" d="M81.625 13.08c-.18-.38-.46-.704-.807-.94a2.188 2.188 0 0 0-1.202-.328 91.709 91.709 0 0 0-35.681 8.019C8.489 35.54-5.408 12.103 1.86 0c.319 2.103-10.235 32.948 16.788 56.019 22.038 18.78 63.259 12.206 63.259 12.206l-.057-53.52a4.282 4.282 0 0 0-.225-1.625z"/></g><g><path fill="#a67cde" d="M.305 10.272C.822 4.572 1.911.695 1.817 0A14.085 14.085 0 0 0 .305 10.272z"/></g></g></g></svg>