<?xml version="1.0" encoding="UTF-8"?>
<svg width="787px" height="554px" viewBox="0 0 787 554" version="1.1" xmlns="http://www.w3.org/2000/svg" xmlns:xlink="http://www.w3.org/1999/xlink">
    <!-- Generator: Sketch 55.2 (78181) - https://sketchapp.com -->
    <title>home page</title>
    <desc>Created with Sketch.</desc>
    <defs>
        <linearGradient x1="2.82601468%" y1="48.7443833%" x2="102.185932%" y2="48.8277663%" id="linearGradient-1">
            <stop stop-color="#A0E8F1" offset="1%"></stop>
            <stop stop-color="#A9EAF2" offset="18%"></stop>
            <stop stop-color="#C2F0F6" offset="47%"></stop>
            <stop stop-color="#EBFAFC" offset="84%"></stop>
            <stop stop-color="#FFFFFF" offset="100%"></stop>
        </linearGradient>
        <linearGradient x1="30.8606166%" y1="13.1878474%" x2="70.9906957%" y2="90.2594135%" id="linearGradient-2">
            <stop stop-color="#DDCBCA" offset="0%"></stop>
            <stop stop-color="#DCC9C8" offset="35%"></stop>
            <stop stop-color="#D8C2BF" offset="54%"></stop>
            <stop stop-color="#D1B5B2" offset="70%"></stop>
            <stop stop-color="#C7A39E" offset="84%"></stop>
            <stop stop-color="#BA8D84" offset="96%"></stop>
            <stop stop-color="#B5847B" offset="100%"></stop>
        </linearGradient>
        <linearGradient x1="76.6150843%" y1="55.1192365%" x2="15.0672076%" y2="21.8198482%" id="linearGradient-3">
            <stop stop-color="#C5E5FD" offset="0%"></stop>
            <stop stop-color="#CFEAFD" offset="27%"></stop>
            <stop stop-color="#EBF6FE" offset="73%"></stop>
            <stop stop-color="#FFFFFF" offset="100%"></stop>
        </linearGradient>
        <linearGradient x1="50.0141688%" y1="0.0150584928%" x2="50.0141688%" y2="100.022396%" id="linearGradient-4">
            <stop stop-color="#000000" offset="0%"></stop>
            <stop stop-color="#050505" offset="26%"></stop>
            <stop stop-color="#121212" offset="54%"></stop>
            <stop stop-color="#282828" offset="84%"></stop>
            <stop stop-color="#373737" offset="100%"></stop>
        </linearGradient>
        <linearGradient x1="50.0098071%" y1="0.014877452%" x2="50.0098071%" y2="100.01235%" id="linearGradient-5">
            <stop stop-color="#000000" offset="0%"></stop>
            <stop stop-color="#050505" offset="26%"></stop>
            <stop stop-color="#121212" offset="54%"></stop>
            <stop stop-color="#282828" offset="84%"></stop>
            <stop stop-color="#373737" offset="100%"></stop>
        </linearGradient>
        <linearGradient x1="59.5809429%" y1="29.0804897%" x2="41.7994749%" y2="63.3032073%" id="linearGradient-6">
            <stop stop-color="#1B1611" offset="0%"></stop>
            <stop stop-color="#1F1912" offset="34%"></stop>
            <stop stop-color="#2B2117" offset="69%"></stop>
            <stop stop-color="#3D2D1D" offset="100%"></stop>
        </linearGradient>
        <linearGradient x1="58.3104473%" y1="38.6187007%" x2="44.0288655%" y2="56.4894186%" id="linearGradient-7">
            <stop stop-color="#1B1611" offset="0%"></stop>
            <stop stop-color="#211A13" offset="33%"></stop>
            <stop stop-color="#322519" offset="77%"></stop>
            <stop stop-color="#3D2D1D" offset="100%"></stop>
        </linearGradient>
        <linearGradient x1="37.5621535%" y1="91.4209229%" x2="59.1815273%" y2="6.36692896%" id="linearGradient-8">
            <stop stop-color="#F6E2E1" offset="0%"></stop>
            <stop stop-color="#DBBBB7" offset="40%"></stop>
            <stop stop-color="#B5847B" offset="100%"></stop>
        </linearGradient>
        <linearGradient x1="101.297928%" y1="41.9213266%" x2="9.86464876%" y2="63.8002316%" id="linearGradient-9">
            <stop stop-color="#39291C" offset="0%"></stop>
            <stop stop-color="#443120" offset="31%"></stop>
            <stop stop-color="#62462B" offset="85%"></stop>
            <stop stop-color="#6B4D2F" offset="100%"></stop>
        </linearGradient>
        <linearGradient x1="45.9924033%" y1="66.2459629%" x2="55.3397554%" y2="36.1252762%" id="linearGradient-10">
            <stop stop-color="#C5E5FD" offset="0%"></stop>
            <stop stop-color="#C9E7FD" offset="26%"></stop>
            <stop stop-color="#D5ECFE" offset="53%"></stop>
            <stop stop-color="#E9F5FE" offset="79%"></stop>
            <stop stop-color="#FFFFFF" offset="100%"></stop>
        </linearGradient>
        <linearGradient x1="61.4511701%" y1="70.7193711%" x2="40.7942749%" y2="38.3992818%" id="linearGradient-11">
            <stop stop-color="#C5E5FD" offset="0%"></stop>
            <stop stop-color="#D1EAFD" offset="29%"></stop>
            <stop stop-color="#F0F8FE" offset="79%"></stop>
            <stop stop-color="#FFFFFF" offset="100%"></stop>
        </linearGradient>
        <linearGradient x1="14.7896637%" y1="15.2015148%" x2="85.2192716%" y2="84.7984852%" id="linearGradient-12">
            <stop stop-color="#6532AD" offset="1%"></stop>
            <stop stop-color="#5D2F9E" offset="17%"></stop>
            <stop stop-color="#4F2A83" offset="49%"></stop>
            <stop stop-color="#462774" offset="78%"></stop>
            <stop stop-color="#43266E" offset="100%"></stop>
        </linearGradient>
        <linearGradient x1="11.4279806%" y1="65.9047259%" x2="90.9776491%" y2="32.270184%" id="linearGradient-13">
            <stop stop-color="#DDCBCA" offset="0%"></stop>
            <stop stop-color="#DCC9C8" offset="35%"></stop>
            <stop stop-color="#D8C2BF" offset="54%"></stop>
            <stop stop-color="#D1B5B2" offset="70%"></stop>
            <stop stop-color="#C7A39E" offset="84%"></stop>
            <stop stop-color="#BA8D84" offset="96%"></stop>
            <stop stop-color="#B5847B" offset="100%"></stop>
        </linearGradient>
        <linearGradient x1="30.131867%" y1="47.2683946%" x2="56.0561878%" y2="73.8963944%" id="linearGradient-14">
            <stop stop-color="#C5E5FD" offset="0%"></stop>
            <stop stop-color="#CCE8FD" offset="24%"></stop>
            <stop stop-color="#DEF0FE" offset="57%"></stop>
            <stop stop-color="#FBFDFF" offset="96%"></stop>
            <stop stop-color="#FFFFFF" offset="100%"></stop>
        </linearGradient>
        <linearGradient x1="64.6483704%" y1="92.6429857%" x2="39.5563288%" y2="10.5382164%" id="linearGradient-15">
            <stop stop-color="#43282A" offset="0%"></stop>
            <stop stop-color="#3C2429" offset="29%"></stop>
            <stop stop-color="#281A26" offset="71%"></stop>
            <stop stop-color="#171124" offset="100%"></stop>
        </linearGradient>
        <linearGradient x1="99.9954879%" y1="50.0314817%" x2="-0.0151619424%" y2="50.0314817%" id="linearGradient-16">
            <stop stop-color="#7C5E40" offset="1%"></stop>
            <stop stop-color="#785A3C" offset="6%"></stop>
            <stop stop-color="#66492A" offset="35%"></stop>
            <stop stop-color="#5B3F1F" offset="65%"></stop>
            <stop stop-color="#583C1C" offset="100%"></stop>
        </linearGradient>
        <linearGradient x1="18774.8577%" y1="49.9885011%" x2="18874.9127%" y2="49.9885011%" id="linearGradient-17">
            <stop stop-color="#7C5E40" offset="1%"></stop>
            <stop stop-color="#785A3C" offset="6%"></stop>
            <stop stop-color="#66492A" offset="35%"></stop>
            <stop stop-color="#5B3F1F" offset="65%"></stop>
            <stop stop-color="#583C1C" offset="100%"></stop>
        </linearGradient>
        <linearGradient x1="50.2806409%" y1="110.554815%" x2="50.2267805%" y2="10.5953461%" id="linearGradient-18">
            <stop stop-color="#434244" offset="0%"></stop>
            <stop stop-color="#363435" offset="28%"></stop>
            <stop stop-color="#2B2829" offset="64%"></stop>
            <stop stop-color="#272425" offset="100%"></stop>
        </linearGradient>
        <linearGradient x1="50%" y1="100.000993%" x2="50%" y2="-5.00167031e-14%" id="linearGradient-19">
            <stop stop-color="#434244" offset="0%"></stop>
            <stop stop-color="#363435" offset="28%"></stop>
            <stop stop-color="#2B2829" offset="64%"></stop>
            <stop stop-color="#272425" offset="100%"></stop>
        </linearGradient>
        <linearGradient x1="62.8442126%" y1="90.8808882%" x2="40.4628946%" y2="6.14654945%" id="linearGradient-20">
            <stop stop-color="#F6DFDE" offset="0%"></stop>
            <stop stop-color="#F1D9D7" offset="17%"></stop>
            <stop stop-color="#E3C8C5" offset="42%"></stop>
            <stop stop-color="#CCACA7" offset="70%"></stop>
            <stop stop-color="#AF8880" offset="100%"></stop>
        </linearGradient>
        <linearGradient x1="54.2655353%" y1="66.0827188%" x2="44.8157633%" y2="35.3035272%" id="linearGradient-21">
            <stop stop-color="#A0E8F1" offset="1%"></stop>
            <stop stop-color="#AAEAF2" offset="9%"></stop>
            <stop stop-color="#D8F6F9" offset="50%"></stop>
            <stop stop-color="#F4FCFD" offset="82%"></stop>
            <stop stop-color="#FFFFFF" offset="100%"></stop>
        </linearGradient>
        <linearGradient x1="39.3562274%" y1="70.0263814%" x2="58.1850587%" y2="38.4901191%" id="linearGradient-22">
            <stop stop-color="#A0E8F1" offset="1%"></stop>
            <stop stop-color="#A8EAF2" offset="5%"></stop>
            <stop stop-color="#C8F2F7" offset="21%"></stop>
            <stop stop-color="#E0F8FA" offset="39%"></stop>
            <stop stop-color="#F1FCFD" offset="57%"></stop>
            <stop stop-color="#FCFEFF" offset="76%"></stop>
            <stop stop-color="#FFFFFF" offset="100%"></stop>
        </linearGradient>
        <linearGradient x1="91.9061237%" y1="36.1664388%" x2="12.7244972%" y2="2.46137659%" id="linearGradient-23">
            <stop stop-color="#F6DFDE" offset="0%"></stop>
            <stop stop-color="#F1D9D7" offset="17%"></stop>
            <stop stop-color="#E3C8C5" offset="42%"></stop>
            <stop stop-color="#CCACA7" offset="70%"></stop>
            <stop stop-color="#AF8880" offset="100%"></stop>
        </linearGradient>
        <linearGradient x1="33.0665856%" y1="8.68701097%" x2="33.0966061%" y2="107.99193%" id="linearGradient-24">
            <stop stop-color="#A0E8F1" offset="1%"></stop>
            <stop stop-color="#C9F2F7" offset="38%"></stop>
            <stop stop-color="#F0FBFD" offset="79%"></stop>
            <stop stop-color="#FFFFFF" offset="100%"></stop>
        </linearGradient>
        <linearGradient x1="0.621577867%" y1="78.0280273%" x2="83.8934828%" y2="4.42514102%" id="linearGradient-25">
            <stop stop-color="#171124" offset="0%"></stop>
            <stop stop-color="#171124" offset="14%"></stop>
            <stop stop-color="#171124" offset="100%"></stop>
        </linearGradient>
    </defs>
    <g id="Form-with-the-list" stroke="none" stroke-width="1" fill="none" fill-rule="evenodd">
        <g id="Home-Page_OLDNEW-STYLE-Copy" transform="translate(-972.000000, -1256.000000)" fill-rule="nonzero">
            <g id="home-page" transform="translate(972.000000, 1256.000000)">
                <g id="Shadow" opacity="0.215634301" transform="translate(17.000000, 440.000000)" fill="#43266E">
                    <g id="Group" opacity="0.5">
                        <path d="M353.227758,0.0113405142 C330.678261,0.0975144265 308.128764,0.829992682 285.625745,4.201547 C277.104809,5.47261221 268.824008,8.27326436 260.318564,9.39352522 C243.330915,11.6555904 226.645371,15.8565686 209.595752,17.7954817 C195.861551,19.3573838 182.073127,20.2729817 168.377658,22.2549816 C155.120124,24.1747847 141.737594,23.6241502 128.584884,20.6176773 C119.149883,18.3448404 109.676151,17.0630034 100.403822,13.4221556 C90.039265,9.33966653 78.7683897,6.42052525 67.9622928,6.52824264 C52.5548902,6.66827524 37.5502954,6.68981872 22.8013288,13.8961121 C17.6577816,16.4166991 11.3213033,20.5853621 7.38617981,25.8958294 C-1.61502777,38.0463511 -2.83119782,68.3687965 6.19324869,80.9717312 C21.3295306,102.181285 53.6238804,110.50784 74.8410126,110.906394 C98.0799306,111.337264 120.668159,109.010568 143.945809,107.674872 C165.573495,106.403807 187.154703,104.594155 208.821121,104.658785 C253.075768,104.788046 297.330414,104.658785 341.507597,100.684014 C383.004558,96.9354484 424.609968,98.2280571 466.223124,98.2280571 C508.874285,98.2280571 551.238832,98.6804702 593.580141,106.306861 C612.031842,109.635329 630.82438,110.798677 649.353544,113.136144 C665.961624,115.21509 681.88803,113.136144 698.457378,111.164916 C712.390284,109.60461 726.021095,104.680079 738.738169,96.6122963 C748.723158,90.1492528 766.531915,70.2215356 769.591706,54.8718075 C778.18236,11.8602535 648.578914,12.8620252 628.6864,12.9912861 C606.423516,13.0990035 583.990214,14.06846 561.742823,12.9912861 C552.385286,12.5173295 543.151689,10.0506013 534.034287,7.3468948 C524.916884,4.6431883 515.776243,5.34335134 506.550393,4.21231874 C468.089984,-0.494931221 429.536619,0.194460078 390.952268,0.194460078 C378.372267,0.108286166 365.807759,-0.042518181 353.227758,0.0113405142 Z" id="Path"></path>
                    </g>
                </g>
                <g id="Object">
                    <path d="M56.1839645,200.067376 C52.2407574,201.754043 52.3126154,203.054929 51.612,207.289539 C50.7137751,212.591773 56.6869704,220.092057 64.1242722,222.137589 C77.2832663,225.726241 93.9812663,226.237624 109.385822,224.362553 C116.149456,223.537163 123.829278,221.204539 131.931266,217.840177 C139.440426,214.735993 150.551467,210.725674 166.548852,198.102589 C165.533858,188.233794 160.872071,190.252411 160.872071,190.252411 L132.326485,200.69539 C122.975964,203.315106 113.284118,207.388227 101.077243,205.235035 C86.3194083,202.633262 71.2471953,193.65266 56.1839645,200.067376 Z" id="Path" fill="url(#linearGradient-1)"></path>
                    <path d="M631.380213,190.781738 C631.182604,190.395957 625.927988,187.76727 623.835124,180.912943 C622.65845,177.064113 621.984781,174.704574 621.625491,173.385745 C621.356461,172.376758 621.40031,171.309982 621.751243,170.326418 C622.649467,167.80539 624.787243,163.705355 628.146604,168.209113 C630.37675,171.20441 632.189733,174.488068 633.535953,177.970248 C633.535953,177.970248 631.793396,174.552057 631.676627,173.331915 C631.559858,172.111773 632.395207,169.626631 635.556959,178.391915 C637.982166,185.102695 635.170722,191.723759 635.170722,191.723759 L631.380213,190.781738 Z" id="Path" fill="url(#linearGradient-2)"></path>
                    <path d="M722.981183,199.412447 C722.981183,199.412447 733.427538,210.976879 715.067822,222.325993 C703.462757,229.503298 691.938533,233.038121 678.492107,235.514291 C671.791349,236.743404 670.524852,237.622624 663.797148,236.590887 C652.731018,234.913191 641.341527,213.632482 630.419112,192.100567 C632.215562,186.170319 638.332473,185.775567 638.332473,185.775567 L660.392876,212.179078 C661.091911,213.042078 661.952188,213.761175 662.92587,214.296383 C665.04568,215.444752 667.327172,215.346064 674.926154,212.349539 C690.591195,206.150142 706.337077,191.095745 722.981183,199.412447 Z" id="Path" fill="url(#linearGradient-3)"></path>
                    <path d="M699.824947,480.80766 C699.824947,480.80766 696.474568,477.882908 689.207929,480.951206 C681.94129,484.019504 676.408225,483.588865 674.099787,488.191312 C670.964982,496.26578 680.602935,495.368617 684.088047,494.821348 C687.57316,494.274078 699.546497,489.187163 700.804012,487.931135 C702.061527,486.675106 702.959751,481.965 699.824947,480.80766 Z" id="Path" fill="url(#linearGradient-4)"></path>
                    <path d="M724.229716,491.250638 C724.229716,491.250638 720.870355,488.325887 713.603716,491.394184 C706.337077,494.462482 700.309988,493.502518 698.00155,498.113936 C694.857763,506.188404 704.63045,506.134574 708.124544,505.578333 C711.618639,505.022092 723.951266,499.630142 725.190817,498.401028 C726.430367,497.171915 727.355538,492.407979 724.229716,491.250638 Z" id="Path" fill="url(#linearGradient-5)"></path>
                    <path d="M684.447337,390.104468 L690.923538,480.350106 C691.790314,479.833871 692.822558,479.670063 693.80684,479.892553 C696.312888,480.359078 701.03755,485.392163 703.202272,483.992589 C706.14845,462.631135 713.136639,388.893298 713.136639,388.893298 L684.447337,390.104468 Z" id="Path" fill="url(#linearGradient-6)"></path>
                    <path d="M706.238272,394.204504 L714.762426,490.945603 C715.863442,490.474259 717.081316,490.346049 718.256521,490.577766 C722.307515,491.474929 727.544166,496.65156 727.580095,494.56117 C731.074189,460.648404 735.861728,393.092021 735.861728,393.092021 L706.238272,394.204504 Z" id="Path" fill="url(#linearGradient-7)"></path>
                    <path d="M716.900201,182.814929 L715.561846,153.334149 C715.561846,153.334149 687.231834,139.105142 687.977361,175.556879 C688.219882,187.632695 695.630237,199.197128 702.438781,193.195106 C703.166343,202.462801 694.121219,222.442624 694.121219,222.442624 L711.187491,213.121099 L719.549964,196.003227 L716.900201,182.814929 Z" id="Path" fill="url(#linearGradient-8)"></path>
                    <path d="M682.722746,151.979433 C682.722746,151.979433 689.225893,153.710957 697.552438,149.673723 C705.878982,145.636489 718.463112,146.085071 721.705704,156.231986 C725.460284,167.895106 720.277527,182.98539 718.265503,186.269049 C718.265503,186.269049 713.666592,186.349752 711.735408,179.405709 C709.804225,172.461667 704.396911,168.496206 695.863775,167.258121 C686.917456,165.975177 682.067041,163.113227 682.722746,151.979433 Z" id="Path" fill="url(#linearGradient-9)"></path>
                    <path d="M700.714189,216.521348 L700.714189,216.315 C698.262036,217.831206 696.501515,218.746312 696.501515,218.746312 L702.043562,199.412447 C702.043562,199.412447 695.064355,202.669149 691.660083,212.744291 C688.758817,221.303227 664.318118,386.479929 664.318118,386.479929 C664.318118,386.479929 662.611491,391.082376 678.689716,405.006348 C681.65871,407.404891 685.019347,409.274426 688.624083,410.532872 L700.714189,216.521348 Z" id="Path" fill="url(#linearGradient-10)"></path>
                    <path d="M676.740568,403.436312 C677.279503,403.929752 677.638793,404.333475 678.240604,404.835887 C696.025456,420.769504 756.889172,415.30578 758.182615,395.864255 C756.017893,372.448298 750.098592,270.458794 746.748213,236.725461 C743.397834,202.992128 720.241598,193.428369 720.241598,193.428369 C720.241598,193.428369 718.005018,192.450461 719.199657,194.325532 C718.786473,207.40617 696.564391,218.683511 696.564391,218.683511 C696.564391,218.683511 691.749905,228.345957 684.411408,313.127872 C680.58497,356.981206 676.956142,385.49305 676.740568,403.436312 Z" id="Path" fill="url(#linearGradient-11)"></path>
                    <path d="M137.428402,237.407305 C139.078461,200.121709 149.15686,163.692807 166.908142,130.851241 L166.908142,130.761525 L167.222521,130.232199 C169.250718,126.11041 171.539842,122.121913 174.075976,118.290957 C217.980244,46.9327391 294.917928,2.46382175 378.736509,0 L378.790402,0 L379.410178,0 L379.410178,45.5938298 C380.260133,47.4867858 381.888569,48.9197995 383.875745,49.5235036 C385.862922,50.1272078 388.014425,49.842539 389.775692,48.7428723 C399.719041,42.5524468 412.01574,41.1349291 418.779373,52.618617 C424.267527,61.9311702 420.746485,74.706773 411.234284,79.8744326 C403.419728,84.1180142 396.530343,80.6370213 389.533172,76.653617 C387.771771,75.6488532 385.667257,75.4344539 383.739033,76.0633337 C381.810809,76.6922136 380.238507,78.105787 379.410178,79.9551773 L379.410178,124.983794 L378.790402,124.983794 L378.718544,124.938936 C339.597267,127.291094 303.894258,147.984276 282.437822,180.742482 L275.647243,192.71961 L275.332864,193.257908 L275.261006,193.257908 C268.337607,207.044981 264.071759,222.009536 262.685858,237.371418 L225.616118,237.371418 C227.182797,234.131261 227.999394,230.580501 228.005396,226.98227 C228.005396,212.932695 215.825467,201.547695 200.81613,201.547695 C185.806793,201.547695 173.635846,212.941667 173.635846,226.98227 C173.64485,230.594697 174.470818,234.158418 176.052071,237.407305 L137.428402,237.407305 Z M183.166012,253.502411 L136.754734,253.502411 C137.589055,293.150753 147.850579,332.032644 166.692568,366.939716 L166.692568,366.939716 C168.663283,371.09377 170.98302,375.07348 173.626864,378.836099 L173.626864,378.836099 L173.941243,379.374397 L173.986154,379.374397 C218.022725,450.632899 295.028068,494.948175 378.835314,497.261631 L378.835314,458.979681 C373.466942,461.055111 367.603269,461.495303 361.984615,460.244681 C355.589254,458.674645 350.307692,454.57461 346.62497,448.375213 C342.914057,441.869201 341.951785,434.154368 343.951079,426.937804 C345.950373,419.72124 350.746397,413.59793 357.277917,409.922801 C365.308047,405.562589 372.772296,406.773759 378.790402,409.169184 L378.790402,372.322695 C339.748857,370.232543 304.012655,349.774175 282.473751,317.18305 L282.26716,316.860071 L281.961763,316.321773 L281.961763,316.321773 C280.165314,313.630284 275.018485,304.434362 275.018485,304.434362 L274.865787,304.236986 C266.939679,288.440573 262.472241,271.139391 261.760686,253.484468 L217.568024,253.484468 C215.716445,252.657118 214.301198,251.086674 213.671574,249.16073 C213.04195,247.234785 213.256603,245.132758 214.262556,243.37344 C218.259657,236.384539 221.735787,229.503298 217.487183,221.697979 C212.313408,212.197021 199.522686,208.680142 190.199112,214.161809 C178.746746,220.93539 180.12103,233.262411 186.327763,243.131206 C187.435218,244.891718 187.723906,247.045396 187.119117,249.034883 C186.514328,251.024369 185.075501,252.654136 183.174994,253.502411 L183.166012,253.502411 Z M600.148935,259.854326 C601.721617,263.101946 602.538426,266.662826 602.538213,270.27039 C602.538213,284.319965 590.367266,295.704965 575.357929,295.704965 C560.348592,295.704965 548.168663,284.319965 548.168663,270.27039 C548.189573,266.659167 549.024632,263.099031 550.611834,259.854326 L513.479219,259.854326 C512.089103,275.215426 507.823476,290.179211 500.904071,303.967837 L500.832213,304.012695 L500.517834,304.542021 L493.727254,316.519149 C472.274527,349.272471 436.579307,369.964999 397.464497,372.322695 L397.392639,372.277837 L396.772864,372.277837 L396.772864,417.306454 C395.944535,419.155844 394.372232,420.569418 392.444009,421.198297 C390.515785,421.827177 388.41127,421.612778 386.64987,420.608014 C379.652698,416.62461 372.763314,413.143617 364.939775,417.39617 C355.436556,422.554858 351.915515,435.339433 357.394686,444.643014 C364.15832,456.126702 376.464,454.709184 386.407349,448.518759 C388.168616,447.419092 390.320119,447.134423 392.307296,447.738128 C394.294473,448.341832 395.922908,449.774845 396.772864,451.667801 L396.772864,497.261631 L397.392639,497.261631 L397.43755,497.261631 C481.234748,494.788713 558.151161,450.332449 602.053172,378.997589 C604.585648,375.164382 606.874637,371.176121 608.906627,367.056348 L609.212024,366.51805 L609.265917,366.428333 C627.015522,333.586604 637.090933,297.157404 638.736675,259.87227 L600.148935,259.854326 Z M592.963136,243.75922 L639.383396,243.75922 C638.543178,204.113428 628.278711,165.235127 609.43658,130.330887 L609.43658,130.330887 C607.471991,126.179859 605.167706,122.197888 602.547195,118.425532 L602.547195,118.425532 L602.241799,117.887234 L602.196888,117.887234 C558.153277,46.6359804 481.152226,2.32317547 397.347728,0 L397.347728,38.290922 C402.70448,36.221418 408.553186,35.7751699 414.162497,37.0079787 C420.557858,38.5780142 425.83942,42.6780496 429.522142,48.8774468 C433.23519,55.3853655 434.197699,63.103209 432.196549,70.3220742 C430.195398,77.5409395 425.395699,83.665208 418.860213,87.3388298 C410.830083,91.6990426 403.374817,90.4789007 397.302817,88.0834752 L397.302817,124.867163 C436.345919,126.960183 472.083656,147.417522 493.62845,180.006809 L493.826059,180.338759 L494.140438,180.868085 L494.140438,180.868085 C495.936888,183.559574 501.083716,192.755496 501.083716,192.755496 L501.236414,192.952872 C509.158586,208.753953 513.625767,226.057194 514.341515,243.714362 L558.606036,243.714362 C560.478036,244.539581 561.909025,246.122798 562.540123,248.066956 C563.171221,250.011113 562.942567,252.131798 561.911503,253.897163 C557.923385,260.877092 554.447254,267.758333 558.695858,275.572624 C563.860651,285.06461 576.660355,288.581489 585.983929,283.108794 C597.472225,276.344184 596.062012,264.062021 589.855278,254.130426 C588.747824,252.369913 588.459136,250.216235 589.063925,248.226749 C589.668714,246.237262 591.107541,244.607495 593.008047,243.75922 L592.963136,243.75922 Z" id="Shape" fill="url(#linearGradient-12)"></path>
                    <path d="M649.236923,294.19773 C648.841704,294.368191 645.850615,299.428191 638.907337,301.043085 C631.964059,302.657979 629.790355,303.016844 629.790355,303.016844 C629.790355,303.016844 620.053598,300.047234 626.511834,295.90234 C629.651973,293.876055 633.054852,292.288312 636.625846,291.183262 C636.625846,291.183262 633.08684,292.681525 631.865254,292.726383 C630.643669,292.771241 628.218462,291.757447 637.182746,289.19156 C644.045183,287.226773 650.476473,290.474504 650.476473,290.474504 L649.236923,294.19773 Z" id="Path" fill="url(#linearGradient-13)"></path>
                    <path d="M723.56503,207.038333 C727.3146,204.93949 731.877706,204.898886 735.664118,206.930674 C740.388781,209.505532 744.34097,220.145887 741.376828,227.26039 C736.122213,239.820674 726.834568,251.259504 715.85826,262.249752 C711.043775,267.058546 701.172284,273.724468 695.369751,277.277234 C685.812639,283.108794 669.635609,291.380638 651.248947,294.987234 C644.117041,288.132908 648.554272,285.683652 648.554272,285.683652 L679.444225,265.560284 C687.276746,259.81844 688.426473,261.433333 694.282899,250.505887 C701.324982,237.281702 709.202414,214.906454 723.56503,207.038333 Z" id="Path" fill="url(#linearGradient-14)"></path>
                    <path d="M72.2711716,189.588511 L62.2918935,178.131738 C55.2587929,176.337411 44.8214201,176.095177 41.3902012,183.801809 C39.1266746,188.879752 44.7765089,193.93078 25.3299408,198.317908 C5.88337278,202.705035 7.18579882,213.73117 10.3026391,223.393617 C13.0961183,231.93461 1.46410651,233.262411 0.907207101,239.093972 C0.520970414,243.185035 2.10184615,250.622518 14.1111124,251.394078 C23.3089349,251.986206 23.3089349,259.100709 26.5694911,264.582376 C30.1623905,270.620284 46.6627811,271.849397 43.9231953,250.945496 C42.504,240.107766 62.1032663,226.255567 68.8758817,220.092057 C75.648497,213.928546 73.8161183,201.879645 73.3670059,194.890745 C73.3041302,193.419397 72.4418343,191.472553 72.2711716,189.588511 Z" id="Path" fill="url(#linearGradient-15)"></path>
                    <path d="M82.2953609,479.031277 C82.2953609,479.031277 85.6457396,476.097553 92.9123787,479.174823 C100.179018,482.252092 105.712083,481.803511 108.020521,486.414929 C111.164308,494.489397 101.526355,493.592234 98.0322604,493.044965 C94.5381657,492.497695 82.5738107,487.41078 81.3162959,486.154752 C80.0587811,484.898723 79.1695385,480.188617 82.2953609,479.031277 Z" id="Path" fill="url(#linearGradient-16)"></path>
                    <path d="M57.899574,489.474255 C57.899574,489.474255 61.2499527,486.549504 68.5165917,489.617801 C75.7832308,492.686099 81.8193018,491.726135 84.1277396,496.328582 C87.2715266,504.40305 77.489858,504.358191 73.9957633,503.80195 C70.5016686,503.245709 58.1780237,497.853759 56.9294911,496.624645 C55.6809586,495.395532 54.791716,490.631596 57.899574,489.474255 Z" id="Path" fill="url(#linearGradient-17)"></path>
                    <path d="M97.6729704,388.328085 L91.2057515,478.573723 C90.3361982,478.056046 89.3006226,477.89222 88.3134675,478.11617 C85.8164024,478.582695 81.1276686,483.61578 78.9270178,482.216206 C75.9808402,460.854752 68.9836686,387.116915 68.9836686,387.116915 L97.6729704,388.328085 Z" id="Path" fill="url(#linearGradient-18)"></path>
                    <path d="M75.8820355,392.428121 L67.3668639,489.16922 C66.2628143,488.697908 65.0429897,488.566698 63.863787,488.792411 C59.8127929,489.689574 54.5851243,494.875177 54.5491953,492.784787 C51.0551006,458.872021 46.2585799,391.315638 46.2585799,391.315638 L75.8820355,392.428121 Z" id="Path" fill="url(#linearGradient-19)"></path>
                    <path d="M65.2290888,181.038546 L66.5584615,151.557766 C66.5584615,151.557766 94.8525444,137.77734 95.5441775,169.581773 C95.3958797,174.198315 94.032756,178.6944 91.5919882,182.617553 C89.6158935,185.84734 87.5320118,193.482199 79.3222367,189.139929 C78.6036568,198.398652 88.0260355,220.702128 88.0260355,220.702128 L70.9597633,211.389574 L62.5883077,194.271702 L65.2290888,181.038546 Z" id="Path" fill="url(#linearGradient-20)"></path>
                    <path d="M80.5168757,232.105071 L81.4151006,214.529645 C83.8762367,216.045851 85.6277751,216.969929 85.6277751,216.969929 L80.0947101,197.627092 C80.0947101,197.627092 87.0649349,200.892766 90.4781893,210.967908 C93.3794556,219.526844 114.56858,377.490355 114.56858,377.490355 C114.56858,377.490355 117.909976,379.535887 101.795822,393.459858 C99.2897751,395.648936 95.3196213,390.265957 88.0260355,379.5 L80.5168757,232.105071 Z" id="Path" fill="url(#linearGradient-21)"></path>
                    <path d="M103.762935,391.889823 C103.224,392.383262 102.86471,392.786986 102.271882,393.298369 C84.4780473,409.231986 31.0695976,398.824894 31.4648166,386.973369 C33.6385207,363.557411 36.432,266.627908 39.7733964,232.894574 C43.1147929,199.161241 61.9236213,191.669929 61.9236213,191.669929 C61.9236213,191.669929 64.1602012,190.692021 62.9565799,192.61195 C63.3787456,205.692589 85.5918462,216.969929 85.5918462,216.969929 C85.5918462,216.969929 90.4153136,226.623404 97.7538107,311.414291 C101.54432,355.204823 103.547361,373.94656 103.762935,391.889823 Z" id="Path" fill="url(#linearGradient-22)"></path>
                    <path d="M130.242604,289.039043 C130.637822,289.209504 133.628911,294.260532 140.572189,295.884397 C147.515467,297.508262 149.707136,297.858156 149.707136,297.858156 C149.707136,297.858156 159.443893,294.897518 152.985657,290.743652 C149.844101,288.722166 146.44148,287.137562 142.871645,286.033546 C142.871645,286.033546 146.401669,287.531809 147.632237,287.567695 C148.862805,287.603582 151.27903,286.60773 142.314746,284.041844 C135.452308,282.077057 129.021018,285.324787 129.021018,285.324787 L130.242604,289.039043 Z" id="Path" fill="url(#linearGradient-23)"></path>
                    <path d="M60.1810651,204.077695 C56.3905562,202.041135 53.6060592,201.592553 50.094,204.077695 C44.1567337,208.222589 42.9710769,221.069965 45.9352189,228.175496 C51.1898343,240.73578 55.9234793,245.069078 66.899787,256.032411 C71.7142722,260.841206 83.6426982,269.489858 89.4452308,273.015709 C99.0023432,278.84727 110.409799,284.67883 128.284473,289.828546 C135.407396,282.97422 130.979148,280.524965 130.979148,280.524965 L104.30187,262.581702 C96.4693491,256.839858 95.3196213,258.454752 89.4631953,247.527305 C82.3851834,234.321064 70.0615385,209.379929 60.1810651,204.077695 Z" id="Path" fill="url(#linearGradient-24)"></path>
                    <path d="M96.8016923,160.520426 C102.34374,151.387305 97.4753609,144.075426 85.6098107,145.780035 C82.7893846,146.183759 73.8520473,142.738652 66.3249231,146.964291 C60.935574,150.005674 55.7887456,154.141596 55.5462249,168.890957 L55.5462249,168.890957 C56.130071,174.62383 57.5313018,183.155851 63.6302485,184.483652 L64.2500237,184.74383 C64.9955503,184.74383 66.899787,184.088901 74.7772189,169.922695 C77.0048166,165.921348 79.1785207,164.826809 81.4510296,164.144965 C88.0260355,162.198121 93.2896331,166.307128 96.8016923,160.520426 Z" id="Path" fill="url(#linearGradient-25)"></path>
                    <path d="M543.156568,399.040213 L540.919988,399.040213 L540.919988,358.865248 C540.910139,358.224621 540.384755,357.711875 539.743314,357.716843 L530.114343,357.716843 C529.807031,357.714491 529.511357,357.83414 529.29237,358.049502 C529.073384,358.264865 528.949024,358.5583 528.946651,358.865248 L528.946651,399.013298 L522.982438,399.013298 L522.982438,372.62773 C522.980065,372.320782 522.855705,372.027348 522.636718,371.811985 C522.417731,371.596622 522.122057,371.476973 521.814746,371.479362 L512.185775,371.479362 C511.544334,371.474358 511.01895,371.987103 511.009101,372.62773 L511.009101,399.049184 L505.05387,399.049184 L505.05387,369.263369 C505.051497,368.95642 504.927137,368.662986 504.70815,368.447623 C504.489163,368.23226 504.193489,368.112611 503.886178,368.115 L494.257207,368.115 C493.615766,368.109996 493.090382,368.622742 493.080533,369.263369 L493.080533,399.040213 L490.83497,399.040213 C490.199993,399.040213 489.685243,399.554355 489.685243,400.188582 C489.685243,400.822808 490.199993,401.33695 490.83497,401.33695 L543.156568,401.33695 C543.791545,401.33695 544.306296,400.822808 544.306296,400.188582 C544.306296,399.554355 543.791545,399.040213 543.156568,399.040213 L543.156568,399.040213 Z M503.17658,399.506738 L494.966805,399.506738 L494.966805,369.954184 L503.17658,369.954184 L503.17658,399.506738 Z M520.638071,399.040213 L513.353467,399.040213 L513.353467,373.767128 L520.638071,373.767128 L520.638071,399.040213 Z M538.602568,399.040213 L531.308982,399.040213 L531.308982,360.040532 L538.602568,360.040532 L538.602568,399.040213 Z" id="Shape" fill="#FFFFFF"></path>
                    <g id="Path" transform="translate(500.311243, 340.921986)" fill="#FFFFFF">
                        <path d="M34.8331598,1.46237589 L34.8331598,8.72939716 C34.8331598,9.37848842 34.3063446,9.90468085 33.6564852,9.90468085 C33.0066258,9.90468085 32.4798107,9.37848842 32.4798107,8.72939716 L32.4798107,3.63351064 L31.2222959,5.49960993 C25.5648894,10.9351903 18.8000881,15.0878101 11.3894911,17.6741135 C8.23329623,18.8323375 4.95417776,19.6240551 1.61680473,20.0336525 L1.56291124,20.0336525 C0.964801311,20.0263162 0.461394122,19.5844509 0.377254438,18.9929433 C0.332859752,18.3712084 0.775054519,17.8200955 1.39224852,17.7279433 C3.85375604,17.4455234 6.28160063,16.9226664 8.64092308,16.1668794 L10.7248047,15.4670922 C15.3251522,13.8358634 19.6777878,11.5775836 23.6592426,8.75631206 C25.7531157,7.28542804 27.7264589,5.65041927 29.5605799,3.86677305 L30.8450414,2.61971631 L26.2910414,2.61971631 C25.6511035,2.61971631 25.1323314,2.10155735 25.1323314,1.46237589 C25.1323314,0.823194419 25.6511035,0.305035421 26.2910414,0.305035421 L33.647503,0.305035421 C34.2919425,0.305035421 34.8185134,0.818864329 34.8331598,1.46237589 L34.8331598,1.46237589 Z"></path>
                    </g>
                    <g id="pay" transform="translate(486.837870, 93.304965)" fill="#FFFFFF">
                        <path d="M49.2586509,43.9609929 C47.7226864,41.4309929 44.4351834,41.3592199 41.8213491,43.2432624 L31.2492426,50.9498936 C31.1113393,51.0216985 30.9470157,51.0216985 30.8091124,50.9498936 L25.8598935,48.6352128 L29.2551834,48.2135461 C30.1736248,48.0591173 31.0006117,47.566073 31.5726036,46.8319149 C32.2894116,45.7103084 32.2894116,44.2751526 31.5726036,43.1535461 C30.9398707,42.357159 29.9766469,41.8943001 28.9587692,41.8975177 L25.3658698,41.8975177 L17.0123787,41.0452128 C16.8467275,41.0362962 16.6811391,41.0638617 16.5273373,41.1259574 L11.0751124,43.4765248 C10.9111299,43.5491107 10.7334986,43.5858186 10.554142,43.5841844 L1.05990533,43.5841844 C0.80023787,43.581794 0.550256175,43.6825378 0.364958965,43.8642509 C0.179661755,44.045964 0.0742293315,44.2937598 0.0718579882,44.5531206 L0.0718579882,44.5531206 C0.0718579882,44.8140398 0.176230292,45.0641438 0.3617879,45.2477972 C0.547345508,45.4314506 0.798688319,45.5334221 1.05990533,45.5310284 L10.9852899,45.5310284 C11.1216263,45.5364044 11.2572362,45.5086988 11.3805089,45.4502837 L16.626142,43.1894326 C16.886348,43.0774546 17.1701677,43.0312343 17.4525089,43.0548582 L25.1592781,43.8353901 L25.2491006,43.8353901 L28.842,43.8353901 C29.5429348,43.8353727 30.1125431,44.4003011 30.1174793,45.1003901 L30.1174793,45.1003901 C30.1170719,45.7431844 29.6340965,46.2834774 28.9946982,46.3564184 L25.6353373,46.7063121 L20.3178462,46.1500709 C20.0536029,46.1200554 19.7885041,46.1986992 19.5835057,46.3679191 C19.3785073,46.537139 19.2512497,46.7823735 19.2309941,47.047234 C19.1820632,47.4669129 19.4110411,47.8698733 19.7968757,48.0430851 L30.7192899,53.13 C31.0467773,53.280696 31.4297233,53.2465448 31.7253018,53.0402837 L42.9710769,44.858156 C43.9941222,44.117529 45.278003,43.831838 46.5190651,44.0686525 C46.8542763,44.1344504 47.1230999,44.3844818 47.2126643,44.7137653 C47.3022287,45.0430488 47.1970271,45.3945738 46.9412308,45.6207447 L32.2552544,58.3156028 C31.8424715,58.6759124 31.3123954,58.8736586 30.7642012,58.871844 L27.8449704,58.871844 C27.3684046,58.8759146 26.8955782,58.7875548 26.4527219,58.6116667 L11.3266154,53.0043972 C11.2145846,52.9633929 11.0954974,52.9450935 10.9763077,52.9505674 L1.05990533,52.9505674 C0.80023787,52.948177 0.550256175,53.0489207 0.364958965,53.2306339 C0.179661755,53.412347 0.0742293315,53.6601428 0.0718579882,53.9195035 L0.0718579882,53.9195035 C0.0718579882,54.1804228 0.176230292,54.4305268 0.3617879,54.6141802 C0.547345508,54.7978335 0.798688319,54.8998051 1.05990533,54.8974113 L10.4643195,54.8974113 C10.6852396,54.8962385 10.9044813,54.935777 11.1110414,55.0140426 L25.841929,60.4687943 C26.3673099,60.6825003 26.9275056,60.7980561 27.4946627,60.8097482 L30.9258817,60.8097482 C31.675417,60.812663 32.4115152,60.6110181 33.0546746,60.2265603 L48.5670178,46.7691135 C49.3983447,46.0916229 49.6804135,44.9463872 49.2586509,43.9609929 Z" id="Path"></path>
                        <path d="M35.3451479,2.9337234 L49.8874083,6.36088652 C50.4126097,6.48735676 50.9053167,6.72272073 51.3335503,7.05170213 L58.6540828,12.7666312 C58.8609579,12.9294186 59.1243389,13.0029759 59.3857448,12.9709705 C59.6471506,12.9389651 59.8849462,12.8040458 60.0463314,12.5961702 L60.0463314,12.5961702 C60.380605,12.1561691 60.3007268,11.5298665 59.8666864,11.1876241 L51.7287692,4.85365248 C51.6125913,4.76787143 51.4816952,4.70402097 51.3425325,4.66524823 L35.1744852,0.825390071 C34.6082028,0.628026699 33.9825957,0.70076262 33.4768402,1.02276596 L22.8867692,8.73836879 C17.9044397,9.46591549 14.249155,13.7927423 14.3692993,18.8206525 C14.4894437,23.8485628 18.3472317,27.9962853 23.3586385,28.4855911 C28.3700453,28.9748969 32.9589901,25.6519 34.0517041,20.7424113 L36.8272189,20.7424113 L46.2855266,21.6395745 C46.7931196,21.6909832 47.2651212,21.9235197 47.6148994,22.2945035 L52.3485444,27.2647872 C52.5319532,27.4611187 52.7893067,27.5717476 53.058142,27.5698227 L59.0852308,27.5698227 C59.3464588,27.5698337 59.5968588,27.4655738 59.7807295,27.2802355 C59.9646002,27.0948972 60.0666924,26.8438515 60.0642959,26.5829433 L60.0642959,26.5829433 C60.066689,26.3212033 59.9648796,26.0692352 59.781267,25.8824746 C59.5976543,25.6957139 59.3472806,25.5894608 59.0852308,25.5870922 L53.9743314,25.5870922 C53.6556513,25.5875612 53.3506246,25.457916 53.13,25.228227 L48.2436568,20.0605674 C48.0768393,19.8798633 47.8504468,19.7652084 47.6059172,19.7375887 L36.8990769,18.7596809 L33.1534793,18.8404255 C32.7211622,18.8389722 32.3087588,18.6587248 32.0143255,18.3425407 C31.7198921,18.0263565 31.5697327,17.6024824 31.5995503,17.1717021 L31.5995503,17.1717021 C31.6597799,16.3839995 32.2287132,15.7283139 33.0007811,15.5568085 L36.4409822,15.0543972 C36.7361069,14.9828564 37.0440824,14.9828564 37.3392071,15.0543972 L42.3153728,16.1758511 C42.4254277,16.193768 42.5376611,16.193768 42.647716,16.1758511 L47.9741893,14.7045035 C48.5250196,14.6433021 48.9248585,14.1520817 48.8724142,13.6009929 L48.8724142,13.6009929 C48.8111404,13.0508138 48.3193386,12.6514475 47.7675976,12.7038298 L42.6028047,14.157234 L37.1595621,12.9281206 C37.0241596,12.8923715 36.8817812,12.8923715 36.7463787,12.9281206 L33.0367101,13.672766 C32.4656333,12.6519299 31.7174547,11.7405954 30.8270769,10.9812766 L34.914,8.94471631 C35.1974315,8.80655305 35.5287933,8.80655305 35.8122249,8.94471631 L47.4083077,14.6237589 C47.9192552,14.826162 48.4978239,14.5773505 48.7017515,14.0675177 L48.7017515,14.0675177 C48.8991352,13.5572619 48.6516102,12.9830448 48.1448521,12.7756028 L35.6864734,6.69283688 C35.4265331,6.57615768 35.129029,6.57615768 34.8690888,6.69283688 L28.9228402,9.67141844 L28.9228402,9.67141844 C28.0736024,9.24180554 27.1656287,8.93950539 26.2281657,8.77425532 L33.8361302,3.21184397 C34.281091,2.9198897 34.8251698,2.81961289 35.3451479,2.9337234 Z M31.1414556,14.498156 C31.3211006,14.9287943 31.2492426,14.4174113 31.2402604,14.498156 C30.7083341,14.8355532 30.2770851,15.3096762 29.9917278,15.8708156 C29.5423759,16.7972257 29.5423759,17.8781289 29.9917278,18.804539 C30.3922634,19.6732798 31.1484901,20.3272476 32.0666272,20.5988652 C30.8648103,24.8568928 26.4713039,27.3701994 22.1861538,26.2509929 C18.7217858,25.297177 16.3220723,22.1494605 16.3229018,18.5601356 C16.3237317,14.9708107 18.7249003,11.8242014 22.1897089,10.8719834 C25.6545175,9.91976549 29.3293199,11.3965427 31.1684024,14.4802128 L31.1414556,14.498156 Z" id="Shape"></path>
                    </g>
                    <g id="in-time" transform="translate(219.166864, 93.304965)" fill="#FFFFFF">
                        <path d="M29.2551834,5.74184397 L29.2551834,2.82606383 L28.7072663,2.82606383 C22.1044239,3.27016003 15.8929108,6.11373831 11.2457751,10.8197872 C6.63634942,15.4783997 3.83480534,21.6217921 3.34139645,28.1529787 L3.34139645,28.682305 L6.7007574,28.682305 C7.41014592,28.682305 7.98521893,29.2566982 7.98521893,29.9652482 C7.98521893,30.6737982 7.41014592,31.2481915 6.7007574,31.2481915 L3.32343195,31.2481915 L3.32343195,31.7775177 C3.67652925,38.5272798 6.49894801,44.9125178 11.2547574,49.7207801 C15.9062661,54.4362641 22.1298311,57.2809697 28.7431953,57.7145035 L29.2911124,57.7145035 L29.2911124,54.1258511 C29.2508946,53.6501245 29.4822513,53.1923054 29.8893248,52.9420814 C30.2963983,52.6918573 30.8098384,52.6918573 31.2169119,52.9420814 C31.6239854,53.1923054 31.8553421,53.6501245 31.8151243,54.1258511 L31.8151243,59.0602482 C31.815193,59.7618497 31.2509903,60.3333789 30.5486272,60.3432316 C22.6268055,60.3562465 15.0339098,57.1803787 9.48525444,51.5330496 C3.8910002,45.8928638 0.75592326,38.2724414 0.763491124,30.3330851 C0.738528693,30.2209818 0.723500211,30.1069004 0.718579882,29.9921631 C0.721989437,29.8802572 0.737040799,29.7690088 0.763491124,29.6602128 L0.763491124,29.5525532 C0.934553675,21.8494606 4.0522711,14.5041971 9.47627219,9.02546099 C15.0269013,3.3886615 22.6149782,0.21992197 30.5306627,0.233220459 C31.2315802,0.238192737 31.7971771,0.807127739 31.7971598,1.50723404 L31.7971598,5.7508156 C31.7972285,6.45241706 31.2330258,7.02394626 30.5306627,7.03375887 C30.1884903,7.03626038 29.8598649,6.90036289 29.6196039,6.65700593 C29.3793429,6.41364898 29.2478938,6.08354348 29.2551834,5.74184397 Z" id="Path"></path>
                        <path d="M57.4863905,43.8981915 C59.7142152,39.6454171 60.8791001,34.9175118 60.8816805,30.117766 C60.9112743,23.4369962 58.6584368,16.9459861 54.4953018,11.7169504 C50.4210251,6.57010274 44.7702491,2.89876129 38.4080947,1.265 C37.9700596,1.14961078 37.5036662,1.27639948 37.1846004,1.59760601 C36.8655346,1.91881254 36.7422701,2.38563799 36.8612394,2.82223372 C36.9802088,3.25882944 37.3233377,3.59886616 37.7613728,3.71425532 C45.8504963,5.75008636 52.5593279,11.3765156 55.9663249,18.9820219 C59.3733219,26.5875281 59.1026541,35.3331384 55.2318462,42.7139362 C53.4743313,46.019462 51.0669262,48.9366687 48.1538343,51.2908156 L47.6777751,51.6855674 L44.4082367,45.1901064 C44.1847856,44.7617361 43.7421018,44.4922946 43.2585089,44.4903191 L43.1147929,44.4903191 C42.5947318,44.5336255 42.1535444,44.8890012 42.0009941,45.3874823 L38.4080947,56.1534397 C38.1988266,56.8212947 38.5560199,57.5348369 39.216497,57.7683333 L49.9951953,61.3569858 C50.4894729,61.494756 51.0194239,61.3459916 51.3694793,60.9712057 C51.7023284,60.5852346 51.7729813,60.038322 51.5491243,59.5806028 L48.755645,54.0720213 L49.0879882,53.8208156 C52.5737376,51.159662 55.4392489,47.7740905 57.4863905,43.8981915 Z M41.3183432,55.6958865 L43.5279763,49.0658511 L48.0191006,57.8939362 L41.3183432,55.6958865 Z" id="Shape"></path>
                        <path d="M45.8094675,30.7278369 C45.8069081,31.3552018 45.3443778,31.8859102 44.7226154,31.9748936 L34.2044024,31.9748936 L34.0696686,32.2350709 C33.2336194,33.7978214 31.4429689,34.5952795 29.7203622,34.1720149 C27.9977555,33.7487503 26.7818698,32.2125512 26.7670872,30.4407447 C26.7632282,28.9717885 27.6006719,27.6299772 28.9228402,26.9866667 L29.1923077,26.8431206 L29.1923077,11.5016312 C29.1923077,10.7980361 29.7633592,10.2276596 30.467787,10.2276596 C31.1722147,10.2276596 31.7432663,10.7980361 31.7432663,11.5016312 L31.7432663,26.6995745 L32.057645,26.8251773 C33.0996011,27.2392432 33.9182635,28.0732266 34.3121893,29.1219149 L34.4199763,29.4538652 L44.5519527,29.4538652 C45.2493549,29.4636772 45.8094675,30.0311899 45.8094675,30.7278369 Z" id="Path"></path>
                    </g>
                    <g id="administrate-copy" transform="translate(219.166864, 341.819149)" fill="#FFFFFF">
                        <path d="M0.700615385,43.6200709 C0.715202089,46.2465719 2.43542535,48.55948 4.94878935,49.3319087 C7.46215334,50.1043374 10.1865927,49.1574011 11.6769231,46.9934043 L24.9616686,53.0761702 C24.8291795,53.5828804 24.7627604,54.1045589 24.7640592,54.6282624 C24.7638834,56.6909785 25.822628,58.6097205 27.5687388,59.7111279 C29.3148496,60.8125353 31.5044229,60.9427593 33.3690533,60.0560993 C33.6374497,59.923244 33.8333858,59.6787576 33.9044055,59.3880944 C33.9754251,59.0974312 33.9142746,58.7902776 33.7373254,58.5488652 L33.7373254,58.5488652 C33.4525772,58.1662515 32.9346976,58.0416542 32.5067574,58.2528014 C31.9696897,58.5042158 31.3842695,58.6358562 30.7911479,58.6385816 C29.4414831,58.6389045 28.1819556,57.9619028 27.43873,56.8366418 C26.6955043,55.7113809 26.5680321,54.2884326 27.0994438,53.0492553 C27.2567652,52.8023065 27.2835862,52.4942304 27.1713018,52.2238652 C27.0796077,51.9505743 26.8728795,51.7309804 26.6054201,51.622766 L12.4943077,45.1631915 C12.7927058,44.0614481 12.7708971,42.8976203 12.431432,41.8078014 L19.3297988,38.0486879 C19.5646124,37.9215484 19.739168,37.7063597 19.8149895,37.4505545 C19.8908109,37.1947493 19.8616736,36.9193279 19.734,36.685 L19.734,36.685 C19.60671,36.450464 19.3912666,36.2761147 19.1351587,36.2003829 C18.8790507,36.124651 18.6033035,36.153754 18.3686982,36.2812766 L11.4972781,40.0134752 C10.578625,38.7737148 9.21252456,37.94022 7.68880473,37.6898227 L7.68880473,23.4967021 C8.92075299,23.2881864 10.0571746,22.7018338 10.9403787,21.8190071 L18.3776805,25.542234 C18.6161667,25.6741861 18.8980588,25.7038092 19.1588172,25.6243211 C19.4195756,25.5448331 19.6368686,25.3630413 19.7609467,25.1205674 L19.7609467,25.1205674 C19.881092,24.8831823 19.9002111,24.6074068 19.8139706,24.3557471 C19.7277301,24.1040875 19.5434332,23.8978552 19.3028521,23.7837943 L12.1170533,20.1951418 C12.7446179,18.905965 12.8818779,17.4329607 12.5032899,16.0502482 L25.7970178,9.94953901 C26.7209884,11.3027107 28.1584916,12.2199399 29.7761538,12.4885106 L29.7761538,16.5885461 C29.7810835,17.1399875 30.2300497,17.5844191 30.7821657,17.5843972 L30.7821657,17.5843972 C31.3342817,17.5844191 31.7832479,17.1399875 31.7881775,16.5885461 L31.7881775,12.5064539 C33.404656,12.2287985 34.839916,11.3097646 35.7673136,9.95851064 L49.0520592,16.0502482 C48.7491228,17.1514278 48.7709557,18.3165524 49.1149349,19.4056383 L42.216568,23.1378369 C41.9829824,23.2614514 41.8087305,23.4734016 41.7327711,23.7263002 C41.6568118,23.9791988 41.6854802,24.2519532 41.8123669,24.4835816 L41.8123669,24.4835816 C41.9376604,24.717775 42.1521541,24.8916568 42.4073867,24.9659413 C42.6626193,25.0402258 42.9370538,25.0086447 43.1686864,24.8783333 L50.0311243,21.1371631 C50.9554671,22.3766223 52.3228734,23.2121644 53.8485799,23.4697872 L53.8485799,37.6808511 C52.7378936,37.8628955 51.7011572,38.354219 50.8574911,39.0983688 C50.6315799,39.2971724 50.5066933,39.5865902 50.5171293,39.8871389 C50.5275653,40.1876876 50.6722266,40.4677679 50.9113846,40.650461 L50.9113846,40.650461 C51.2864022,40.9346413 51.8108113,40.9120317 52.1599172,40.5966312 C53.4986424,39.407403 55.4642109,39.2479854 56.9774929,40.2059013 C58.4907749,41.1638172 59.1855339,43.0072368 58.6803356,44.7240921 C58.1751373,46.4409475 56.5922472,47.6157344 54.8006982,47.6034752 C54.3389683,47.5988205 53.9391809,47.9227929 53.8485799,48.3750355 L53.8485799,48.3750355 C53.7870285,48.6649009 53.857909,48.9670885 54.0419602,49.199482 C54.2260115,49.4318756 54.5041147,49.5703345 54.8006982,49.577234 L54.8006982,49.577234 C57.9156503,49.5575049 60.5007191,47.1668464 60.7597933,44.0662932 C61.0188675,40.9657401 58.8663123,38.1801533 55.7977278,37.6449645 L55.7977278,23.4967021 C58.5043149,23.0475303 60.5641052,20.8267405 60.8060044,18.0969633 C61.0479036,15.367186 59.4106667,12.8195581 56.825145,11.9025341 C54.2396234,10.9855101 51.3604307,11.9312661 49.8245325,14.2020922 L36.575716,8.11932624 C37.2494049,5.67339229 36.3132186,3.06831896 34.2359728,1.60865389 C32.158727,0.148988825 29.3876399,0.148988825 27.3103941,1.60865389 C25.2331483,3.06831896 24.2969619,5.67339229 24.9706509,8.11932624 L11.6769231,14.2020922 C10.141025,11.9312661 7.26183221,10.9855101 4.67631058,11.9025341 C2.09078895,12.8195581 0.453552013,15.367186 0.695451234,18.0969633 C0.937350454,20.8267405 2.99714073,23.0475303 5.70372781,23.4967021 L5.70372781,37.6808511 C2.80831337,38.175685 0.693611332,40.6860584 0.700615385,43.6200709 Z M54.8815385,13.5740679 C57.0989977,13.5740679 58.8966036,15.3695591 58.8966036,17.5843972 C58.8966036,19.7992353 57.0989977,21.5947163 54.8815385,21.5947163 C52.6640792,21.5947163 50.8664633,19.7992353 50.8664633,17.5843972 C50.8640815,16.5200638 51.2863279,15.4986347 52.0398178,14.7460355 C52.7933077,13.9934362 53.8159455,13.5716889 54.8815385,13.5740679 L54.8815385,13.5740679 Z M30.8001302,2.5569048 C33.0175894,2.5569048 34.8151953,4.35239593 34.8151953,6.56723404 C34.8151953,8.78207215 33.0175894,10.5775532 30.8001302,10.5775532 C28.582671,10.5775532 26.785055,8.78207215 26.785055,6.56723404 C26.7826732,5.50290067 27.2049196,4.48147161 27.9584095,3.72887237 C28.7118994,2.97627313 29.7345372,2.55452581 30.8001302,2.5569048 L30.8001302,2.5569048 Z M10.7248149,43.6200709 C10.7284395,45.2429051 9.75250825,46.7079642 8.25247263,47.3315132 C6.752437,47.9550622 5.02401473,47.6141743 3.87385098,46.4679401 C2.72368723,45.321706 2.37852578,43.5960945 2.9994516,42.0964392 C3.62037741,40.5967839 5.08498089,39.6187234 6.70973964,39.6187234 C8.92369581,39.6187234 10.7198518,41.4087373 10.7248149,43.6200709 L10.7248149,43.6200709 Z M2.7036568,17.6023404 C2.700022,15.9795062 3.67595329,14.5144472 5.17598891,13.8908982 C6.67602454,13.2673492 8.40444681,13.608237 9.55461056,14.7544712 C10.7047743,15.9007054 11.0499358,17.6263168 10.4290099,19.1259721 C9.80808413,20.6256274 8.34348065,21.6036981 6.71872189,21.6036981 C5.64918478,21.6060885 4.62289161,21.1821662 3.86745634,20.4259397 C3.11202108,19.6697131 2.68988644,18.6436904 2.69463426,17.5754255 L2.7036568,17.6023404 Z" id="Shape"></path>
                        <path d="M31.2582249,25.3358865 C29.0853732,25.1245066 27.0062416,26.2701953 26.0264566,28.2188102 C25.0466716,30.1674252 25.3681802,32.5173303 26.8354763,34.1319323 C28.3027725,35.7465342 30.6134265,36.2930416 32.6498299,35.5071217 C34.6862332,34.7212018 36.0286555,32.7648435 36.0277988,30.5842908 C36.1549615,27.8218918 34.0232499,25.4761721 31.2582249,25.3358865 Z M31.2582249,33.7333333 C29.9536959,33.859419 28.7059405,33.1708375 28.118468,32.0006392 C27.5309956,30.8304408 27.7248922,29.4198194 28.6063746,28.4510589 C29.4878571,27.4822983 30.87524,27.1550732 32.0974793,27.6276545 C33.3197186,28.1002359 34.1248943,29.2752183 34.1235621,30.5842908 C34.1998217,32.2430619 32.9186674,33.6510669 31.2582249,33.7333333 Z" id="Shape"></path>
                        <path d="M21.5573964,36.927234 L24.3778225,39.7443262 C24.5636165,39.9333762 24.8177047,40.0398805 25.082929,40.0398805 C25.3481533,40.0398805 25.6022415,39.9333762 25.7880355,39.7443262 L26.8659053,38.6767021 C27.1533373,38.8112766 27.4407692,38.9279078 27.7641302,39.0355674 L27.7641302,40.5607447 C27.7641302,41.110738 28.2105155,41.5565957 28.7611598,41.5565957 L30.7642012,41.5565957 C31.3148454,41.5565957 31.7612308,41.110738 31.7612308,40.5607447 L31.7612308,40.5607447 C31.7612308,40.0107513 31.3148454,39.5648936 30.7642012,39.5648936 L29.7581893,39.5648936 L29.7581893,38.2998936 C29.7565157,37.8480209 29.4504438,37.4539127 29.0126627,37.3399291 C28.3824287,37.1753582 27.7779204,36.9247838 27.216213,36.5952837 C26.8219113,36.3692637 26.3248472,36.4354606 26.0036095,36.756773 L25.1053846,37.6539362 L23.6951716,36.2453901 L24.5933964,35.348227 C24.9180684,35.0288471 24.9846273,34.5302455 24.7550769,34.1370567 C24.431086,33.5730964 24.1805495,32.9701074 24.0095503,32.3427305 C23.8927049,31.9072699 23.4997868,31.6028433 23.0484497,31.5980851 L21.7819527,31.5980851 L21.7819527,29.606383 L23.0484497,29.606383 C23.5023533,29.6005294 23.8961028,29.291783 24.0095503,28.852766 C24.1736588,28.2230562 24.4245664,27.6191742 24.7550769,27.0584397 C24.9846273,26.665251 24.9180684,26.1666493 24.5933964,25.8472695 L23.6951716,24.9501064 L25.1053846,23.5415603 L26.0036095,24.4387234 C26.3248472,24.7600359 26.8219113,24.8262327 27.216213,24.6002128 C27.7808408,24.2766048 28.3845434,24.0263644 29.0126627,23.8555674 C29.4504438,23.7415838 29.7565157,23.3474755 29.7581893,22.8956028 L29.7581893,21.6306028 L31.7612308,21.6306028 L31.7612308,22.8956028 C31.7659946,23.3464065 32.0707814,23.73886 32.5067574,23.8555674 C33.1356608,24.024068 33.7396536,24.2744287 34.3032071,24.6002128 C34.6975089,24.8262327 35.1945729,24.7600359 35.5158107,24.4387234 L36.4140355,23.5415603 L37.8242485,24.9501064 L36.9260237,25.8472695 C36.6043309,26.1681275 36.5380557,26.664604 36.7643432,27.0584397 C37.0905128,27.6213271 37.3411698,28.2246059 37.5098698,28.852766 C37.6233173,29.291783 38.0170669,29.6005294 38.4709704,29.606383 L39.7374675,29.606383 L39.7374675,31.5980851 C39.7374675,31.8622012 39.8425113,32.1154998 40.0294907,32.3022581 C40.21647,32.4890164 40.4700684,32.5939362 40.734497,32.5939362 L40.734497,32.5939362 C40.9989257,32.5939362 41.2525241,32.4890164 41.4395034,32.3022581 C41.6264827,32.1154998 41.7315266,31.8622012 41.7315266,31.5980851 L41.7315266,28.6105319 C41.7315266,28.0590685 41.2865911,27.610633 40.734497,27.6057092 L39.252426,27.6057092 C39.1507013,27.299759 39.0307232,27.0001683 38.8931361,26.7085461 L39.9620237,25.640922 C40.3466333,25.249985 40.3466333,24.6233129 39.9620237,24.2323759 L37.1415976,21.4063121 C36.750198,21.022157 36.1227842,21.022157 35.7313846,21.4063121 L34.6535148,22.4829078 C34.3660828,22.3483333 34.0786509,22.2317021 33.7552899,22.1240426 L33.7552899,20.6347518 C33.7552899,20.0847584 33.3089046,19.6389007 32.7582604,19.6389007 L28.7611598,19.6389007 C28.2090437,19.6389007 27.7600775,20.0833103 27.7551479,20.6347518 L27.7551479,22.1599291 C27.4488356,22.2615336 27.1488904,22.3813698 26.8569231,22.5187943 L25.7790533,21.433227 C25.3876536,21.0490719 24.7602398,21.0490719 24.3688402,21.433227 L21.6023077,24.2234043 C21.2176981,24.6143412 21.2176981,25.2410134 21.6023077,25.6319504 L22.6801775,26.7085461 C22.5364615,26.9956383 22.4286746,27.2827305 22.3119053,27.6057092 L20.7939053,27.6057092 C20.2417893,27.6056872 19.7928231,28.0501189 19.7878935,28.6015603 L19.7878935,32.5939362 C19.7928231,33.1453776 20.2417893,33.5898092 20.7939053,33.5897872 L22.3119053,33.5897872 C22.4126348,33.8973967 22.5357195,34.1972484 22.6801775,34.4869504 L21.5573964,35.5186879 C21.1727868,35.9096249 21.1727868,36.5362971 21.5573964,36.927234 L21.5573964,36.927234 Z" id="Path"></path>
                        <path d="M41.8662604,36.4068794 L41.8662604,36.4068794 C42.1339047,35.8921301 42.7640542,35.6849843 43.2854556,35.9403546 L48.8095385,38.631844 C49.0604842,38.7497607 49.2528127,38.9643014 49.3425406,39.226403 C49.4322685,39.4885046 49.4117212,39.7757491 49.2855976,40.0224468 L49.2855976,40.0224468 C49.0149942,40.5283333 48.394826,40.7334965 47.8753846,40.4889716 L42.3423195,37.7974823 C41.8310334,37.5407267 41.6194109,36.9225621 41.8662604,36.4068794 Z" id="Path"></path>
                        <path d="M27.6204142,52.1790071 L33.575645,56.4584752 C33.925204,56.7035535 34.3432459,56.8322712 34.770284,56.8263121 L49.1418817,56.8263121 C49.6694299,56.8863395 50.1986639,56.7288082 50.607253,56.3901309 C51.0158421,56.0514536 51.2684198,55.5609455 51.3068414,55.0319858 L51.3068414,44.9837589 C51.3249755,43.4997631 50.2773251,42.2153584 48.8185207,41.9334043 C47.9527702,41.7830282 47.0652594,42.030183 46.4022959,42.6062766 C46.4022959,42.6062766 46.4022959,42.6062766 46.3394201,42.6511348 C45.2101281,41.6297751 43.4895761,41.6297751 42.360284,42.6511348 C41.5398926,41.9436654 40.4090566,41.7157242 39.3781775,42.0500355 L39.3781775,36.9092908 C39.4387713,35.8077708 38.8848651,34.7630103 37.9386149,34.1940329 C36.9923648,33.6250555 35.8087595,33.6250555 34.8625093,34.1940329 C33.9162591,34.7630103 33.362353,35.8077708 33.4229467,36.9092908 L33.4229467,49.092766 L30.8001302,47.5496454 C29.9808817,47.0486931 28.9592348,47.011277 28.1054556,47.4509574 L27.9437751,47.5317021 C27.0837839,47.9685354 26.5149115,48.8225366 26.4437396,49.7835816 C26.3579185,50.7404625 26.789247,51.6704837 27.575503,52.2238652 L27.6204142,52.1790071 Z M28.8869112,49.2542553 L29.0485917,49.1735106 C29.2759299,49.0522938 29.5488157,49.0522938 29.7761538,49.1735106 L33.9169704,51.6676241 C34.2272054,51.8509037 34.6127473,51.8509037 34.9229822,51.6676241 C35.2427507,51.4833982 35.4358176,51.1390435 35.4259882,50.770461 L35.4259882,36.9362057 C35.4174448,36.4135626 35.8048344,35.9685912 36.324213,35.9044681 C36.5993568,35.8871021 36.8694184,35.9843041 37.0702276,36.1729776 C37.2710369,36.3616512 37.3846671,36.624953 37.3841183,36.9003191 L37.3841183,44.858156 C37.3713598,45.3823251 37.7608663,45.829728 38.2823432,45.8898936 C38.5498487,45.902032 38.8109982,45.8061815 39.0069858,45.623926 C39.2029734,45.4416705 39.3173226,45.1883319 39.324284,44.9209574 C39.3209108,44.4447854 39.6497857,44.0304449 40.1147219,43.9251064 C40.4020992,43.8668873 40.7005645,43.9379752 40.9307148,44.1194581 C41.1608652,44.300941 41.2993624,44.5744156 41.3093609,44.8671277 C41.30944,45.384862 41.693667,45.8223631 42.2075858,45.8898936 C42.4822554,45.9203025 42.7569994,45.8333535 42.9640185,45.6505034 C43.1710377,45.4676532 43.2910493,45.2059334 43.2944379,44.9299291 C43.2984114,44.4136677 43.6807135,43.9783584 44.1926627,43.9071631 C44.4676022,43.8796799 44.7416312,43.9673918 44.9493668,44.1493707 C45.1571023,44.3313497 45.2799133,44.5912746 45.288497,44.8671277 C45.2804276,45.3878902 45.6687355,45.8300381 46.1867219,45.8898936 C46.4615634,45.9151878 46.7343269,45.8234371 46.9378567,45.637231 C47.1413865,45.451025 47.2567737,45.1876629 47.2556095,44.9119858 C47.2531893,44.722785 47.3029073,44.536563 47.3993254,44.3736879 C47.613485,44.0241848 48.0186684,43.8395827 48.4233018,43.9071631 C48.9208095,44.0269235 49.2635319,44.4820926 49.2406864,44.9927305 L49.2406864,54.0809929 C49.2406864,54.2856234 49.159301,54.4818728 49.0144342,54.6265684 C48.8695673,54.771264 48.6730857,54.8527052 48.468213,54.8527052 L35.3810769,54.8527052 C34.962487,54.8577642 34.5532428,54.7288474 34.2133846,54.4847163 L28.7431953,50.5551418 C28.5279211,50.3962637 28.4065399,50.1403174 28.4198343,49.8732979 C28.4477125,49.6041386 28.6147235,49.3692379 28.8599645,49.2542553 L28.8869112,49.2542553 Z" id="Shape"></path>
                    </g>
                </g>
            </g>
        </g>
    </g>
</svg>