<svg xmlns="http://www.w3.org/2000/svg" width="784" height="422" viewBox="0 0 784 422"><defs><linearGradient id="8tb1a" x1="619.25" x2="683.25" y1="160.27" y2="111" gradientUnits="userSpaceOnUse"><stop offset=".01" stop-color="#ffc4c2"/><stop offset=".31" stop-color="#f0b4af"/><stop offset=".72" stop-color="#e1a59c"/><stop offset="1" stop-color="#db9f95"/></linearGradient><linearGradient id="8tb1b" x1="729.49" x2="729.49" y1="91" y2="21.97" gradientUnits="userSpaceOnUse"><stop offset=".01" stop-color="#ffc4c2"/><stop offset=".31" stop-color="#f0b4af"/><stop offset=".72" stop-color="#e1a59c"/><stop offset="1" stop-color="#db9f95"/></linearGradient><linearGradient id="8tb1c" x1="683.73" x2="708.68" y1="93.74" y2="105.35" gradientUnits="userSpaceOnUse"><stop offset=".01" stop-color="#ffc4c2"/><stop offset=".31" stop-color="#f0b4af"/><stop offset=".72" stop-color="#e1a59c"/><stop offset="1" stop-color="#db9f95"/></linearGradient><linearGradient id="8tb1d" x1="489.35" x2="472.03" y1="-6.07" y2="17.84" gradientUnits="userSpaceOnUse"><stop offset=".01" stop-color="#ffc4c2"/><stop offset=".31" stop-color="#f0b4af"/><stop offset=".72" stop-color="#e1a59c"/><stop offset="1" stop-color="#db9f95"/></linearGradient><linearGradient id="8tb1e" x1="265.25" x2="265.79" y1="55.86" y2="77.17" gradientUnits="userSpaceOnUse"><stop offset=".01" stop-color="#ffc4c2"/><stop offset=".31" stop-color="#f0b4af"/><stop offset=".72" stop-color="#e1a59c"/><stop offset="1" stop-color="#db9f95"/></linearGradient><linearGradient id="8tb1f" x1="333.33" x2="335" y1="96.93" y2="27.98" gradientUnits="userSpaceOnUse"><stop offset=".01" stop-color="#ffc4c2"/><stop offset=".31" stop-color="#f0b4af"/><stop offset=".72" stop-color="#e1a59c"/><stop offset="1" stop-color="#db9f95"/></linearGradient><linearGradient id="8tb1g" x1="265.7" x2="266.38" y1="49.91" y2="75.63" gradientUnits="userSpaceOnUse"><stop offset=".01" stop-color="#ffc4c2"/><stop offset=".31" stop-color="#f0b4af"/><stop offset=".72" stop-color="#e1a59c"/><stop offset="1" stop-color="#db9f95"/></linearGradient><linearGradient id="8tb1h" x1="458.03" x2="500.99" y1="371.96" y2="371.96" gradientUnits="userSpaceOnUse"><stop offset="0" stop-color="#ffe1e0"/><stop offset=".17" stop-color="#f8d4d1"/><stop offset=".72" stop-color="#e3aea6"/><stop offset="1" stop-color="#db9f95"/></linearGradient><linearGradient id="8tb1i" x1="513.99" x2="513.99" y1="297.02" y2="224" gradientUnits="userSpaceOnUse"><stop offset=".01" stop-color="#ffcdc9"/><stop offset=".38" stop-color="#edb6af"/><stop offset=".74" stop-color="#e0a59c"/><stop offset="1" stop-color="#db9f95"/></linearGradient><linearGradient id="8tb1j" x1="226.7" x2="205.5" y1="173.16" y2="152.9" gradientUnits="userSpaceOnUse"><stop offset=".01" stop-color="#ffc4c2"/><stop offset=".31" stop-color="#f0b4af"/><stop offset=".72" stop-color="#e1a59c"/><stop offset="1" stop-color="#db9f95"/></linearGradient><linearGradient id="8tb1k" x1="114.07" x2="112.62" y1="100.79" y2="27.77" gradientUnits="userSpaceOnUse"><stop offset=".01" stop-color="#ffc4c2"/><stop offset=".23" stop-color="#f7bbb6"/><stop offset=".68" stop-color="#ebaca3"/><stop offset="1" stop-color="#e6a79c"/></linearGradient><linearGradient id="8tb1l" x1="131.6" x2="120.88" y1="218.73" y2="190.98" gradientUnits="userSpaceOnUse"><stop offset=".01" stop-color="#ffc4c2"/><stop offset=".31" stop-color="#f0b4af"/><stop offset=".72" stop-color="#e1a59c"/><stop offset="1" stop-color="#db9f95"/></linearGradient></defs><g><g><g><path fill="none" stroke="#f24e29" stroke-linecap="round" stroke-linejoin="round" stroke-miterlimit="20" stroke-width="2" d="M1.35 176s.09.71.3 2"/></g><g><path fill="none" stroke="#f24e29" stroke-dasharray="5.01 5.01" stroke-linecap="round" stroke-linejoin="round" stroke-miterlimit="20" stroke-width="2" d="M2 183c.78 4.312 2.078 10.234 4 17"/></g><g><path fill="none" stroke="#f24e29" stroke-dasharray="5.01 5.01" stroke-linecap="round" stroke-linejoin="round" stroke-miterlimit="20" stroke-width="2" d="M7 202.644c8.612 29.4 29.54 72.278 78.34 72.278 59.67 0 82.967-34.59 99.006-56.926 14.584-20.292 28.104-41.716 59.219-45.884 33.594-4.5 58.346 19.85 72.93 52.107 14.584 32.256 38.893 108.993 102.549 108.552 63.655-.44 87.323-68.14 106.956-105.907 16.842-32.306 45.167-75.154 98.062-78.611 32.771-2.134 63.575 8.748 96.427 51.255C772.682 267.127 781.605 363.153 783 386"/></g><g><path fill="none" stroke="#f24e29" stroke-linecap="round" stroke-linejoin="round" stroke-miterlimit="20" stroke-width="2" d="M782.445 389c.08 1.301.11 2 .11 2"/></g><g><path fill="url(#8tb1a)" d="M614.036 161.432c.724-1.646 5.027-5.297 5.027-5.297s-5.147 2.883-4.614 1.846c.533-1.038 12.728-10.524 12.728-10.524s1.78-1.996 3.71-4.24C651.809 118.327 684.464 97 684.464 97L695 115.854c-21.636 9.078-47.092 27.413-56.663 34.615a240.049 240.049 0 0 1-4.625 3.88s-4.303 6.984-3.248 10.166a1.486 1.486 0 0 1-1.719-.29 6.542 6.542 0 0 1-1.005-4.818s-9.521 7.582-9.873 6.484c-.352-1.097 4.162-5.576 4.162-5.576s-7.58 6.045-7.59 4.868c0-.449 0 0 5.69-6.245-.07 0-6.676 3.801-6.093 2.494z"/></g><g><path fill="#76d0d6" d="M706.438 80S681.903 93.916 670 105.715L682.213 123 712 106.947z"/></g><g><path fill="#a378e3" d="M733.725 391s-3.023 11.048-2.7 16.649c.271 5.036 43.125 6.382 46.975.36-.937-4.317-5.987-6.352-11.51-8.87-4.212-1.911-19.723-5.98-19.723-5.98z"/></g><g><path fill="#a378e3" d="M616.565 374s-6.767 9.014-8.518 14.26c-1.573 4.736 37.157 22.203 42.87 18.13.706-4.32-3.175-8.098-7.315-12.498-3.164-3.361-15.922-12.986-15.922-12.986z"/></g><g><path fill="#43266e" d="M766 182l-15.632 213-17.26-.411-3.868-167.947-52.151 152.22L660 373.135l45.36-190.433L766 182z"/></g><g><path fill="url(#8tb1b)" d="M742.702 87.144c3.746-6.237 5.916-10.536 2.822-11.44a.492.492 0 0 0-.24 0c-2.01-1.868-3.908-12.444-2.813-17.556 2.31-10.767 5.564-28.805-5.072-34.58a12.946 12.946 0 0 0-3.766-1.346c-6.026-1.135-12.324 2.21-16.3 7.13-3.978 4.922-5.023 11.551-5.304 17.949-.452 11.4 4.309 26.374 15.849 16.933a17.807 17.807 0 0 1-4.67 10.426c-5.303 1.416-4.219 4.71-3.757 6.739 6.398 12.143 17.165 11.209 23.251 5.745z"/></g><g><path fill="#93dfe6" d="M705.23 80.712c5.189-2.685 12.816-4.304 18.065-5.712 1.887 2.765 5.149 6.034 10.157 6.134 8.822.262 12.043-5.118 12.043-5.118a.49.49 0 0 1 .241 0c6.544 2.081 9.274 2.866 15.426 6.848.17 2.172 12.044 59.682 6.243 125.77-28.544 8.909-64.172 2.272-70.405-3.018 9.846-45.231 9.143-105.305 8.23-124.904z"/></g><g><path fill="#553721" d="M743.127 57s.705-9.487-6.803-16.025c-7.507-6.537-19.703-2.838-22.984-3.04-3.28-.203-7.416-6.285-4.146-11.97 4.026-6.924 11.573-4.48 13.455-5.19 1.881-.71 12.82-4.176 19.854 1.094 7.034 5.27 7.658 15.6 5.163 25.198A32.606 32.606 0 0 1 743.127 57z"/></g><g><path fill="#f24e29" d="M418.135 123c-4.636-9.238-5.51-26.11-6.356-42.43-.422-8.116-.854-16.512-1.76-23.575-1.005-7.615-3.831-22.182-12.067-34.195-8.237-12.013-19.762-18.155-33.931-17.824-10.148.24-17.911 3.216-23.06 8.837-7.482 8.165-6.829 19.236-6.819 19.346a67.042 67.042 0 0 1-1.005 14.458c-1.84 10.26-6.034 17.694-12.068 21.5-8.77 5.511-21.43 3.748-37.642-5.25-27.585-15.318-51.842-9.547-67.329-2.003a94.044 94.044 0 0 0-27.354 20.278l-.744-.63a94.819 94.819 0 0 1 27.666-20.5c15.698-7.654 40.296-13.505 68.274 2.004 15.87 8.807 28.158 10.58 36.626 5.27 14.08-8.857 12.611-34.796 12.601-35.066-.01-.27-.704-11.582 7.04-20.038 5.34-5.831 13.335-8.917 23.773-9.168 14.512-.35 26.218 5.801 34.756 18.255 8.357 12.173 11.253 26.92 12.239 34.626.905 7.103 1.347 15.509 1.77 23.644.834 16.221 1.71 32.993 6.255 42.08z"/></g><g><path fill="#f24e29" d="M418 127a5 5 0 1 0 0-10 5 5 0 0 0 0 10z"/></g><g><path fill="#f24e29" d="M365 10a5 5 0 1 0 0-10 5 5 0 0 0 0 10z"/></g><g><path fill="#f24e29" d="M284 70a5 5 0 1 0 0-10 5 5 0 0 0 0 10z"/></g><g><path fill="#f24e29" d="M189 88a5 5 0 1 0 0-10 5 5 0 0 0 0 10z"/></g><g><path fill="#6543ad" d="M657.547 406l-132.757-.612a28.894 28.894 0 0 1-20.412-8.578A28.997 28.997 0 0 1 496 376.287l1.463-333.447a28.986 28.986 0 0 1 8.56-20.45 28.883 28.883 0 0 1 20.49-8.39l132.707.643c7.67.034 15.01 3.12 20.408 8.578A28.987 28.987 0 0 1 688 43.743l-1.403 333.407a28.986 28.986 0 0 1-8.556 20.456A28.883 28.883 0 0 1 657.547 406z"/></g><g><path fill="#fafafa" d="M659.771 23.613l-19.806-.1a6.431 6.431 0 0 0-6.304 6.529 6.421 6.421 0 0 1-6.304 6.529l-63.42-.251a6.417 6.417 0 0 1-4.487-1.997 6.405 6.405 0 0 1-1.757-4.583 6.411 6.411 0 0 0-6.203-6.59L526.817 23a20.339 20.339 0 0 0-14.401 5.885 20.302 20.302 0 0 0-6.018 14.336L505 377.996a20.291 20.291 0 0 0 5.887 14.381 20.328 20.328 0 0 0 14.342 6.01l132.974.613a20.319 20.319 0 0 0 14.407-5.88 20.281 20.281 0 0 0 6.012-14.34L680 44.013a20.291 20.291 0 0 0-5.884-14.388 20.328 20.328 0 0 0-14.345-6.013z"/></g><g><path fill="#f8f6fa" d="M509 61.38C509 50.677 517.677 42 528.38 42h126.24C665.323 42 674 50.677 674 61.38v312.24c0 10.703-8.677 19.38-19.38 19.38H528.38c-10.703 0-19.38-8.677-19.38-19.38z"/><path fill="none" stroke="#cbb6d4" stroke-miterlimit="20" d="M509 61.38C509 50.677 517.677 42 528.38 42h126.24C665.323 42 674 50.677 674 61.38v312.24c0 10.703-8.677 19.38-19.38 19.38H528.38c-10.703 0-19.38-8.677-19.38-19.38z"/></g><g><path fill="#9b51e0" d="M660.273 41H522.727A13.725 13.725 0 0 0 509 54.75V75h165V54.75A13.732 13.732 0 0 0 660.273 41z"/></g><g><path fill="#fff" d="M515 96.51c0-7.461 6.049-13.51 13.51-13.51h126.98c7.461 0 13.51 6.049 13.51 13.51v11.98c0 7.461-6.049 13.51-13.51 13.51H528.51c-7.461 0-13.51-6.049-13.51-13.51z"/><path fill="none" stroke="#e8d8f0" stroke-miterlimit="20" stroke-width="2" d="M515 96.51c0-7.461 6.049-13.51 13.51-13.51h126.98c7.461 0 13.51 6.049 13.51 13.51v11.98c0 7.461-6.049 13.51-13.51 13.51H528.51c-7.461 0-13.51-6.049-13.51-13.51z"/></g><g><path fill="#fff" d="M515 229.51c0-7.461 6.049-13.51 13.51-13.51h126.98c7.461 0 13.51 6.049 13.51 13.51v11.98c0 7.461-6.049 13.51-13.51 13.51H528.51c-7.461 0-13.51-6.049-13.51-13.51z"/><path fill="none" stroke="#e8d8f0" stroke-miterlimit="20" stroke-width="2" d="M515 229.51c0-7.461 6.049-13.51 13.51-13.51h126.98c7.461 0 13.51 6.049 13.51 13.51v11.98c0 7.461-6.049 13.51-13.51 13.51H528.51c-7.461 0-13.51-6.049-13.51-13.51z"/></g><g><path fill="#fff" d="M515 275.51c0-7.461 6.049-13.51 13.51-13.51h126.98c7.461 0 13.51 6.049 13.51 13.51v11.98c0 7.461-6.049 13.51-13.51 13.51H528.51c-7.461 0-13.51-6.049-13.51-13.51z"/><path fill="none" stroke="#e8d8f0" stroke-miterlimit="20" stroke-width="2" d="M515 275.51c0-7.461 6.049-13.51 13.51-13.51h126.98c7.461 0 13.51 6.049 13.51 13.51v11.98c0 7.461-6.049 13.51-13.51 13.51H528.51c-7.461 0-13.51-6.049-13.51-13.51z"/></g><g><path fill="#fff" d="M515 141.51c0-7.461 6.049-13.51 13.51-13.51h126.98c7.461 0 13.51 6.049 13.51 13.51v53.98c0 7.461-6.049 13.51-13.51 13.51H528.51c-7.461 0-13.51-6.049-13.51-13.51z"/><path fill="none" stroke="#e8d8f0" stroke-miterlimit="20" stroke-width="2" d="M515 141.51c0-7.461 6.049-13.51 13.51-13.51h126.98c7.461 0 13.51 6.049 13.51 13.51v53.98c0 7.461-6.049 13.51-13.51 13.51H528.51c-7.461 0-13.51-6.049-13.51-13.51z"/></g><g><path fill="url(#8tb1c)" d="M685.62 91.39c3.43-2.388 14.612 6.97 14.612 6.97s-.983-3.991.737-6.164c.422-.56.707.58.914 1.602.855 4.296 3.93 7.097 4.117 10.705L699.701 111s-9.207-4.148-13.452-10.734c-1.08-1.71-4.098-6.458-.629-8.876z"/></g><g><path fill="#76d0d6" d="M764.878 85.197c-4.624-5.669-8.602 1.15-9.682 3.49-1.837 3.964-2.474 7.283-2.706 14.929-.232 7.645 3.413 24.087 1.525 28.797-.424 1.07-36.468-22.1-46.352-29.04-5.887 1.766-8.663 9.25-8.663 9.25l28.896 27.688s25.412 23.2 36.71 16.462c4.23-2.532 4.785-3.934 6.825-7.757 3.029-5.74 3.776-16.31 3.524-22.806-.404-11.025-1.515-30.523-10.077-41.013z"/></g><g><path fill="#454447" d="M362.331 396s5.558 14.709.632 17.133c-4.484 2.2-40.431 4.706-43.963.896.933-4.278 5.217-7.466 10.715-9.962 4.194-1.894 19.634-5.928 19.634-5.928z"/></g><g><path fill="#454447" d="M363.588 373s14.192 6.68 12.225 11.837c-1.764 4.702-26.356 31.433-31.526 31.16-2.25-3.713-1.318-8.98 1.014-14.58 1.753-4.27 10.289-17.882 10.289-17.882z"/></g><g><path fill="#a3adad" d="M307.733 182.212c1.739-5.156-22.839 85.086-20.587 110.117C289.388 317.1 348.404 385 348.404 385L365 374.235s-36.349-59.192-44.059-78.193a12.728 12.728 0 0 1-.683-7.314c4.222-20.737 29.754-98.89 29.754-98.89z"/></g><g><path fill="#aeb9b9" d="M364.17 178c.091 0 5.86 13.936 5.83 15.672-.886 49.04-4.873 206.328-4.873 206.328h-22.15L327 187.933z"/></g><g><path fill="url(#8tb1d)" d="M463.879.006c-4.32-.337-9.568 13.498-9.568 13.498s-1.258-3.97-3.918-4.962c-.68-.268-.34.873 0 1.866 1.485 4.188.35 9.984 2.062 13.22l7.63 2.372s7.485-9.985 7.856-17.865c.145-2.085.371-7.772-4.062-8.129z"/></g><g><path fill="url(#8tb1e)" d="M270.711 57.463c3.628 2.013-1.235 15.735-4.356 17.537l-7.283-2.094s-.827-8.588 3.14-15.474c1.022-1.772 4.824-2.053 8.5.03z"/></g><g><path fill="#512e85" d="M307.34 121.979a60.077 60.077 0 0 0 5.645-26.812c-.151-5.509-1.137-9.87-4.096-8.37-6.963 3.556-42.342 30.71-42.342 30.71l-7.325 5.137 10.243-47.963a12.132 12.132 0 0 0-5.403-3.112c-4.387-1.178-6.712-.161-6.712-.161s-31.414 66.786-18.031 78.762c11.33 10.142 66.612-25.18 66.612-25.18z"/></g><g><path fill="url(#8tb1f)" d="M346.513 93.38c3.862-6.142 6.112-10.376 3.076-11.36-.15 0 .587-1.103.587-1.103-3.165-1.797-4.4-11.46-3.195-16.527 2.548-10.707 6.21-28.649-4.18-34.67a12.807 12.807 0 0 0-3.713-1.434c-5.972-1.285-12.263 1.906-16.314 6.723-4.051 4.816-5.285 11.409-5.693 17.79-.747 11.34 3.633 26.462 15.298 17.36-.597 9.032-5.753 11.27-5.753 11.27-5.285 1.294-3.424 3.632-2.986 5.669 6.022 12.262 16.712 11.59 22.873 6.282z"/></g><g><path fill="#101421" d="M340.59 25.296s-8.622-8.047-13.987 1.006c0 0-10.044-1.72-8.583 8.046-2.98 2.525-7.342 12.704 7.153 8.46 0 0 3.804 4.848 11.176 1.277 0 0 3.973 2.665 7.947-1.257 0 0-3.278 9.424 2.762 8.177 0 0 0 12.845 3.03 7.836 1.331-2.213 1.45-5.12 4.729-6.387 4.808-1.861 5.771-9.415 1.31-11.779 0 0 3.776-9.666-5.264-10.31.08.01-.616-8.62-10.272-5.07z"/></g><g><path fill="#43266e" d="M308.342 87.893c2.143-1.521 4.367-2.171 10.015-3.812a69.165 69.165 0 0 1 7.952-1.84s8.742 16.195 21.03 1.52c.752-1.11.902-1.31 1.753-2.761 4.146 2.16 9.955 3.661 17.195 5.362 5.008 1.2 7.962 8.133 8.713 11.664-1.472 13.815-2.744 99.747-3.585 110.722 0 0-11.607 5.472-38.367 4.001-23.484-1.32-33.048-5.622-33.048-5.622s5.508-62.163 5.558-79.94c.09-39.184 2.784-39.294 2.784-39.294z"/></g><g><path fill="#512e85" d="M363.095 97.432c-.562-5.482 1.557-12.37 1.557-12.37s32.78-9.867 41.347-13.075c3.616-1.348 13.76-3.58 28.121-21.412 9.13-11.335 16.802-27.265 16.802-27.265s2.09-.795 5.966.16A8.827 8.827 0 0 1 462 26.73s-3.113 17.73-11.43 33.842c-8.315 16.111-17.364 26.27-30.3 33.49-12.935 7.221-46.278 20.91-46.278 20.91s-8.929 1.518-10.897-17.54z"/></g><g><path fill="#f24e29" d="M267 34.893l.76 43.105s.088 1.069 2.115.999c2.028-.07 2.125-1.118 2.125-1.118l-.76-43.405L269.027 25z"/></g><g><path fill="url(#8tb1g)" d="M271.914 50.698c2.946 1.605-.622 13.69-4.507 15.884 0 1.655.082 3.493.113 6.418a14.422 14.422 0 0 0-8.463-1.838s-.775-10.674 3.385-17.63c1.07-1.788 5.598-4.936 9.472-2.834z"/></g><g opacity="-.5"><g opacity=".5"><path fill="#fff" d="M609.63 160.83c0-7.461 6.049-13.51 13.51-13.51h127.78c7.461 0 13.51 6.049 13.51 13.51v27.53c0 7.461-6.049 13.51-13.51 13.51H623.14c-7.461 0-13.51-6.049-13.51-13.51z"/></g><g opacity=".5"><path fill="#e8d8f0" d="M750.82 148.32c6.95.006 12.584 5.603 12.59 12.51v27.53c-.006 6.907-5.64 12.504-12.59 12.51H623.223c-6.951-.006-12.585-5.603-12.59-12.51v-27.53c.005-6.907 5.639-12.504 12.59-12.51zm0 54.55c8.06-.011 14.591-6.5 14.602-14.51v-27.53c-.01-8.01-6.542-14.499-14.602-14.51H623.222c-8.06.011-14.59 6.5-14.602 14.51v27.53c.011 8.01 6.542 14.499 14.602 14.51z"/></g></g><g><path fill="#e8d8f0" d="M617.993 208c-8.276-.011-14.982-6.717-14.993-14.993a1.007 1.007 0 1 1 2.014 0c.005 7.166 5.813 12.974 12.98 12.98a1.007 1.007 0 0 1 0 2.013z"/></g><g><path fill="#e8d8f0" d="M756.007 208a1.007 1.007 0 1 1 0-2.014c7.164-.01 12.968-5.815 12.98-12.98a1.007 1.007 0 0 1 2.013 0c-.011 8.277-6.717 14.983-14.993 14.994z"/></g><g><path fill="#e8d8f0" d="M769.993 156c-.556 0-1.007-.45-1.007-1.007-.01-7.164-5.815-12.968-12.98-12.98a1.007 1.007 0 0 1 0-2.013c8.277.011 14.983 6.717 14.994 14.993 0 .556-.45 1.007-1.007 1.007z"/></g><g><path fill="#e8d8f0" d="M604.007 156c-.556 0-1.007-.45-1.007-1.007.011-8.276 6.717-14.982 14.993-14.993a1.007 1.007 0 1 1 0 2.014c-7.164.01-12.968 5.815-12.98 12.98 0 .555-.45 1.006-1.006 1.006z"/></g><g><path fill="#001c3b" d="M490.484 273.302c1.861-9.83 1.578-25.618 1.315-30.165l13.454-7.883s5.968 17.592 6.909 29.367l8.69-1.34-2.327-24.963-3.45-18.318c22.133 1.573 23.68 19.266 25.583 28.803 4.046 20.547 6.646 43.704 1.416 45.267l-6.272 1.492s.142.11-.131.171c-.435.111-.87.242-1.356.343-.769.161-1.487.292-2.165.383a142.542 142.542 0 0 1-30.954 2.48H500.316c-6.595-.494-14.698-.04-9.832-25.637z"/></g><g><path fill="#747c85" d="M535.202 372.01l9.71-2.96c7.35-1.088 23.667-3.917 32.036-.172a9.187 9.187 0 0 1 3.334 2.578c.19.322.35.684.55 1.006 7.7 13.37-6.767 25.712-17.499 30.373L539.066 414H479l3.734-43.732z"/></g><g><path fill="#01021f" d="M514.204 414.333l2.848-2.535 5.05-3.905a2.53 2.53 0 0 1 1.97-.893l23.485.294c8.475 0 19.97 3.043 19.424 8.45-.485 4.715-9.777 5.861-19.666 6.216h-1.647c-12.293.071-31.868.061-31.666-.152.202-.213.202-7.475.202-7.475z"/></g><g><path fill="#8b949e" d="M440.776 389s86.889 17.173 87.21 18.137c.321.964-5.02 14.863-5.02 14.863l-79.309-1.004a36.21 36.21 0 0 1-12.348-2.25c-6.265-2.36-13.141-7.03-10.863-16.138.03.02 3.333-12.875 20.33-13.608z"/></g><g><path fill="#a57de0" d="M496.56 282s-9.535.16-15.63 23.788c-5.292 20.486-5.624 33.88-11.407 40.402-5.965 6.732-29.523 24.148-29.523 24.148L461.013 377l29.311-20.817L505 314.79z"/></g><g><path fill="#a57de0" d="M518.201 280.311l16.487 3.407a46.208 46.208 0 0 1 7.16 3.084c5.147 2.852 5.711 7.176 4.785 13.204l-9.256 60.566a15.465 15.465 0 0 1-14.009 13.103l-23.164 1.925c-9.115.756-17.353 4.505-17.202-4.647l3.596-70c-.101-7.549 3.555-18.314 11.078-18.918l15.51-1.915a15.528 15.528 0 0 1 5.015.191z"/></g><g><path fill="#6532ad" d="M484.337 361c-.193-.011-.342-.185-.337-.392l2.308-52.256c.015-.203.175-.358.364-.352.092.005.178.05.24.123a.39.39 0 0 1 .087.27l-2.307 52.255c-.01.202-.168.358-.355.352z"/></g><g><path fill="#371c61" d="M489.666 402l30.52-12.037a2.855 2.855 0 0 0 1.81-2.798c-.072-1.32-1.058-2.418-2.38-2.65L477.101 377 437 391.372z"/></g><g><path fill="url(#8tb1h)" d="M496.423 360s-8.512 3.6-11.479 4.373c-4.455 1.16-18.98 4.73-18.98 4.73-1.48.071-2.049-1.13-2.758.203l-4.695 8.829a3.977 3.977 0 0 0 .066 4.012 3.827 3.827 0 0 0 3.499 1.846 3.847 3.847 0 0 0 3.258-2.258s2.338-2.726 3.187-1.84c7.542 7.82 20.03-5.686 32.328-7.975 1.128-2.96-4.426-11.92-4.426-11.92z"/></g><g><path fill="#43266e" d="M471.23 371.726L490 402l-52.508-10.735-22.17-31.517a1.738 1.738 0 0 1-.03-1.971c.4-.6 1.13-.892 1.835-.735l48.32 10.595c2.403.525 4.491 2 5.784 4.09z"/></g><g><path fill="#a57de0" d="M537.093 285s11.963 1.534 14 22.205c1.383 14.04 1.12 37.658-.352 49.234-.747 5.804-.585 13.646-16.14 16.624L494.141 376 487 361.617l40.6-10.89.788-45.006z"/></g><g><path fill="#6532ad" d="M487.378 361a.37.37 0 0 1-.09-.73l40.299-10.73.656-32.179a.348.348 0 0 1 .11-.265.356.356 0 0 1 .273-.095c.101 0 .198.04.268.112.07.072.109.168.106.268l-.677 32.45a.35.35 0 0 1-.272.35l-40.572 10.809z"/></g><g><path fill="#001c3b" d="M492.104 243.998c.768 12.148 11.028 18.726 23.624 17.939 12.595-.788 21.036-8.152 20.217-20.3-.819-12.149-11.584-21.198-24.2-20.61-17.306.827-20.4 10.823-19.641 22.971z"/></g><g><path fill="#000201" d="M501.997 252.398a1.5 1.5 0 1 1-2.994.204 1.5 1.5 0 0 1 2.994-.204z"/></g><g><path fill="url(#8tb1i)" d="M525.064 270.408c.189-4.518 4.177-11.002 3.9-16.044l-1.082-16.216c-.893-8.774-9.853-14.976-18.208-14.058-8.283 1.047-14.269 8.561-13.555 17.012 0 0-.377 10.902.209 16.035 1.37 12.01 4.257 19.291 15.876 14.007-1.15 3.62-4.534 9.57-9.158 10.357-2.243 5.718 0 13.947 3.155 14.884 13.644 4.034 25.799-13.11 25.799-13.11h-.08c-4.484-1.764-7.025-9.055-6.856-12.867z"/></g><g><path fill="#001c3b" d="M532.852 239.897a5.548 5.548 0 0 0-.16-2.624C531.06 230.82 518.598 222 518.598 222l-11.335 1.327L496 229.262a23.086 23.086 0 0 0 12.683 11.124c7.11 2.933 12.497 8.896 14.657 16.22a60.471 60.471 0 0 1 2.305 14.076c.242 3.99 8.355-30.925 8.355-30.925z"/></g><g><path fill="#001c3b" d="M507 226.112s-11.106-.663-11.98 24.888L494 234.286l3.777-7.429 1.825-2.04 4.494-1.817z"/></g><g opacity="-.5"><g opacity=".5"><path fill="#fff" d="M389.58 103.54c0-7.461 6.049-13.51 13.51-13.51h68.23c7.461 0 13.51 6.049 13.51 13.51v12.11c0 7.461-6.049 13.51-13.51 13.51h-68.23c-7.461 0-13.51-6.049-13.51-13.51z"/></g><g opacity=".5"><path fill="#e8d8f0" d="M471.32 91c6.907.006 12.505 5.603 12.51 12.51v12.1c-.005 6.907-5.603 12.504-12.51 12.51h-68.23c-6.907-.006-12.504-5.603-12.51-12.51v-12.1c.006-6.907 5.603-12.504 12.51-12.51zm0 39.15a14.52 14.52 0 0 0 14.51-14.54v-12.1c-.011-8.01-6.5-14.499-14.51-14.51h-68.23c-8.02.011-14.516 6.52-14.51 14.54v12.1c.006 8.011 6.499 14.504 14.51 14.51z"/></g></g><g><path fill="#e8d8f0" d="M478.026 135a1.026 1.026 0 1 1 0-2.052c6.582-.006 11.916-5.34 11.922-11.922a1.026 1.026 0 1 1 2.052 0c-.011 7.713-6.261 13.963-13.974 13.974z"/></g><g><path fill="#e8d8f0" d="M490.933 99c-.567 0-1.026-.46-1.026-1.027-.006-6.565-5.315-11.893-11.881-11.921a1.026 1.026 0 1 1 0-2.052c7.713.011 13.963 6.26 13.974 13.973A1.026 1.026 0 0 1 490.933 99z"/></g><g><path fill="#e8d8f0" d="M384.008 98c-.557 0-1.008-.45-1.008-1.007.006-7.17 5.817-12.982 12.992-12.993a1.008 1.008 0 1 1 0 2.014c-6.064.006-10.976 4.92-10.976 10.979 0 .556-.451 1.007-1.008 1.007z"/></g><g><path fill="#e8d8f0" d="M395.992 135c-7.173-.006-12.986-5.82-12.992-12.992a1.008 1.008 0 1 1 2.016 0c.005 6.06 4.916 10.97 10.976 10.976a1.008 1.008 0 1 1 0 2.016z"/></g><g><path fill="#454447" d="M112.669 393s-5.558 14.709-.632 17.133c4.494 2.2 40.431 4.706 43.963.896-.933-4.278-5.217-7.466-10.705-9.962-4.194-1.904-19.644-5.928-19.644-5.928z"/></g><g><path fill="#454447" d="M22.117 355s-15.08 4.036-14.068 9.414c.92 4.85 20.4 34.97 25.558 35.586 2.862-3.22 2.852-8.48 1.558-14.304-1.012-4.453-6.99-19.106-6.99-19.106z"/></g><g><path fill="#43266e" d="M89.41 203s-2.01 43.522-6.97 75.438c-.954 6.154-3.606 14.343-7.432 19.275C56.298 321.769 17 355.338 17 355.338L31.592 373s70.662-53.295 78.717-69.163C125.443 274.047 127 204.734 127 204.734z"/></g><g><path fill="#563982" d="M128.937 284.945c-3.43-24.793-18.39-87.021-18.39-87.021s-13.335-56.595-36.463-33.299c-6.363 46.534-3.88 39.645 16.955 105.85 4.916 15.574 10.442 26.811 11.758 45.187 1.636 22.775 7.22 81.338 7.22 81.338l21.942-.663s.628-85.344-3.022-111.392z"/></g><g><path fill="url(#8tb1j)" d="M225.951 174.84c.938-4.135-11.893-11.175-11.893-11.175s4.826 1.707 6.129.23c.474-.53-2.408-1.349-3.83-1.818-4.234-1.398-8.527-2.827-11.952-1.628l-3.405 6.99s8.755 8.65 16.473 10.177c1.944.36 7.51 1.408 8.478-2.776z"/></g><g><path fill="#e0664c" d="M199.178 170s1.824-1.327 4.008-5.369A14.946 14.946 0 0 0 205 158.88c-14.56-6.646-39.382-16.61-48.32-26.564-11.855-13.191-21.646-43.385-26.756-45.245-6.173.222-11.905-1.78-18.289 6.204-.08.09-2.555 3.63-2.635 3.73 8.748 16.55 25.393 40.68 33.89 48.432 9.25 8.496 23.69 14.77 56.288 24.563z"/></g><g><path fill="#4a2615" d="M128.281 35s1.546 1.493 2.758 5.83c1.211 4.337 2.639 12.94 1.605 24.65-.867 9.773-4.924 23.52-4.924 23.52l-17.075-2.753L109 61.99l7.72-22.25z"/></g><g><path fill="url(#8tb1k)" d="M101.482 96.376c-3.864-6.144-6.105-10.38-3.067-11.365.15 0-.598-1.104-.598-1.104 3.177-1.797 3.426-14.657 2.221-19.737v-.11c-2.55-10.672-5.229-29.365 5.17-35.389a12.885 12.885 0 0 1 3.705-1.385c5.976-1.285 12.27 1.907 16.325 6.726 4.054 4.819 5.299 11.415 5.697 17.8.727 11.384-4.641 28.19-16.315 19.074-1.245 9.035 6.763 13.563 6.763 13.563 5.289 1.295 3.426 3.634 2.988 5.672-6.026 12.238-16.723 11.565-22.889 6.255z"/></g><g><path fill="#f77e63" d="M129.275 86.454a29.004 29.004 0 0 0-6.856-1.792c.586 4.845.08 11.853-5.654 12.344-7.21.62-14.41-9.01-17.14-13.836L84.09 83 67 207.192s15.867 5.457 32.361 5.787c12.358.25 29.065-1.812 29.065-1.812s-1.254-61.18 4.419-84.988c3.165-13.245-1.123-32.377-1.638-37.042a3.216 3.216 0 0 0-1.932-2.683z"/></g><g><path fill="#4a2615" d="M123.477 28.508s10.18 7.775-4.068 14.22c-11.965 5.399-11.128 12.408-11.965 19.972a40.303 40.303 0 0 1-8.236 20.283h-6.98c-1.939-.005-3.87.266-5.733.806-.549.171-5.355 4.834-7.468 7.211-.44-6.879 4.616-18.41 9.223-27.726 3.769-7.745 1.176-18.39 7.398-29.489 6.222-11.098 19.314-12.61 27.829-5.277z"/></g><g><path fill="#4a2615" d="M125.007 35.158s-.818 1.816 3.495 7.253c4.312 5.437 2.52 21.589 2.52 21.589s5.199-33.002-8.378-34.848c-9.403-1.287 2.363 6.006 2.363 6.006z"/></g><g opacity="-.5"><g opacity=".5"><path fill="#fff" d="M120.25 179.79c0-7.461 6.049-13.51 13.51-13.51h127.78c7.461 0 13.51 6.049 13.51 13.51v27.53c0 7.461-6.049 13.51-13.51 13.51H133.76c-7.461 0-13.51-6.049-13.51-13.51z"/></g><g opacity=".5"><path fill="#e8d8f0" d="M261.44 167.28c6.952.005 12.589 5.602 12.6 12.51v27.53c-.011 6.908-5.648 12.505-12.6 12.51H133.842c-6.95-.006-12.584-5.603-12.59-12.51v-27.53c.006-6.907 5.64-12.504 12.59-12.51zm0 54.55c8.064-.006 14.601-6.497 14.612-14.51v-27.53c-.01-8.013-6.548-14.504-14.612-14.51H133.842c-8.06.011-14.59 6.5-14.602 14.51v27.53c.011 8.01 6.542 14.499 14.602 14.51z"/></g></g><g><path fill="#e8d8f0" d="M128.993 227c-8.276-.011-14.982-6.717-14.993-14.993a1.007 1.007 0 1 1 2.014 0c.01 7.164 5.815 12.968 12.98 12.98a1.007 1.007 0 0 1 0 2.013z"/></g><g><path fill="#e8d8f0" d="M267.007 227a1.007 1.007 0 1 1 0-2.014c7.166-.005 12.974-5.813 12.98-12.98a1.007 1.007 0 0 1 2.013 0c-.011 8.277-6.717 14.983-14.993 14.994z"/></g><g><path fill="#e8d8f0" d="M281.003 175a1.007 1.007 0 0 1-1.007-1.008c-.016-7.168-5.825-12.971-12.99-12.977a1.007 1.007 0 0 1 0-2.015c8.275.006 14.983 6.713 14.994 14.992 0 .553-.445 1.002-.997 1.008z"/></g><g><path fill="#e8d8f0" d="M115.007 175a1.007 1.007 0 0 1-1.007-1.008c.011-8.279 6.719-14.986 14.993-14.992a1.007 1.007 0 0 1 0 2.015c-7.16.011-12.963 5.813-12.98 12.977a1.008 1.008 0 0 1-1.006 1.008z"/></g><g><path fill="none" stroke="#70539c" stroke-linecap="round" stroke-linejoin="round" stroke-miterlimit="20" stroke-width="2" d="M132 208v0l21.4-15.5v0l21.89 14.995v0l17.735-10.162v0l18.578 10.001v0L251.399 176v0L266 187.504v0"/></g><g><path fill="url(#8tb1l)" d="M136.512 227.522c2.61-3.317-6.099-15.415-6.099-15.415s3.954 1.21 6.237-.373c.574-.393-.553-.766-1.561-1.008-4.25-1.139-8.452-5.333-12.07-5.726L117 209.87s4.29 11.714 10.636 16.462c1.601 1.21 6.227 4.598 8.876 1.19z"/></g><g><path fill="#e0664c" d="M124 202.118a171.212 171.212 0 0 1-22.236-29.215 75.573 75.573 0 0 1-10.23-48.699l3.68-29.626c1.123-9.03-7.663-17.407-15.797-6.18a40.596 40.596 0 0 0-6.63 12.43c-6.71 19.654-4.132 52.842 4.805 67.219C97.26 199.74 114.792 212 114.792 212s3.01-.712 6.83-4.444a8.77 8.77 0 0 0 2.378-5.438z"/></g></g></g></svg>